<?xml version="1.0" encoding="utf-8"?>
<!-- Generator: Adobe Illustrator 27.5.0, SVG Export Plug-In . SVG Version: 6.00 Build 0)  -->
<svg version="1.1" id="Layer_1" xmlns="http://www.w3.org/2000/svg" xmlns:xlink="http://www.w3.org/1999/xlink" x="0px" y="0px"
	 viewBox="0 0 192 110.3" style="enable-background:new 0 0 192 110.3;" xml:space="preserve">
<style type="text/css">
	.st0{fill:#FFFFFF;}
</style>
<g>
	<path class="st0" d="M43.3,91c-6.1,0-9.1-3.4-9.1-10.1c0-3.2,0.8-5.7,2.3-7.4c1.5-1.7,3.7-2.6,6.5-2.6c1.3,0,2.5,0.2,3.5,0.6
		c1,0.4,1.7,1,2.2,1.8l-2,2c-0.4-0.6-0.9-1.1-1.6-1.4c-0.6-0.3-1.3-0.5-2.1-0.5c-1.8,0-3.2,0.6-4.3,1.9c-1.1,1.3-1.6,3.1-1.6,5.4
		c0,5.1,2.2,7.7,6.6,7.7c1.3,0,2.6-0.3,3.9-0.8l0.6,2.4C46.7,90.7,45.1,91,43.3,91z"/>
	<path class="st0" d="M57.7,91c-4.2,0-6.3-2.2-6.3-6.6V71.2h2.9v13.3c0,1.3,0.3,2.3,0.8,2.9c0.6,0.7,1.4,1,2.6,1
		c2.3,0,3.5-1.3,3.5-3.9V71.2h2.9v13.3c0,2.2-0.5,3.8-1.6,4.9C61.4,90.5,59.8,91,57.7,91z"/>
	<path class="st0" d="M68,90.7V71.2h2.9v19.6H68z M70.7,83.3v-2.6h4c1.1,0,1.9-0.3,2.6-0.9c0.6-0.6,0.9-1.4,0.9-2.4
		c0-1.1-0.3-2-0.9-2.7c-0.6-0.6-1.5-0.9-2.6-0.9h-4l-0.3-2.6h4.3c2,0,3.6,0.5,4.7,1.5c1.1,1,1.7,2.5,1.7,4.4c0,2-0.6,3.5-1.7,4.6
		c-1.1,1.1-2.7,1.6-4.7,1.6H70.7z M78.5,90.7l-4.4-9.2h3l4.7,9.2H78.5z"/>
	<path class="st0" d="M84.5,90.7V71.2h2.9v19.6H84.5z M87.2,83.3v-2.6h4c1.1,0,1.9-0.3,2.6-0.9c0.6-0.6,0.9-1.4,0.9-2.4
		c0-1.1-0.3-2-0.9-2.7c-0.6-0.6-1.5-0.9-2.6-0.9h-4l-0.3-2.6h4.3c2,0,3.6,0.5,4.7,1.5c1.1,1,1.7,2.5,1.7,4.4c0,2-0.6,3.5-1.7,4.6
		c-1.1,1.1-2.7,1.6-4.7,1.6H87.2z M95,90.7l-4.4-9.2h3l4.7,9.2H95z"/>
	<path class="st0" d="M101.3,90.7V71.2h2.9v19.6H101.3z M101.3,73.8v-2.6h12.9v2.6H101.3z M101.3,82.2v-2.6h10.5v2.6H101.3z
		 M101.3,90.7v-2.6h12.9v2.6H101.3z"/>
	<path class="st0" d="M117.7,90.7V71.2h2.9v19.6H117.7z M126.4,90.7l-5.6-14.9h-1.3v-4.7h1.8L127,86h0.7v4.7H126.4z M127.3,90.7
		V71.2h2.9v19.6H127.3z"/>
	<path class="st0" d="M133.3,73.8v-2.6h14.3v2.6H133.3z M139,90.7V71.2h2.9v19.6H139z"/>
	<path class="st0" d="M150.9,90.7V71.2h2.9v19.6H150.9z M150.9,90.7v-2.6h12.9v2.6H150.9z"/>
	<path class="st0" d="M172.3,84.2l-6.7-13h3l4.8,9.8h0.2l4.8-9.8h3l-6.7,13H172.3z M172.1,90.7v-9.6h2.9v9.6H172.1z"/>
</g>
<polygon class="st0" points="25.5,81.4 3.3,94.3 3.3,68.6 "/>
</svg>
