<?xml version="1.0" encoding="utf-8"?>
<!-- Generator: Adobe Illustrator 27.5.0, SVG Export Plug-In . SVG Version: 6.00 Build 0)  -->
<svg version="1.1" xmlns="http://www.w3.org/2000/svg" xmlns:xlink="http://www.w3.org/1999/xlink" x="0px" y="0px"
	 viewBox="0 0 1122 1122" style="enable-background:new 0 0 1122 1122;" xml:space="preserve">
<style type="text/css">
	.st0{fill:#B3D6E4;}
	.st1{fill:#A6C8DE;}
	.st2{fill:#C3DFE9;}
	.st3{fill:#F6F6F6;}
	.st4{fill:#D6EEF2;}
</style>
<g id="BG">
	<g id="Layer_2">
	</g>
</g>
<g id="Icon">
	<g>
		<g>
			<path class="st0" d="M829.7,779.5H292.3c-11.1,0-20.3-10.6-20.3-23.6V366.1c0-13,9.1-23.6,20.3-23.6h537.5
				c11.1,0,20.3,10.6,20.3,23.6v389.8C850,768.9,840.9,779.5,829.7,779.5z"/>
		</g>
		<g>
			<path class="st1" d="M272,755.9c0,13,9.1,23.6,20.3,23.6h537.5c11.1,0,20.3-10.6,20.3-23.6v-2.6L569.6,548.6
				c-5.1-3.7-12.1-3.7-17.2,0L272,753.3V755.9z"/>
		</g>
		<g>
			<path class="st2" d="M850,366.1c0-13-9.1-23.6-20.3-23.6H292.3c-11.1,0-20.3,10.6-20.3,23.6v2.6l280.4,204.7
				c5.1,3.7,12.1,3.7,17.2,0L850,368.7V366.1z"/>
		</g>
		<g>
			<path class="st3" d="M280.8,775.3c3.3,2.7,7.2,4.2,11.5,4.2h537.5c11.1,0,20.3-10.6,20.3-23.6V576.7
				C687,719.8,420.8,762.5,280.8,775.3z"/>
		</g>
		<g>
			<g>
				<path class="st4" d="M309.1,360.2c-10,0-18.2,8.1-18.2,18.2v4.2L319,403c38.5-17.9,99.8-35.9,180.2-42.8H309.1z"/>
			</g>
			<g>
				<path class="st2" d="M291,382.5v36.1c7.3-5,16.7-10.3,28.1-15.6L291,382.5z"/>
			</g>
		</g>
	</g>
</g>
</svg>
