<?xml version="1.0" encoding="utf-8"?>
<!-- Generator: Adobe Illustrator 27.5.0, SVG Export Plug-In . SVG Version: 6.00 Build 0)  -->
<svg version="1.1" xmlns="http://www.w3.org/2000/svg" xmlns:xlink="http://www.w3.org/1999/xlink" x="0px" y="0px"
	 viewBox="0 0 578 436" style="enable-background:new 0 0 578 436;" xml:space="preserve">
<style type="text/css">
	.st0{fill:#B3D6E4;}
	.st1{fill:#A6C8DE;}
	.st2{fill:#C3DFE9;}
	.st3{fill:#F6F6F6;}
	.st4{fill:#D6EEF2;}
</style>
<g id="BG">
	<g id="Layer_2">
	</g>
</g>
<g id="Icon">
	<g>
		<g>
			<path class="st0" d="M557.7,436.5H20.3C9.1,436.5,0,425.9,0,412.9V23.1c0-13,9.1-23.6,20.3-23.6h537.5
				c11.1,0,20.3,10.6,20.3,23.6v389.8C578,425.9,568.9,436.5,557.7,436.5z"/>
		</g>
		<g>
			<path class="st1" d="M0,412.9c0,13,9.1,23.6,20.3,23.6h537.5c11.1,0,20.3-10.6,20.3-23.6v-2.6L297.6,205.6
				c-5.1-3.7-12.1-3.7-17.2,0L0,410.3V412.9z"/>
		</g>
		<g>
			<path class="st2" d="M578,23.1c0-13-9.1-23.6-20.3-23.6H20.3C9.1-0.5,0,10.1,0,23.1v2.6l280.4,204.7c5.1,3.7,12.1,3.7,17.2,0
				L578,25.7V23.1z"/>
		</g>
		<g>
			<path class="st3" d="M8.8,432.3c3.3,2.7,7.2,4.2,11.5,4.2h537.5c11.1,0,20.3-10.6,20.3-23.6V233.7
				C415,376.8,148.8,419.5,8.8,432.3z"/>
		</g>
		<g>
			<g>
				<path class="st4" d="M37.1,17.2c-10,0-18.2,8.1-18.2,18.2v4.2L47,60c38.5-17.9,99.8-35.9,180.2-42.8H37.1z"/>
			</g>
			<g>
				<path class="st2" d="M19,39.5v36.1c7.3-5,16.7-10.3,28.1-15.6L19,39.5z"/>
			</g>
		</g>
	</g>
</g>
</svg>
