<?xml version="1.0" encoding="utf-8"?>
<!-- Generator: Adobe Illustrator 27.5.0, SVG Export Plug-In . SVG Version: 6.00 Build 0)  -->
<svg version="1.1" id="Capa_1" xmlns="http://www.w3.org/2000/svg" xmlns:xlink="http://www.w3.org/1999/xlink" x="0px" y="0px"
	 viewBox="0 0 1411.8 1443.9" style="enable-background:new 0 0 1411.8 1443.9;" xml:space="preserve">
<style type="text/css">
	.st0{fill:#FDC333;}
	.st1{fill:#EFEFE7;}
	.st2{fill:#F7A633;}
	.st3{fill:#F39232;}
	.st4{fill:#E67D2F;}
	.st5{fill:#D8D8DA;}
</style>
<g>
	<polygon class="st0" points="1185.9,341.7 1185.9,97.8 843.3,97.8 705.9,0 568.5,97.8 225.9,97.8 225.9,341.7 0,502.4 0,1443.9 
		1411.8,1443.9 1411.8,502.4 	"/>
	<polygon class="st1" points="1185.9,621.2 852,796.8 705.9,693.5 562.6,816.7 225.9,628.6 225.9,97.8 1185.9,97.8 	"/>
	<polygon class="st2" points="0,502.4 0,1443.9 572.9,884.5 	"/>
	<polygon class="st2" points="838.9,884.5 1411.8,1443.9 1411.8,502.4 	"/>
	<polygon class="st3" points="705.9,754.6 572.9,884.5 0,1443.9 1411.8,1443.9 838.9,884.5 	"/>
	<polygon class="st4" points="0,502.4 572.9,884.5 705.9,754.6 838.9,884.5 1411.8,502.4 852,796.8 705.9,693.5 562.6,816.7 	"/>
	<g>
		<rect x="349.2" y="268.3" class="st5" width="329.5" height="23.5"/>
		<rect x="883" y="268.3" class="st5" width="179.6" height="23.5"/>
		<rect x="710.9" y="268.3" class="st5" width="124.7" height="23.5"/>
		<rect x="349.2" y="449.1" class="st5" width="329.5" height="23.5"/>
		<rect x="710.9" y="449.1" class="st5" width="124.7" height="23.5"/>
		<rect x="349.2" y="390" class="st5" width="244.5" height="23.5"/>
		<rect x="883" y="390" class="st5" width="179.6" height="23.5"/>
		<rect x="625.8" y="390" class="st5" width="209.8" height="23.5"/>
		<rect x="349.2" y="333.6" class="st5" width="164.8" height="23.5"/>
		<rect x="773.2" y="333.6" class="st5" width="289.4" height="23.5"/>
		<rect x="546.1" y="333.6" class="st5" width="179.7" height="23.5"/>
		<rect x="349.2" y="537" class="st5" width="329.5" height="23.5"/>
		<rect x="883" y="537" class="st5" width="179.6" height="23.5"/>
		<rect x="710.9" y="537" class="st5" width="124.7" height="23.5"/>
		<rect x="349.2" y="658.7" class="st5" width="244.5" height="23.5"/>
		<rect x="883" y="658.7" class="st5" width="179.6" height="23.5"/>
		<rect x="625.8" y="658.7" class="st5" width="209.8" height="23.5"/>
		<rect x="349.2" y="602.4" class="st5" width="164.8" height="23.5"/>
		<rect x="773.2" y="602.4" class="st5" width="289.4" height="23.5"/>
		<rect x="546.1" y="602.4" class="st5" width="179.7" height="23.5"/>
	</g>
</g>
</svg>
