<?xml version="1.0" encoding="utf-8"?>
<!-- Generator: Adobe Illustrator 27.5.0, SVG Export Plug-In . SVG Version: 6.00 Build 0)  -->
<svg version="1.1" id="Layer_1" xmlns="http://www.w3.org/2000/svg" xmlns:xlink="http://www.w3.org/1999/xlink" x="0px" y="0px"
	 viewBox="0 0 477 176" style="enable-background:new 0 0 477 176;" xml:space="preserve">
<style type="text/css">
	.st0{fill:#FFFFFF;}
	.st1{opacity:0.5;}
	.st2{fill:#FF0000;}
	.st3{fill:none;stroke:#FFFFFF;stroke-miterlimit:10;}
</style>
<g>
	<path class="st0" d="M184.5,155.6v-41.4h6.1v41.4H184.5z M184.5,119.7v-5.5h27.4v5.5H184.5z M184.5,139.4v-5.5h22.2v5.5H184.5z"/>
	<path class="st0" d="M231.7,156.2c-8.9,0-13.3-4.6-13.3-13.9v-28.1h6.1v28.1c0,2.8,0.6,4.8,1.8,6.2c1.2,1.4,3,2.1,5.6,2.1
		c4.9,0,7.4-2.8,7.4-8.3v-28.1h6.1v28.1c0,4.6-1.1,8.1-3.4,10.4C239.5,155.1,236.1,156.2,231.7,156.2z"/>
	<path class="st0" d="M253.6,155.6v-41.4h6.1v41.4H253.6z M272.2,155.6l-11.9-31.5h-2.7v-9.9h3.9l11.9,31.5h1.5v9.9H272.2z
		 M273.9,155.6v-41.4h6.1v41.4H273.9z"/>
	<path class="st0" d="M306.7,155.6v-41.4h6.1v41.4H306.7z M306.7,119.7v-5.5h27.4v5.5H306.7z M306.7,139.4v-5.5h22.2v5.5H306.7z"/>
	<path class="st0" d="M337.7,155.6l12-41.4h8.5l12,41.4H364l-9.8-36.4h-0.5l-9.8,36.4H337.7z M343.3,145.5V140h21v5.5H343.3z"/>
	<path class="st0" d="M393.3,156.2c-12.9,0-19.3-7.1-19.3-21.4c0-6.8,1.6-12,4.9-15.7c3.2-3.7,7.8-5.6,13.7-5.6
		c2.9,0,5.4,0.5,7.5,1.4c2.1,0.9,3.7,2.2,4.6,3.9l-4.3,4.3c-0.9-1.3-2-2.3-3.3-3.1c-1.4-0.7-2.8-1.1-4.4-1.1c-3.8,0-6.8,1.4-9,4.1
		c-2.3,2.7-3.4,6.5-3.4,11.5c0,10.9,4.7,16.3,14.1,16.3c2.8,0,5.6-0.6,8.3-1.8l1.3,5.1C400.6,155.6,397,156.2,393.3,156.2z"/>
	<path class="st0" d="M407.6,119.7v-5.5H438v5.5H407.6z M419.8,155.6v-41.4h6.1v41.4H419.8z"/>
	<path class="st0" d="M456.4,156.2c-2.4,0-4.6-0.2-6.6-0.6s-4-0.9-5.7-1.7l0.8-5.9c2.1,0.9,4.2,1.6,6.2,2.1c2,0.5,3.9,0.7,5.8,0.7
		c2.7,0,4.7-0.5,6.1-1.4c1.3-1,2-2.4,2-4.3c0-2.5-1.3-4.3-3.8-5.4l-7.2-3.3c-2.8-1.3-5-2.8-6.5-4.6s-2.3-4.1-2.3-6.7
		c0-3.6,1.1-6.4,3.3-8.4c2.2-2,5.3-3,9.3-3c2.8,0,5.2,0.4,7.4,1.2c2.1,0.8,4.2,2.1,6.2,4l-4.1,4.1c-1.7-1.4-3.3-2.4-4.8-3.1
		c-1.5-0.6-3-0.9-4.7-0.9c-2,0-3.6,0.5-4.7,1.4c-1.1,1-1.6,2.4-1.6,4.3c0,1.3,0.4,2.4,1.1,3.3c0.7,0.8,1.8,1.6,3.2,2.3l6.1,2.9
		c3.1,1.4,5.4,3.1,7,4.9c1.6,1.8,2.4,4.1,2.4,7c0,3.8-1.2,6.6-3.7,8.4C465,155.3,461.3,156.2,456.4,156.2z"/>
</g>
<g class="st1">
	<path class="st0" d="M77.6,149v-23.7h3.5V149H77.6z M80.8,140v-3.2h4.9c1.3,0,2.4-0.4,3.1-1.1c0.7-0.7,1.1-1.7,1.1-3
		c0-1.4-0.4-2.5-1.1-3.2c-0.7-0.8-1.8-1.1-3.1-1.1h-4.8l-0.4-3.2h5.2c2.5,0,4.4,0.6,5.7,1.9c1.3,1.2,2,3,2,5.3c0,2.4-0.7,4.2-2,5.5
		c-1.3,1.3-3.2,2-5.7,2H80.8z M90.3,149L85,137.8h3.7l5.6,11.2H90.3z"/>
	<path class="st0" d="M98,149v-23.7h3.5V149H98z M98,128.4v-3.2h15.7v3.2H98z M98,138.7v-3.2h12.7v3.2H98z M98,149v-3.2h15.7v3.2H98
		z"/>
	<path class="st0" d="M127.8,149.3c-7.4,0-11.1-4.1-11.1-12.2c0-3.9,0.9-6.9,2.8-9s4.5-3.2,7.9-3.2c1.6,0,3.1,0.3,4.3,0.8
		s2.1,1.3,2.7,2.2l-2.5,2.5c-0.5-0.8-1.1-1.3-1.9-1.8c-0.8-0.4-1.6-0.6-2.5-0.6c-2.1,0-3.9,0.8-5.2,2.3c-1.3,1.5-1.9,3.7-1.9,6.6
		c0,6.2,2.7,9.3,8,9.3c1.6,0,3.2-0.3,4.8-1l0.8,2.9C132,148.9,130,149.3,127.8,149.3z"/>
</g>
<circle class="st2" cx="39.5" cy="136.5" r="21.5"/>
<path class="st3" d="M155.5,170.5h-139c-3.9,0-7-3.1-7-7v-53c0-3.9,3.1-7,7-7h139c3.9,0,7,3.1,7,7v53
	C162.5,167.4,159.4,170.5,155.5,170.5z"/>
</svg>
