<?xml version="1.0" encoding="utf-8"?>
<!-- Generator: Adobe Illustrator 27.5.0, SVG Export Plug-In . SVG Version: 6.00 Build 0)  -->
<svg version="1.1" id="Layer_1" xmlns="http://www.w3.org/2000/svg" xmlns:xlink="http://www.w3.org/1999/xlink" x="0px" y="0px"
	 viewBox="0 0 1366 401" style="enable-background:new 0 0 1366 401;" xml:space="preserve">
<style type="text/css">
	.st0{fill:#FDE9C4;}
	.st1{opacity:0.65;}
	.st2{fill:#E9E1D6;}
	.st3{fill:#D74246;}
	.st4{fill:#E7A350;}
	.st5{opacity:0.64;}
	.st6{fill:#FFFFFF;}
	.st7{display:none;opacity:0.62;}
	.st8{display:inline;}
	.st9{display:inline;fill:#FFFFFF;}
	.st10{fill:#7A484F;}
	.st11{fill:#AF3248;stroke:#A15B5B;stroke-miterlimit:10;}
	.st12{fill:#D74246;stroke:#A15B5B;stroke-miterlimit:10;}
	.st13{fill:#DE703B;stroke:#A15B5B;stroke-miterlimit:10;}
	.st14{fill:#E7A350;stroke:#A15B5B;stroke-width:3;stroke-miterlimit:10;}
</style>
<rect class="st0" width="1366" height="401"/>
<g class="st1">
	<path d="M297,141.8c-16.4,0-32.8,0-49.2,0c-0.6,0-1.2,0-1.8-0.2c-1.4-0.4-2.3-1.6-2.3-3.1c0-1.3,0-2.6-0.1-3.9
		c-0.1-1.3,0.1-2.5,0.6-3.6c1.4-3.9,2.8-7.8,4.2-11.8c0.8-2.2,1.8-2.9,4.1-2.9c2.5,0,5.1,0,7.6,0.1c0.7,0,0.9-0.2,0.9-0.9
		c-0.1-0.9,0-1.7,0-2.6c0-0.3-0.1-0.7-0.3-1c-0.8-1.2-1-2.5-1-3.9c0-21.4,0-42.8,0-64.2c0-5.1,0-10.3,0-15.4c0-1.8,0.3-3.4,1.9-4.6
		c0.9-0.7,2-0.9,3.1-0.9c5.1,0,10.2,0,15.3,0c16.4,0,32.8,0,49.2,0c1.2,0,2.3,0.1,3.3,0.9c1.3,1,1.8,2.4,1.8,4c0,1.8,0,3.7,0,5.5
		c0,24.6,0,49.1,0,73.7c0,0.9,0,1.8-0.1,2.7c-0.1,0.5-0.2,1.1-0.5,1.6c-1.1,1.5-0.4,3.2-0.6,4.7c0,0.1,0.4,0.4,0.6,0.4
		c2.5,0,5,0,7.5,0c0.5,0,1.1,0,1.6,0.1c1.2,0.2,2,0.8,2.5,1.9c0.8,2,1.5,4.1,2.3,6.1c0.8,2.2,1.6,4.5,2.4,6.7
		c0.3,0.8,0.4,1.7,0.5,2.5c0.1,1.4,0.1,2.9,0.1,4.3c0,2.3-1.3,3.6-3.6,3.6c-2.6,0-5.2,0-7.9,0C324.9,141.8,311,141.8,297,141.8
		C297,141.8,297,141.8,297,141.8z M261.8,67.1C261.8,67.1,261.8,67.1,261.8,67.1c0,13,0,26,0,39c0,1.4,0,1.4,1.5,1.4
		c21.7,0,43.5,0,65.2,0c1,0,1.9,0,2.9,0c0.5,0,0.6-0.2,0.6-0.6c0-1,0-2,0-3c0-24.3,0-48.5,0-72.8c0-1.2,0-2.4,0-3.6
		c-0.1-1.2-0.9-2.1-2.1-2.1c-1.4-0.1-2.9,0-4.3,0c-18.7,0-37.4,0-56.1,0c-1.7,0-3.4,0-5,0c-1,0-1.9,0.3-2.3,1.3
		c-0.2,0.5-0.3,1.2-0.3,1.8C261.8,41.2,261.8,54.1,261.8,67.1z M337.9,118.4c0.1,0.5,0.2,0.7,0.2,0.8c0.7,2.3,1.4,4.7,2.1,7
		c0.4,1.4,0,1.9-1.5,1.9c-0.6,0-1.3,0-2,0c0.1,0.5,0.2,0.9,0.2,1.2c0.3,1.5-0.2,2.1-1.8,2.1c-4.1,0-8.2,0-12.3,0
		c-21.4,0-42.8,0-64.2,0c-0.3,0-0.6,0-0.9-0.1c-0.9-0.2-1.2-0.7-1.1-1.6c0.1-0.5,0.2-1,0.3-1.6c-0.8,0-1.6,0-2.3,0
		c-1,0-1.5-0.7-1.3-1.6c0.2-0.6,0.3-1.3,0.5-1.9c0.5-1.8,1.1-3.5,1.6-5.3c0.2-0.8,0.2-0.9-0.7-0.9c-0.8,0-1.7,0-2.5,0
		c-1.2,0-1.6,0.1-2,1.3c-1.6,4.3-3.1,8.6-4.6,12.9c-0.5,1.5,0,2.2,1.6,2.2c5.9,0,11.9,0,17.8,0c26.9,0,53.9,0,80.8,0
		c2.2,0,2.7-0.6,1.9-2.7c-1.3-3.7-2.6-7.3-3.9-11c-1-2.9-0.7-2.7-3.8-2.7C339.4,118.4,338.7,118.4,337.9,118.4z M296.9,108.4
		C296.9,108.4,296.9,108.4,296.9,108.4c-11.4,0-22.7,0-34.1,0c-0.2,0-0.3,0-0.5,0c-0.4,0-0.6,0.2-0.6,0.6c-0.1,1.3,0.8,2.3,2.1,2.5
		c0.8,0.1,1.6,0.1,2.4,0.1c9.9,0,19.8,0,29.7,0c11,0,22.1,0,33.1,0c1.7,0,2.5-0.5,2.9-1.9c0.2-0.9,0-1.2-0.9-1.2
		C319.6,108.4,308.2,108.4,296.9,108.4z M263,113.6c0,0.7,0,1.4,0,2.1c0,0.5,0.2,0.7,0.7,0.6c1.7,0,3.4,0,5.1,0
		c15.6,0,31.1,0,46.7,0c4.9,0,9.7,0,14.6,0c0.2,0,0.7-0.2,0.7-0.3c0.1-0.8,0-1.6,0-2.4C308.1,113.6,285.6,113.6,263,113.6z
		 M348.3,138.1c-1,0.1-1.9,0.2-2.9,0.2c-31.3,0-62.6,0-93.9,0c-1.9,0-3.9-0.1-5.9-0.1c0,0.2,0.1,0.5,0.2,0.8c0.4,0.9,1.2,0.9,2,0.9
		c32.5,0,65,0,97.6,0c0.5,0,1.1,0,1.6,0C347.9,139.7,348.4,139,348.3,138.1z M245.7,135.7c-0.1,0.8,0.4,1.5,1.4,1.5
		c0.8,0,1.6,0,2.4,0c25.6,0,51.3,0,76.9,0c6.8,0,13.6,0,20.4,0c1.1,0,1.7-0.7,1.5-1.7c-0.6,0.1-1.3,0.2-1.9,0.2c-2.2,0-4.3,0-6.5,0
		c-27.8,0-55.7,0-83.5,0C252.7,135.8,249.2,135.7,245.7,135.7z M269.5,126.6c-0.1,0.5-0.2,0.9-0.3,1.3c-0.2,0.7,0.1,0.9,0.7,0.8
		c0.7,0,1.4,0,2.1,0c17.2,0,34.5,0,51.7,0c0.2,0,0.5,0,0.8-0.1c-0.1-0.7-0.2-1.3-0.4-2C306,126.6,287.7,126.6,269.5,126.6z
		 M254.4,125.5c3.4,0,6.5,0,9.6,0c1.7,0,1.7-0.1,2-1.7c0.1-0.4,0-0.7-0.5-0.7c-3.3,0-6.5,0-9.8,0c-0.2,0-0.5,0.1-0.6,0.2
		C254.9,124,254.7,124.7,254.4,125.5z M327.7,123.2c0.1,0.4,0.1,0.8,0.2,1.2c0.2,1,0.3,1.1,1.4,1.1c3.1,0,6.2,0,9.3,0
		c0.2,0,0.4,0,0.7,0c0-1.6-0.5-2.3-2-2.3c-2.7,0-5.3,0-8,0C328.7,123.2,328.2,123.2,327.7,123.2z M279,125.5c1.3,0,2.4,0,3.6,0
		c1.5,0,1.7-0.2,1.6-1.7c0,0,0-0.1,0-0.1c-0.2-0.2-0.3-0.5-0.5-0.5c-1.3,0-2.6-0.1-3.9,0c-0.2,0-0.5,0.3-0.5,0.5
		C279.1,124.2,279.1,124.8,279,125.5z M266.8,125.5c1.5,0,3.1,0,4.6,0c0.2,0,0.4-0.3,0.5-0.4c0.1-0.6,0.2-1.1,0.2-1.7
		c0,0-0.3-0.1-0.5-0.1c-0.8,0-1.7,0-2.5,0C267,123.2,267,123.2,266.8,125.5z M320.9,125.5c-0.1-0.5-0.2-0.9-0.2-1.4
		c0-0.6-0.3-0.9-0.9-0.9c-0.9,0-1.8,0-2.7,0c-1.7,0-1.8,0-1.4,1.7c0.1,0.2,0.4,0.6,0.6,0.6C317.8,125.5,319.3,125.5,320.9,125.5z
		 M308.6,125.5c-0.1-0.5-0.1-1-0.1-1.4c0-0.7-0.3-0.9-0.9-0.9c-0.8,0-1.7,0-2.5,0c-1.9,0-1.7-0.3-1.4,1.8c0,0.2,0.4,0.5,0.5,0.5
		C305.6,125.5,307,125.5,308.6,125.5z M272.9,125.5c1.6,0,3.1,0,4.6,0c0.2,0,0.4-0.2,0.5-0.4c0.1-0.5,0.2-0.9,0.2-1.4
		c0-0.2-0.3-0.5-0.4-0.5c-1.3,0-2.6,0-4,0c-0.2,0-0.6,0.3-0.6,0.5C273,124.2,273,124.8,272.9,125.5z M327,125.5
		c-0.2-0.7-0.3-1.3-0.4-1.9c0-0.1-0.3-0.3-0.4-0.3c-1.5,0-3,0-4.5,0c0.1,0.6,0.1,1.1,0.2,1.6c0.1,0.3,0.4,0.6,0.7,0.6
		C323.9,125.5,325.4,125.5,327,125.5z M285.3,125.5c1.3,0,2.5,0,3.7,0c1.3,0,1.3,0,1.4-1.4c0-0.1,0.1-0.3,0-0.4
		c-0.1-0.2-0.3-0.5-0.5-0.5c-1.3,0-2.6,0-4,0c-0.2,0-0.5,0.3-0.6,0.4C285.2,124.2,285.3,124.8,285.3,125.5z M297.5,125.4
		c1.7,0,3.3,0,4.9,0c0-0.8,0-1.4,0-2.2c-1.7,0-3.3,0-4.9,0C297.5,124,297.5,124.7,297.5,125.4z M314.7,125.5c-0.1-0.6,0-1.2-0.2-1.7
		c-0.1-0.2-0.4-0.6-0.6-0.6c-1.4,0-2.9,0-4.3,0c0,0.6,0,1.1,0,1.7c0,0.4,0.2,0.6,0.6,0.6C311.7,125.5,313.1,125.5,314.7,125.5z
		 M291.4,125.4c1.6,0,3.2,0,4.9,0c0-0.5,0-1,0-1.4c0-0.6-0.2-0.9-0.8-0.8c-0.8,0-1.5,0-2.3,0C291.1,123.2,291.1,123.2,291.4,125.4z
		 M266.1,126.6C266.1,126.6,266.1,126.5,266.1,126.6c-0.3-0.1-0.6-0.1-0.9-0.1c-1.5,0-1.6,0.1-1.7,1.6c-0.1,0.5,0.1,0.7,0.6,0.7
		c0.8,0,1.6,0,2.4,0c1.5,0,1.5,0,1.8-1.5c0.1-0.5,0-0.7-0.5-0.6C267.2,126.6,266.7,126.6,266.1,126.6z M262.7,126.6
		c-1.1,0-2.1,0-3.1,0c-1.4,0-1.4,0.1-1.7,1.4c-0.1,0.5,0.1,0.8,0.6,0.8c1.1,0,2.3,0,3.4-0.1c0.2,0,0.5-0.2,0.5-0.4
		C262.6,127.7,262.6,127.2,262.7,126.6z M331,126.5c0.1,0.6,0.2,1,0.3,1.4c0.1,0.6,0.4,0.8,0.9,0.8c1,0,2.1,0,3.1,0
		c0.2,0,0.4-0.1,0.5-0.2c0.3-0.4-0.4-2-0.9-2C333.6,126.5,332.4,126.5,331,126.5z M325.5,126.6c0,0.4,0,0.7,0,0.9
		c0.1,1,0.3,1.2,1.3,1.2c0.9,0,1.8,0,2.7,0c0.6,0,0.7-0.2,0.6-0.7c-0.1-0.3,0-0.7-0.2-1c-0.1-0.2-0.3-0.5-0.5-0.5
		C328.1,126.6,326.9,126.6,325.5,126.6z M255.6,122.1c0.1,0,0.2,0.1,0.4,0.1c1,0,2,0,3,0c0.1,0,0.4-0.1,0.4-0.2
		c0.2-0.6,0.4-1.3,0.6-2c-0.9,0-1.6,0-2.3,0C256.1,119.8,255.5,120.4,255.6,122.1z M287.1,122.1
		C287.1,122.1,287.1,122.1,287.1,122.1c0.4,0,0.9,0,1.3,0c0.4,0,0.6-0.1,0.6-0.5c0-0.4,0.1-0.8,0.1-1.2c0-0.2-0.3-0.5-0.5-0.5
		c-0.9,0-1.8,0-2.7,0c-0.2,0-0.5,0.1-0.6,0.3c-0.1,0.6-0.2,1.2-0.1,1.7c0,0.2,0.7,0.2,1.2,0.2C286.6,122.1,286.8,122.1,287.1,122.1z
		 M333.8,119.9c0.2,0.7,0.3,1.3,0.5,1.9c0.1,0.2,0.4,0.4,0.6,0.4c0.9,0,1.9,0,2.8,0c0.4,0,0.6-0.2,0.4-0.6c-0.2-0.4-0.3-0.9-0.5-1.3
		c-0.1-0.2-0.5-0.4-0.7-0.4C335.9,119.8,334.9,119.9,333.8,119.9z M329,119.9c0.2,0.7,0.3,1.2,0.4,1.6c0.1,0.2,0.3,0.5,0.5,0.5
		c1.1,0,2.3,0,3.5,0c-0.2-0.7-0.4-1.3-0.6-1.8c-0.1-0.2-0.3-0.3-0.4-0.4C331.3,119.9,330.2,119.9,329,119.9z M289.9,122.1
		c0.9,0,1.7,0,2.5,0c1.7,0,1.6,0,1.5-1.7c0-0.1-0.1-0.2-0.1-0.4c-1.2,0-2.4,0-3.7,0C290.1,120.7,290,121.4,289.9,122.1z M260.3,122
		c0.2,0.1,0.2,0.1,0.2,0.1c0.8,0,1.6,0,2.4,0c1.4,0,1.9-0.7,1.7-2.2c-1,0-2,0-3,0c-0.2,0-0.5,0.2-0.6,0.4
		C260.6,120.9,260.5,121.4,260.3,122z M274.5,120c-1.2,0-2.4,0-3.6,0c-0.1,0-0.3,0.2-0.4,0.3c-0.1,0.6-0.2,1.2-0.3,1.8
		c1.2,0,2.2,0,3.3,0c0.2,0,0.6-0.3,0.7-0.5C274.4,121.1,274.4,120.6,274.5,120z M298.7,120c-1.2,0-2.3,0-3.3,0
		c-0.2,0-0.4,0.3-0.4,0.4c-0.1,0.4-0.1,0.8,0,1.2c0,0.2,0.2,0.4,0.4,0.4c1.2,0,2.3,0,3.5,0C298.7,121.3,298.7,120.7,298.7,120z
		 M323.5,122.1c-0.1-0.6-0.2-1-0.2-1.5c0-0.4-0.3-0.6-0.7-0.6c-0.9,0-1.8,0-2.7,0c-0.1,0-0.3,0-0.4,0.1c-0.3,0.4,0.2,2,0.7,2
		C321.2,122.1,322.3,122.1,323.5,122.1z M280.1,122.1c1.2,0,2.2,0,3.2,0c0.2,0,0.6-0.2,0.6-0.4c0.1-0.5,0.2-1.1,0.2-1.7
		c-1.3,0-2.5,0-3.8,0C280.3,120.7,280.2,121.3,280.1,122.1z M269.6,120c-1.1,0-2.2,0-3.3,0c-0.2,0-0.5,0.2-0.5,0.3
		c-0.2,0.6-0.3,1.2-0.5,1.8c0.7,0,1.3,0,1.9,0c2,0,2,0,2.4-2C269.6,120.1,269.6,120.1,269.6,120z M309.7,119.9c0,0.7,0,1.2,0,1.7
		c0,0.2,0.2,0.4,0.4,0.4c1.2,0,2.3,0,3.5,0c-0.1-0.6-0.1-1.2-0.2-1.7c0-0.2-0.4-0.4-0.6-0.4C311.8,119.9,310.8,119.9,309.7,119.9z
		 M314.6,120c0,0.6,0,1.1,0,1.6c0,0.2,0.3,0.5,0.5,0.5c1.1,0,2.2,0,3.4,0c-0.1-0.6-0.1-1.1-0.2-1.6c-0.1-0.2-0.4-0.5-0.6-0.5
		C316.7,119.9,315.7,120,314.6,120z M324.1,119.9c0.1,0.5,0.2,0.9,0.2,1.3c0.1,0.7,0.4,1,1.1,0.9c0.6,0,1.1,0,1.7,0
		c1.3,0,1.3,0,1-1.3c0-0.1,0-0.3-0.1-0.4c-0.2-0.2-0.4-0.5-0.6-0.5C326.3,119.9,325.3,119.9,324.1,119.9z M303.7,122.1
		c0-0.6,0-1.1,0-1.6c0-0.4-0.2-0.6-0.6-0.6c-0.6,0-1.2,0-1.7,0c-1.6,0.1-1.4-0.3-1.4,1.5c0,0.1,0,0.2,0,0.2c0.1,0.2,0.3,0.4,0.4,0.4
		C301.4,122.1,302.5,122.1,303.7,122.1z M279.3,120c-1.2,0-2.2,0-3.3,0c-0.2,0-0.4,0.1-0.5,0.3c-0.1,0.6-0.2,1.2-0.4,1.9
		c1.2,0,2.3,0,3.3,0c0.2,0,0.5-0.3,0.6-0.4C279.2,121.1,279.2,120.6,279.3,120z M304.8,119.9c0,0.6,0,1.1,0,1.5
		c0,0.5,0.2,0.7,0.7,0.7c0.8,0,1.5,0,2.3,0c0.7,0,1-0.2,0.9-0.9c0-0.2,0-0.4,0-0.5c0-0.5-0.2-0.7-0.7-0.7
		C306.9,119.9,305.9,119.9,304.8,119.9z M281.1,118.8c0.8,0,1.7,0,2.5,0c0.5,0,0.5-0.4,0.4-0.9c-0.7,0-1.5,0-2.3,0
		C281.1,118,280.9,118.2,281.1,118.8z M290.7,118C290.7,118,290.7,118,290.7,118c-0.4,0-0.7,0-1.1,0c-0.2,0-0.4,0.2-0.4,0.4
		c0,0.2,0.2,0.5,0.3,0.5c0.8,0,1.5,0,2.3,0c0.1,0,0.3-0.3,0.4-0.5c-0.2-0.1-0.3-0.3-0.5-0.4C291.4,117.9,291.1,118,290.7,118z
		 M285.2,118.9c0.8,0,1.6,0,2.4,0c0.2,0,0.4-0.3,0.6-0.5c-0.2-0.1-0.4-0.3-0.6-0.3c-0.6,0-1.1,0-1.7,0
		C285.3,117.9,285.1,118.2,285.2,118.9z M309.7,118c-0.2,0.6,0,0.8,0.5,0.9c0.6,0,1.3,0.1,1.9,0c0.2,0,0.4-0.2,0.5-0.4
		c-0.2-0.2-0.4-0.5-0.5-0.5C311.3,118,310.5,118,309.7,118z M305.6,118c0.2,0.9,1.8,1.2,3.3,0.7c-0.3-0.3-0.6-0.6-0.8-0.7
		C307.2,117.9,306.4,118,305.6,118z M259.5,118c-0.9,0-1.7,0-2.6,0c-0.1,0-0.3,0.3-0.3,0.5c0,0.1,0.3,0.4,0.4,0.4c0.6,0,1.2,0,1.8,0
		C259.4,118.9,259.6,118.6,259.5,118z M294.9,118c-0.4,0-0.8,0-1.1,0c-0.2,0-0.3,0.2-0.4,0.4c0.1,0.2,0.3,0.4,0.4,0.4
		c0.7,0.1,1.4,0.1,2.1,0c0.1,0,0.4-0.3,0.4-0.4c0-0.2-0.2-0.4-0.4-0.4C295.6,117.9,295.2,118,294.9,118z M271.8,118
		c-0.9,0-1.7,0-2.5,0c-0.2,0-0.3,0.3-0.5,0.5c0.2,0.1,0.3,0.3,0.5,0.3c0.6,0,1.1,0,1.7,0C271.5,118.9,271.8,118.6,271.8,118z
		 M313.7,118c0,0.1-0.1,0.2-0.1,0.2c0.2,0.2,0.3,0.5,0.5,0.5c0.8,0.1,1.6,0,2.3,0c0.1,0,0.3-0.3,0.3-0.3c0-0.2-0.2-0.4-0.4-0.4
		C315.5,118,314.6,118,313.7,118z M328.9,118.8c0.1-0.1,0.1-0.1,0.2-0.2c-0.2-0.2-0.5-0.6-0.7-0.6c-0.8-0.1-1.6,0-2.4,0
		C326.2,118.9,326.9,119.1,328.9,118.8z M278.6,117.9C278.6,118,278.6,118,278.6,117.9c-0.4,0-0.8,0-1.2,0.1c-0.2,0-0.3,0.2-0.4,0.4
		c0,0.1,0.1,0.4,0.2,0.4c0.9,0,1.7,0.1,2.6,0c0.1,0,0.3-0.3,0.3-0.5c0-0.1-0.3-0.3-0.4-0.3C279.3,117.9,278.9,117.9,278.6,117.9z
		 M266,118.9C266,118.9,266,118.9,266,118.9c0.5,0,0.9,0,1.4-0.1c0.2,0,0.3-0.3,0.4-0.5c0,0-0.2-0.3-0.3-0.3c-0.8,0-1.6,0-2.4,0
		c-0.1,0-0.4,0.3-0.4,0.5c0,0.1,0.3,0.3,0.4,0.4C265.5,118.9,265.7,118.9,266,118.9z M301.6,118c-0.2,0.6,0,0.8,0.5,0.9
		c0.6,0,1.3,0.1,1.9,0c0.2,0,0.4-0.3,0.4-0.4c0-0.2-0.2-0.5-0.4-0.5C303.3,118,302.4,118,301.6,118z M260.6,119
		c0.8-0.1,1.6-0.1,2.4-0.2c0.5,0,0.6-0.3,0.5-0.8c-0.7,0-1.4,0-2.1,0C260.8,117.9,260.5,118.2,260.6,119z M333,118.8
		c0.1-0.1,0.1-0.2,0.2-0.2c-0.3-0.2-0.5-0.5-0.8-0.6c-0.7-0.1-1.5,0-2.3,0c0,0.1-0.1,0.1-0.1,0.2c0.2,0.2,0.5,0.6,0.7,0.6
		C331.5,118.9,332.3,118.8,333,118.8z M334.3,118c-0.1,0.1-0.1,0.2-0.2,0.3c0.2,0.2,0.5,0.5,0.7,0.5c0.6,0.1,1.2,0.1,1.7,0.1
		c0.2,0,0.4-0.2,0.6-0.3c-0.2-0.2-0.4-0.5-0.6-0.5C335.9,118,335.1,118,334.3,118z M297.6,118.8c0.8,0,1.6,0,2.4,0
		c0.2,0,0.3-0.2,0.5-0.3c-0.2-0.2-0.3-0.4-0.5-0.4c-0.6-0.1-1.2,0-1.8,0C297.5,118,297.3,118.2,297.6,118.8z M317.8,118
		c0.2,1,1.5,1.2,3.2,0.6c-0.3-0.3-0.6-0.6-0.8-0.6C319.5,117.9,318.7,118,317.8,118z M322,118c-0.1,0.1-0.1,0.2-0.2,0.3
		c0.3,0.2,0.5,0.5,0.8,0.5c0.5,0.1,1.1,0.1,1.7,0.1c0.2,0,0.4-0.2,0.6-0.3c-0.2-0.2-0.4-0.5-0.7-0.5C323.5,117.9,322.7,118,322,118z
		 M274.4,118.9c0.3-0.1,0.8-0.1,1.2-0.2c0.1,0,0.2-0.3,0.3-0.4c-0.1-0.1-0.3-0.3-0.4-0.3c-0.7,0-1.5,0-2.2,0c-0.1,0-0.3,0.3-0.4,0.4
		c0,0.1,0.2,0.3,0.3,0.3C273.6,118.9,273.9,118.9,274.4,118.9z"/>
	<path class="st2" d="M261.8,67.1c0-12.9,0-25.9,0-38.8c0-0.6,0-1.2,0.3-1.8c0.4-0.9,1.3-1.3,2.3-1.3c1.7,0,3.4,0,5,0
		c18.7,0,37.4,0,56.1,0c1.4,0,2.9,0,4.3,0c1.2,0.1,2,0.9,2.1,2.1c0.1,1.2,0,2.4,0,3.6c0,24.3,0,48.5,0,72.8c0,1,0,2,0,3
		c0,0.5-0.2,0.6-0.6,0.6c-1,0-1.9,0-2.9,0c-21.7,0-43.5,0-65.2,0c-1.5,0-1.5,0-1.5-1.4C261.8,93,261.8,80,261.8,67.1
		C261.8,67.1,261.8,67.1,261.8,67.1z M296.8,83.2c9.4,0,18.8,0,28.3,0c2.9,0,3.5-0.6,3.5-3.6c0-15.3,0-30.5,0-45.8
		c0-0.8,0-1.6-0.1-2.4c-0.1-1.1-0.8-1.7-1.9-1.9c-0.6-0.1-1.3-0.1-1.9-0.1c-18.9,0-37.7,0-56.6,0c-2,0-2.8,0.8-2.9,2.8
		c0,1.6,0,3.2,0,4.8c0,14.5,0,29,0,43.5c0,1.7,1,2.7,2.7,2.7C277.5,83.2,287.1,83.2,296.8,83.2z M326.1,98c0-1.7,0-3.3,0-5
		c0-0.6-0.2-0.7-0.7-0.7c-2.5,0-5,0-7.5,0c-0.7,0-1.1,0.2-0.9,0.9c0.1,0.5-0.2,0.7-0.7,0.7c-0.8,0-1.6,0-2.4,0c-5.8,0-11.6,0-17.4,0
		c-1.4,0-1.4,0-1.4,1.3c0,0.1,0,0.2,0,0.3c-0.1,0.7,0.3,0.8,0.9,0.8c6.4,0,12.9,0,19.3,0c1.5,0,1.5,0,1.6,1.5c0,0,0.1,0.1,0.1,0.2
		C320.1,98,323,98,326.1,98z M267.7,98.2C267.7,98.2,267.7,98.2,267.7,98.2c-0.5,0-1,0-1.5,0c-1.1,0-1.9,0.7-1.9,1.8
		c0,1.1,0,2.2,0,3.3c0.1,1.2,0.8,1.8,2,1.9c0.9,0,1.9,0,2.8,0c1.3-0.1,2-0.7,2-2c0-1.1,0-2.2-0.1-3.3c0-0.9-0.8-1.6-1.7-1.7
		C268.8,98.1,268.3,98.2,267.7,98.2z"/>
	<path class="st2" d="M337.9,118.4c0.8,0,1.5,0,2.2,0c3.1,0,2.8-0.2,3.8,2.7c1.3,3.7,2.6,7.3,3.9,11c0.7,2.1,0.3,2.7-1.9,2.7
		c-26.9,0-53.9,0-80.8,0c-5.9,0-11.9,0-17.8,0c-1.6,0-2.1-0.7-1.6-2.2c1.5-4.3,3.1-8.6,4.6-12.9c0.4-1.1,0.8-1.3,2-1.3
		c0.8,0,1.7,0,2.5,0c0.8,0,0.9,0.1,0.7,0.9c-0.5,1.8-1.1,3.5-1.6,5.3c-0.2,0.6-0.4,1.3-0.5,1.9c-0.2,1,0.3,1.6,1.3,1.6
		c0.7,0,1.5,0,2.3,0c-0.1,0.6-0.2,1.1-0.3,1.6c-0.2,0.9,0.2,1.4,1.1,1.6c0.3,0.1,0.6,0.1,0.9,0.1c21.4,0,42.8,0,64.2,0
		c4.1,0,8.2,0,12.3,0c1.5,0,2.1-0.6,1.8-2.1c-0.1-0.4-0.1-0.7-0.2-1.2c0.7,0,1.3,0,2,0c1.5,0,1.9-0.6,1.5-1.9
		c-0.7-2.3-1.4-4.7-2.1-7C338,119.1,338,118.9,337.9,118.4z"/>
	<path class="st2" d="M296.9,108.4c11.4,0,22.8,0,34.1,0c1,0,1.2,0.3,0.9,1.2c-0.4,1.4-1.1,1.9-2.9,1.9c-11,0-22.1,0-33.1,0
		c-9.9,0-19.8,0-29.7,0c-0.8,0-1.6,0-2.4-0.1c-1.3-0.1-2.2-1.2-2.1-2.5c0-0.4,0.2-0.6,0.6-0.6c0.2,0,0.3,0,0.5,0
		C274.1,108.4,285.5,108.4,296.9,108.4C296.9,108.4,296.9,108.4,296.9,108.4z"/>
	<path class="st2" d="M263,113.6c22.6,0,45.1,0,67.7,0c0,0.8,0,1.6,0,2.4c0,0.1-0.5,0.3-0.7,0.3c-4.9,0-9.7,0-14.6,0
		c-15.6,0-31.1,0-46.7,0c-1.7,0-3.4,0-5.1,0c-0.5,0-0.7-0.1-0.7-0.6C263,115.1,263,114.4,263,113.6z"/>
	<path class="st2" d="M348.3,138.1c0.1,0.9-0.4,1.6-1.3,1.7c-0.5,0.1-1.1,0-1.6,0c-32.5,0-65,0-97.6,0c-0.8,0-1.6,0.1-2-0.9
		c-0.1-0.3-0.1-0.6-0.2-0.8c2,0,4,0.1,5.9,0.1c31.3,0,62.6,0,93.9,0C346.4,138.3,347.3,138.1,348.3,138.1z"/>
	<path class="st2" d="M245.7,135.7c3.6,0,7.1,0.1,10.5,0.1c27.8,0,55.7,0,83.5,0c2.2,0,4.3,0,6.5,0c0.7,0,1.3-0.1,1.9-0.2
		c0.3,1-0.4,1.8-1.5,1.7c-6.8,0-13.6,0-20.4,0c-25.6,0-51.3,0-76.9,0c-0.8,0-1.6,0-2.4,0C246.1,137.2,245.6,136.6,245.7,135.7z"/>
	<path class="st2" d="M269.5,126.6c18.2,0,36.5,0,54.8,0c0.1,0.7,0.2,1.3,0.4,2c-0.3,0-0.5,0.1-0.8,0.1c-17.2,0-34.5,0-51.7,0
		c-0.7,0-1.4,0-2.1,0c-0.6,0-0.9-0.2-0.7-0.8C269.3,127.5,269.4,127.1,269.5,126.6z"/>
	<path class="st2" d="M254.4,125.5c0.3-0.8,0.5-1.5,0.7-2.1c0.1-0.1,0.4-0.2,0.6-0.2c3.3,0,6.5,0,9.8,0c0.5,0,0.6,0.2,0.5,0.7
		c-0.3,1.6-0.3,1.7-2,1.7C260.9,125.5,257.8,125.5,254.4,125.5z"/>
	<path class="st2" d="M327.7,123.2c0.5,0,1,0,1.5,0c2.7,0,5.3,0,8,0c1.5,0,2,0.6,2,2.3c-0.2,0-0.4,0-0.7,0c-3.1,0-6.2,0-9.3,0
		c-1,0-1.2-0.1-1.4-1.1C327.8,124,327.7,123.6,327.7,123.2z"/>
	<path class="st2" d="M279,125.5c0.1-0.7,0.1-1.3,0.2-1.8c0-0.2,0.4-0.4,0.5-0.5c1.3,0,2.6,0,3.9,0c0.2,0,0.3,0.3,0.5,0.5
		c0,0,0,0,0,0.1c0.1,1.5-0.1,1.7-1.6,1.7C281.5,125.5,280.3,125.5,279,125.5z"/>
	<path class="st2" d="M266.8,125.5c0.2-2.3,0.2-2.3,2.3-2.3c0.8,0,1.7,0,2.5,0c0.2,0,0.5,0.1,0.5,0.1c0,0.6-0.1,1.1-0.2,1.7
		c0,0.2-0.3,0.4-0.5,0.4C269.8,125.5,268.3,125.5,266.8,125.5z"/>
	<path class="st2" d="M320.9,125.5c-1.6,0-3,0-4.5,0c-0.2,0-0.6-0.3-0.6-0.6c-0.4-1.7-0.4-1.7,1.4-1.7c0.9,0,1.8,0,2.7,0
		c0.6,0,0.9,0.3,0.9,0.9C320.7,124.5,320.8,125,320.9,125.5z"/>
	<path class="st2" d="M308.6,125.5c-1.6,0-3,0-4.5,0c-0.2,0-0.5-0.3-0.5-0.5c-0.2-2.1-0.4-1.7,1.4-1.8c0.8,0,1.7,0,2.5,0
		c0.6,0,1,0.2,0.9,0.9C308.5,124.5,308.5,124.9,308.6,125.5z"/>
	<path class="st2" d="M272.9,125.5c0.1-0.7,0.1-1.2,0.2-1.7c0.1-0.2,0.4-0.5,0.6-0.5c1.3-0.1,2.6-0.1,4,0c0.2,0,0.4,0.3,0.4,0.5
		c0,0.5-0.1,1-0.2,1.4c0,0.2-0.3,0.4-0.5,0.4C276,125.5,274.5,125.5,272.9,125.5z"/>
	<path class="st2" d="M327,125.5c-1.6,0-3,0-4.5,0c-0.2,0-0.6-0.4-0.7-0.6c-0.2-0.5-0.2-1-0.2-1.6c1.5,0,3,0,4.5,0
		c0.2,0,0.4,0.2,0.4,0.3C326.7,124.1,326.8,124.8,327,125.5z"/>
	<path class="st2" d="M285.3,125.5c0-0.7,0-1.3,0-1.8c0-0.2,0.4-0.4,0.6-0.4c1.3,0,2.6,0,4,0c0.2,0,0.3,0.3,0.5,0.5
		c0.1,0.1,0,0.2,0,0.4c0,1.3-0.1,1.4-1.4,1.4C287.7,125.5,286.5,125.5,285.3,125.5z"/>
	<path class="st2" d="M297.5,125.4c0-0.8,0-1.4,0-2.2c1.6,0,3.2,0,4.9,0c0,0.8,0,1.4,0,2.2C300.8,125.4,299.2,125.4,297.5,125.4z"/>
	<path class="st2" d="M314.7,125.5c-1.5,0-3,0-4.5,0c-0.4,0-0.6-0.2-0.6-0.6c0-0.5,0-1.1,0-1.7c1.5,0,2.9,0,4.3,0
		c0.2,0,0.5,0.3,0.6,0.6C314.6,124.3,314.6,124.8,314.7,125.5z"/>
	<path class="st2" d="M291.4,125.4c-0.3-2.3-0.3-2.3,1.8-2.3c0.8,0,1.5,0,2.3,0c0.6,0,0.9,0.2,0.8,0.8c0,0.4,0,0.9,0,1.4
		C294.6,125.4,293,125.4,291.4,125.4z"/>
	<path class="st2" d="M266.1,126.6c0.5,0,1.1,0,1.6,0c0.5,0,0.6,0.2,0.5,0.6c-0.3,1.5-0.3,1.5-1.8,1.5c-0.8,0-1.6,0-2.4,0
		c-0.5,0-0.6-0.2-0.6-0.7c0.2-1.5,0.3-1.6,1.7-1.6C265.5,126.5,265.8,126.5,266.1,126.6C266.1,126.5,266.1,126.6,266.1,126.6z"/>
	<path class="st2" d="M262.7,126.6c-0.1,0.7-0.1,1.2-0.3,1.7c-0.1,0.2-0.3,0.4-0.5,0.4c-1.1,0.1-2.3,0.1-3.4,0.1
		c-0.5,0-0.7-0.2-0.6-0.8c0.3-1.4,0.3-1.4,1.7-1.4C260.7,126.5,261.7,126.6,262.7,126.6z"/>
	<path class="st2" d="M331,126.5c1.4,0,2.6,0,3.9,0c0.5,0,1.2,1.6,0.9,2c-0.1,0.1-0.4,0.2-0.5,0.2c-1,0-2.1,0-3.1,0
		c-0.5,0-0.8-0.2-0.9-0.8C331.2,127.5,331.1,127.1,331,126.5z"/>
	<path class="st2" d="M325.5,126.6c1.3,0,2.6,0,3.9,0c0.2,0,0.4,0.3,0.5,0.5c0.1,0.3,0.1,0.6,0.2,1c0.1,0.5-0.1,0.7-0.6,0.7
		c-0.9,0-1.8,0-2.7,0c-1,0-1.2-0.2-1.3-1.2C325.5,127.3,325.5,127,325.5,126.6z"/>
	<path class="st2" d="M255.6,122.1c-0.1-1.6,0.5-2.2,2-2.2c0.7,0,1.4,0,2.3,0c-0.2,0.7-0.4,1.4-0.6,2c0,0.1-0.3,0.2-0.4,0.2
		c-1,0-2,0-3,0C255.8,122.1,255.7,122.1,255.6,122.1z"/>
	<path class="st2" d="M287.1,122.1c-0.2,0-0.5,0-0.7,0c-0.4-0.1-1.1-0.1-1.2-0.2c-0.1-0.5,0-1.1,0.1-1.7c0-0.1,0.4-0.3,0.6-0.3
		c0.9,0,1.8-0.1,2.7,0c0.2,0,0.5,0.3,0.5,0.5c0,0.4-0.1,0.8-0.1,1.2c0,0.5-0.2,0.6-0.6,0.5C287.9,122.1,287.5,122.1,287.1,122.1
		C287.1,122.1,287.1,122.1,287.1,122.1z"/>
	<path class="st2" d="M333.8,119.9c1.1,0,2.1,0,3.1,0c0.3,0,0.6,0.2,0.7,0.4c0.2,0.4,0.4,0.8,0.5,1.3c0.1,0.4,0,0.6-0.4,0.6
		c-0.9,0-1.9,0-2.8,0c-0.2,0-0.5-0.2-0.6-0.4C334.1,121.2,334,120.6,333.8,119.9z"/>
	<path class="st2" d="M329,119.9c1.2,0,2.3,0,3.4,0c0.2,0,0.4,0.2,0.4,0.4c0.2,0.5,0.4,1.1,0.6,1.8c-1.2,0-2.4,0-3.5,0
		c-0.2,0-0.4-0.3-0.5-0.5C329.2,121.1,329.1,120.6,329,119.9z"/>
	<path class="st2" d="M289.9,122.1c0.1-0.8,0.1-1.4,0.2-2.1c1.2,0,2.4,0,3.7,0c0,0.1,0.1,0.3,0.1,0.4c0.1,1.7,0.2,1.8-1.5,1.7
		C291.6,122.1,290.8,122.1,289.9,122.1z"/>
	<path class="st2" d="M260.3,122c0.2-0.6,0.4-1.2,0.6-1.7c0.1-0.2,0.4-0.4,0.6-0.4c1,0,2,0,3,0c0.3,1.5-0.3,2.2-1.7,2.2
		c-0.8,0-1.6,0-2.4,0C260.5,122.1,260.4,122.1,260.3,122z"/>
	<path class="st2" d="M274.5,120c-0.1,0.6-0.1,1.1-0.3,1.6c-0.1,0.2-0.4,0.5-0.7,0.5c-1.1,0.1-2.1,0-3.3,0c0.1-0.7,0.2-1.2,0.3-1.8
		c0-0.1,0.2-0.3,0.4-0.3C272.1,120,273.2,120,274.5,120z"/>
	<path class="st2" d="M298.7,120c0,0.7,0,1.4,0,2.1c-1.1,0-2.3,0-3.5,0c-0.1,0-0.3-0.3-0.4-0.4c0-0.4,0-0.8,0-1.2
		c0-0.2,0.3-0.4,0.4-0.4C296.5,120,297.5,120,298.7,120z"/>
	<path class="st2" d="M323.5,122.1c-1.2,0-2.3,0-3.4,0c-0.5,0-1-1.6-0.7-2c0.1-0.1,0.3-0.1,0.4-0.1c0.9,0,1.8,0,2.7,0
		c0.4,0,0.6,0.2,0.7,0.6C323.3,121.1,323.4,121.5,323.5,122.1z"/>
	<path class="st2" d="M280.1,122.1c0.1-0.8,0.2-1.4,0.3-2.1c1.2,0,2.5,0,3.8,0c-0.1,0.6-0.1,1.2-0.2,1.7c-0.1,0.2-0.4,0.4-0.6,0.4
		C282.3,122.1,281.3,122.1,280.1,122.1z"/>
	<path class="st2" d="M269.6,120c0,0.1,0,0.1,0,0.2c-0.3,2-0.3,2-2.4,2c-0.6,0-1.3,0-1.9,0c0.2-0.7,0.3-1.3,0.5-1.8
		c0-0.1,0.3-0.3,0.5-0.3C267.4,120,268.5,120,269.6,120z"/>
	<path class="st2" d="M309.7,119.9c1.1,0,2.1,0,3.2,0c0.2,0,0.5,0.2,0.6,0.4c0.1,0.5,0.1,1.1,0.2,1.7c-1.2,0-2.4,0-3.5,0
		c-0.1,0-0.4-0.3-0.4-0.4C309.6,121.1,309.7,120.6,309.7,119.9z"/>
	<path class="st2" d="M314.6,120c1.1,0,2.1,0,3.1,0c0.2,0,0.6,0.3,0.6,0.5c0.1,0.5,0.1,1,0.2,1.6c-1.2,0-2.3,0-3.4,0
		c-0.2,0-0.5-0.3-0.5-0.5C314.5,121.1,314.6,120.6,314.6,120z"/>
	<path class="st2" d="M324.1,119.9c1.2,0,2.2,0,3.3,0c0.2,0,0.4,0.3,0.6,0.5c0.1,0.1,0.1,0.2,0.1,0.4c0.3,1.3,0.3,1.3-1,1.3
		c-0.6,0-1.1,0-1.7,0c-0.7,0-1-0.3-1.1-0.9C324.3,120.8,324.2,120.5,324.1,119.9z"/>
	<path class="st2" d="M303.7,122.1c-1.2,0-2.3,0-3.4,0c-0.1,0-0.3-0.3-0.4-0.4c0,0,0-0.1,0-0.2c0-1.8-0.1-1.4,1.4-1.5
		c0.6,0,1.2,0,1.7,0c0.4,0,0.6,0.1,0.6,0.6C303.7,121,303.7,121.5,303.7,122.1z"/>
	<path class="st2" d="M279.3,120c-0.1,0.6-0.1,1.2-0.2,1.7c0,0.2-0.4,0.4-0.6,0.4c-1.1,0-2.1,0-3.3,0c0.1-0.7,0.2-1.3,0.4-1.9
		c0-0.1,0.3-0.2,0.5-0.3C277,120,278.1,120,279.3,120z"/>
	<path class="st2" d="M304.8,119.9c1.1,0,2.1,0,3.1,0c0.5,0,0.7,0.3,0.7,0.7c0,0.2,0,0.4,0,0.5c0.1,0.7-0.2,1-0.9,0.9
		c-0.8-0.1-1.5,0-2.3,0c-0.5,0-0.7-0.2-0.7-0.7C304.8,121,304.8,120.5,304.8,119.9z"/>
	<path class="st2" d="M281.1,118.8c-0.2-0.6,0-0.9,0.6-0.9c0.8,0,1.6,0,2.3,0c0.2,0.5,0.1,0.8-0.4,0.9
		C282.8,118.9,281.9,118.8,281.1,118.8z"/>
	<path class="st2" d="M290.7,118c0.4,0,0.7,0,1.1,0c0.2,0,0.3,0.2,0.5,0.4c-0.1,0.2-0.3,0.5-0.4,0.5c-0.8,0.1-1.5,0.1-2.3,0
		c-0.1,0-0.3-0.3-0.3-0.5c0-0.1,0.3-0.3,0.4-0.4C290,117.9,290.4,118,290.7,118C290.7,118,290.7,118,290.7,118z"/>
	<path class="st2" d="M285.2,118.9c-0.1-0.7,0.1-0.9,0.7-0.9c0.6,0,1.1,0,1.7,0c0.2,0,0.4,0.2,0.6,0.3c-0.2,0.2-0.4,0.5-0.6,0.5
		C286.8,118.9,286,118.9,285.2,118.9z"/>
	<path class="st2" d="M309.7,118c0.8,0,1.6,0,2.4,0c0.2,0,0.4,0.3,0.5,0.5c-0.2,0.1-0.4,0.4-0.5,0.4c-0.6,0-1.3,0-1.9,0
		C309.7,118.8,309.5,118.6,309.7,118z"/>
	<path class="st2" d="M305.6,118c0.9,0,1.7,0,2.5,0c0.3,0,0.5,0.4,0.8,0.7C307.4,119.2,305.8,118.9,305.6,118z"/>
	<path class="st2" d="M259.5,118c0.1,0.6-0.1,0.9-0.7,0.9c-0.6,0-1.2,0-1.8,0c-0.2,0-0.4-0.2-0.4-0.4c0-0.2,0.2-0.5,0.3-0.5
		C257.8,118,258.6,118,259.5,118z"/>
	<path class="st2" d="M294.9,118c0.3,0,0.7,0,1,0c0.2,0,0.4,0.3,0.4,0.4c0,0.1-0.2,0.4-0.4,0.4c-0.7,0-1.4,0-2.1,0
		c-0.2,0-0.3-0.3-0.4-0.4c0.1-0.1,0.3-0.4,0.4-0.4C294.1,118,294.5,118,294.9,118z"/>
	<path class="st2" d="M271.8,118c0,0.6-0.3,0.9-0.8,0.9c-0.6,0-1.1,0.1-1.7,0c-0.2,0-0.4-0.2-0.5-0.3c0.2-0.2,0.3-0.5,0.5-0.5
		C270.1,118,270.9,118,271.8,118z"/>
	<path class="st2" d="M313.7,118c0.9,0,1.8,0,2.7,0c0.1,0,0.3,0.2,0.4,0.4c0,0.1-0.2,0.3-0.3,0.3c-0.8,0-1.6,0-2.3,0
		c-0.2,0-0.4-0.3-0.5-0.5C313.6,118.2,313.7,118.1,313.7,118z"/>
	<path class="st2" d="M328.9,118.8c-2,0.2-2.8,0-2.9-0.8c0.8,0,1.6-0.1,2.4,0c0.3,0,0.5,0.4,0.7,0.6
		C329.1,118.7,329,118.8,328.9,118.8z"/>
	<path class="st2" d="M278.6,117.9c0.3,0,0.7,0,1,0c0.2,0,0.4,0.2,0.4,0.3c0,0.2-0.2,0.5-0.3,0.5c-0.9,0-1.7,0-2.6,0
		c-0.1,0-0.2-0.3-0.2-0.4c0.1-0.2,0.3-0.3,0.4-0.4C277.8,118,278.2,118,278.6,117.9C278.6,118,278.6,118,278.6,117.9z"/>
	<path class="st2" d="M266,118.9c-0.3,0-0.6,0-0.8,0c-0.2,0-0.4-0.2-0.4-0.4c0-0.2,0.2-0.5,0.4-0.5c0.8-0.1,1.6,0,2.4,0
		c0.1,0,0.3,0.2,0.3,0.3c-0.1,0.2-0.2,0.4-0.4,0.5C266.9,118.9,266.5,118.9,266,118.9C266,118.9,266,118.9,266,118.9z"/>
	<path class="st2" d="M301.6,118c0.8,0,1.6,0,2.5,0c0.2,0,0.4,0.3,0.4,0.5c0,0.1-0.3,0.4-0.4,0.4c-0.6,0-1.3,0-1.9,0
		C301.7,118.8,301.4,118.6,301.6,118z"/>
	<path class="st2" d="M260.6,119c-0.1-0.8,0.2-1,0.8-1c0.7,0,1.4,0,2.1,0c0.1,0.5,0,0.8-0.5,0.8C262.2,118.8,261.5,118.9,260.6,119z
		"/>
	<path class="st2" d="M333,118.8c-0.8,0-1.5,0.1-2.3,0c-0.3,0-0.5-0.4-0.7-0.6c0-0.1,0.1-0.1,0.1-0.2c0.8,0,1.5-0.1,2.3,0
		c0.3,0,0.5,0.4,0.8,0.6C333.1,118.7,333.1,118.8,333,118.8z"/>
	<path class="st2" d="M334.3,118c0.8,0,1.6,0,2.4,0c0.2,0,0.4,0.3,0.6,0.5c-0.2,0.1-0.4,0.3-0.6,0.3c-0.6,0-1.2,0-1.7-0.1
		c-0.3,0-0.5-0.3-0.7-0.5C334.2,118.2,334.2,118.1,334.3,118z"/>
	<path class="st2" d="M297.6,118.8c-0.2-0.6,0-0.9,0.5-0.8c0.6,0,1.2,0,1.8,0c0.2,0,0.3,0.3,0.5,0.4c-0.2,0.1-0.3,0.3-0.5,0.3
		C299.2,118.8,298.4,118.8,297.6,118.8z"/>
	<path class="st2" d="M317.8,118c0.8,0,1.6,0,2.4,0c0.3,0,0.5,0.3,0.8,0.6C319.3,119.2,318,118.9,317.8,118z"/>
	<path class="st2" d="M322,118c0.8,0,1.5,0,2.3,0c0.2,0,0.4,0.3,0.7,0.5c-0.2,0.1-0.4,0.3-0.6,0.3c-0.6,0-1.1,0-1.7-0.1
		c-0.3-0.1-0.5-0.3-0.8-0.5C321.9,118.2,321.9,118.1,322,118z"/>
	<path class="st2" d="M274.4,118.9c-0.4-0.1-0.8-0.1-1.1-0.1c-0.1,0-0.4-0.3-0.3-0.3c0.1-0.2,0.2-0.4,0.4-0.4c0.7,0,1.5,0,2.2,0
		c0.2,0,0.3,0.2,0.4,0.3c-0.1,0.1-0.2,0.4-0.3,0.4C275.2,118.8,274.7,118.9,274.4,118.9z"/>
	<path d="M296.8,83.2c-9.7,0-19.3,0-29,0c-1.7,0-2.7-1-2.7-2.7c0-14.5,0-29,0-43.5c0-1.6,0-3.2,0-4.8c0-2,0.9-2.8,2.9-2.8
		c18.9,0,37.7,0,56.6,0c0.6,0,1.3,0,1.9,0.1c1.1,0.2,1.7,0.8,1.9,1.9c0.1,0.8,0.1,1.6,0.1,2.4c0,15.3,0,30.5,0,45.8
		c0,2.9-0.6,3.6-3.5,3.6C315.6,83.2,306.2,83.2,296.8,83.2z M296.9,82.3C296.9,82.3,296.9,82.3,296.9,82.3c7.7,0,15.3,0,23,0
		c2.1,0,4.1,0,6.2,0c0.9,0,1.4-0.3,1.5-1.2c0.1-0.5,0.1-1,0.1-1.5c0-15.7,0-31.5,0-47.2c0-1.7-0.5-2.1-2.1-2.1c-3.6,0-7.3,0-10.9,0
		c-15.5,0-31,0-46.4,0c-1.7,0-2.2,0.4-2.2,2.2c0,2.7,0,5.5,0,8.2c0,13.1,0,26.1,0,39.2c0,2,0.4,2.4,2.4,2.4
		C277.9,82.3,287.4,82.3,296.9,82.3z"/>
	<path d="M326.1,98c-3.1,0-6.1,0-9,0c-0.1-0.1-0.1-0.1-0.1-0.2c-0.1-1.5-0.1-1.5-1.6-1.5c-6.4,0-12.9,0-19.3,0
		c-0.6,0-0.9-0.1-0.9-0.8c0-0.1,0-0.2,0-0.3c0-1.3,0-1.3,1.4-1.3c5.8,0,11.6,0,17.4,0c0.8,0,1.6,0,2.4,0c0.5,0,0.8-0.2,0.7-0.7
		c-0.1-0.8,0.3-0.9,0.9-0.9c2.5,0,5,0,7.5,0c0.6,0,0.7,0.2,0.7,0.7C326.1,94.7,326.1,96.3,326.1,98z"/>
	<path d="M267.7,98.2c0.6,0,1.1,0,1.7,0c0.9,0.1,1.6,0.8,1.7,1.7c0.1,1.1,0.1,2.2,0.1,3.3c0,1.3-0.7,1.9-2,2c-0.9,0-1.9,0-2.8,0
		c-1.2,0-1.9-0.7-2-1.9c-0.1-1.1-0.1-2.2,0-3.3c0-1.1,0.8-1.8,1.9-1.8C266.7,98.2,267.2,98.2,267.7,98.2
		C267.7,98.2,267.7,98.2,267.7,98.2z M267.7,99.1C267.7,99,267.7,99,267.7,99.1c-0.5,0-1,0-1.5,0c-0.7-0.1-1.1,0.2-1.1,0.9
		c0,1.1,0,2.2,0,3.3c0,0.6,0.4,0.9,1,0.9c1.1,0,2.3,0,3.4,0c0.6,0,0.9-0.4,0.9-0.9c0-1,0.1-2,0-3c0-0.8-0.3-1.1-1.2-1.1
		C268.7,99,268.2,99.1,267.7,99.1z"/>
	<path class="st2" d="M296.9,82.3c-9.5,0-19,0-28.4,0c-2,0-2.4-0.5-2.4-2.4c0-13.1,0-26.1,0-39.2c0-2.7,0-5.5,0-8.2
		c0-1.7,0.5-2.2,2.2-2.2c15.5,0,31,0,46.4,0c3.6,0,7.3,0,10.9,0c1.7,0,2.1,0.4,2.1,2.1c0,15.7,0,31.5,0,47.2c0,0.5,0,1-0.1,1.5
		c-0.2,0.8-0.6,1.2-1.5,1.2c-2.1,0-4.1,0-6.2,0C312.2,82.3,304.5,82.3,296.9,82.3C296.9,82.3,296.9,82.3,296.9,82.3z M296.9,32
		C296.9,32,296.9,32,296.9,32c-7.2,0-14.4,0-21.6,0c-1.1,0-2.2,0.1-3.2,0.5c-2.7,1.1-4,3.2-4,6.1c0,5.5,0,11,0,16.5
		c0,6.4,0,12.7,0,19.1c0,1.4,0.4,2.7,1.2,3.9c1.5,2.1,3.7,2.7,6.1,2.7c11.2,0,22.3,0,33.5,0c3.2,0,6.4,0,9.6,0
		c3.9,0,6.6-2.1,7.1-5.7c0.1-0.7,0-1.4,0-2.1c0-11.4,0-22.8,0-34.2c0-1-0.1-2.1-0.5-3c-1.1-2.6-3.3-3.7-6-3.7
		C311.7,32,304.3,32,296.9,32z"/>
	<path class="st2" d="M267.7,99.1c0.5,0,1,0,1.4,0c0.8,0,1.2,0.3,1.2,1.1c0,1,0,2,0,3c0,0.6-0.3,0.9-0.9,0.9c-1.1,0-2.3,0-3.4,0
		c-0.5,0-0.9-0.3-1-0.9c0-1.1,0-2.2,0-3.3c0-0.7,0.4-1,1.1-0.9C266.7,99.1,267.2,99,267.7,99.1C267.7,99,267.7,99,267.7,99.1z
		 M267.6,99.8c-0.9,0-1.8,0.8-1.8,1.7c0,1.1,0.8,2,1.8,2c1.1,0,1.8-0.7,1.9-1.9C269.5,100.5,268.8,99.8,267.6,99.8z"/>
	<path d="M296.9,32c7.4,0,14.8,0,22.2,0c2.7,0,4.9,1.2,6,3.7c0.4,0.9,0.5,2,0.5,3c0,11.4,0,22.8,0,34.2c0,0.7,0.1,1.4,0,2.1
		c-0.5,3.5-3.2,5.7-7.1,5.7c-3.2,0-6.4,0-9.6,0c-11.2,0-22.3,0-33.5,0c-2.5,0-4.6-0.6-6.1-2.7c-0.8-1.2-1.2-2.4-1.2-3.9
		c0-6.4,0-12.7,0-19.1c0-5.5,0-11,0-16.5c0-2.9,1.3-5.1,4-6.1c1-0.4,2.1-0.5,3.2-0.5C282.5,32,289.7,32,296.9,32
		C296.9,32,296.9,32,296.9,32z M290.2,35.8C290.2,35.8,290.2,35.8,290.2,35.8c-3,0-6,0-9.1,0c-0.6,0-0.9,0.2-1,0.8
		c-0.1,0.6,0.1,1,0.7,1.1c0.3,0.1,0.6,0.1,0.9,0.1c0.9,0,1.8,0,2.7,0c4.9,0,9.8,0,14.7-0.1c0.9,0,1.2-0.3,1.3-0.9
		c0-0.7-0.4-1.1-1.3-1.1C296.1,35.8,293.2,35.8,290.2,35.8z M275.5,37.8C275.5,37.8,275.5,37.8,275.5,37.8c0.4,0,0.8,0,1.1,0
		c0.6,0,1-0.3,1.1-0.8c0.1-0.5-0.5-1-1.1-1.1c-0.8,0-1.6,0-2.4,0c-0.5,0-0.9,0.3-0.9,0.9c0,0.6,0.2,0.9,0.8,1
		C274.6,37.8,275,37.8,275.5,37.8z"/>
	<path d="M267.6,99.8c1.3,0,2,0.7,1.9,1.8c0,1.1-0.8,1.9-1.9,1.9c-1.1,0-1.9-0.9-1.8-2C265.8,100.6,266.7,99.8,267.6,99.8z"/>
	<path class="st2" d="M290.2,35.8c3,0,5.9,0,8.9,0c0.8,0,1.3,0.4,1.3,1.1c0,0.6-0.4,0.9-1.3,0.9c-4.9,0-9.8,0-14.7,0.1
		c-0.9,0-1.8,0-2.7,0c-0.3,0-0.6,0-0.9-0.1c-0.6-0.1-0.8-0.6-0.7-1.1c0.1-0.6,0.4-0.8,1-0.8C284.2,35.8,287.2,35.8,290.2,35.8
		C290.2,35.8,290.2,35.8,290.2,35.8z"/>
	<path class="st2" d="M275.5,37.8c-0.4,0-0.9,0-1.3-0.1c-0.6-0.1-0.8-0.4-0.8-1c0-0.6,0.4-0.8,0.9-0.9c0.8,0,1.6-0.1,2.4,0
		c0.6,0,1.2,0.6,1.1,1.1c-0.1,0.6-0.5,0.8-1.1,0.8C276.2,37.8,275.9,37.8,275.5,37.8C275.5,37.8,275.5,37.8,275.5,37.8z"/>
</g>
<g>
	<path class="st3" d="M298.3,305.7c-2.1,0-3.7-0.5-4.8-1.5c-1.1-1-1.7-2.4-1.7-4.2c0-2.1,0.8-3.7,2.3-4.8s3.8-1.7,6.6-1.7
		c1.2,0,2.2,0.1,3.2,0.2c0.9,0.1,1.7,0.4,2.5,0.6l-0.8,2.7c-0.8-0.2-1.6-0.3-2.4-0.3c-0.8,0-1.6,0-2.4,0c-3.4,0-5.1,1-5.1,3.1
		c0,0.9,0.3,1.5,0.9,2s1.4,0.7,2.5,0.7c1.2,0,2.3-0.2,3.1-0.6c0.8-0.4,1.4-1,1.9-1.6c0.4-0.7,0.6-1.3,0.6-2v-2.2l1.2,5.1H304
		l0.6-0.6c0,1.1-0.3,2.1-0.8,2.9c-0.5,0.8-1.3,1.3-2.2,1.7C300.7,305.5,299.6,305.7,298.3,305.7z M305.2,305.5l-0.3-5.8l-0.5-1.6
		v-5.1c0-1.3-0.5-2.3-1.4-2.9c-0.9-0.6-2.3-0.9-4.1-1l-4.7-0.1l0.4-3.5l4,0.1c3.3,0,5.7,0.8,7.3,2.1c1.6,1.4,2.4,3.3,2.4,5.9v8.2
		l3.4,0.4v3.2L305.2,305.5z"/>
	<path class="st3" d="M313.8,305.3v-3.5H327v3.5H313.8z M314.6,289v-3.5h6.6l0.4,3.5H314.6z M318.2,305.3v-19.7h3.2l0.7,5.7v14.1
		H318.2z M322.2,296.8l-1.2-6.2h1.5c0.2-3.6,2-5.4,5.4-5.4c2,0,3.5,0.6,4.4,1.8s1.4,3.1,1.4,5.7h-3.9c0-1.4-0.2-2.5-0.6-3.1
		s-1.1-0.9-2.1-0.9c-1.7,0-2.9,0.7-3.8,2.2S322.2,294.2,322.2,296.8z"/>
	<path class="st3" d="M336,289v-3.5h17.9v3.5H336z M340.9,296v-16.4h3.9V296H340.9z M349.4,305.7c-3,0-5.2-0.6-6.5-1.9s-2-3.2-2-6
		v-3.4h3.9v3.2c0,1.6,0.4,2.7,1.1,3.4c0.8,0.7,2,1.1,3.8,1.1c0.6,0,1.3,0,2-0.1c0.7-0.1,1.5-0.2,2.4-0.3l0.4,3.5
		c-0.9,0.1-1.7,0.3-2.5,0.3C351.2,305.7,350.4,305.7,349.4,305.7z"/>
	<path class="st3" d="M389,305.7c-2.6,0-4.5-0.8-5.9-2.6c-1.3-1.7-2-4.2-2-7.5c0-3.4,0.7-6,2-7.8c1.3-1.8,3.3-2.6,5.9-2.6
		c1.5,0,2.7,0.3,3.6,1c0.9,0.7,1.5,1.7,1.6,2.9h1.5l-1.2,5.6c0-2-0.4-3.6-1.2-4.6c-0.8-1.1-2-1.6-3.5-1.6c-1.6,0-2.8,0.6-3.6,1.8
		s-1.2,3-1.2,5.3c0,2.2,0.4,3.9,1.2,5c0.8,1.1,2,1.7,3.6,1.7c1.6,0,2.7-0.5,3.5-1.6c0.8-1.1,1.2-2.6,1.2-4.6l1.3,5.6h-1.7
		c-0.1,1.2-0.6,2.2-1.6,2.9C391.8,305.3,390.5,305.7,389,305.7z M395,305.5l-0.4-3.9v-24.2h3.9v27.9L395,305.5z"/>
	<path class="st3" d="M404.7,305.3v-3.5h7.9v3.5H404.7z M405.8,289v-3.5h10.4v3.5H405.8z M414.1,282.5c-0.8,0-1.4-0.3-1.9-0.8
		c-0.5-0.5-0.8-1.2-0.8-1.9c0-0.8,0.3-1.4,0.8-2c0.5-0.5,1.2-0.8,1.9-0.8c0.8,0,1.4,0.3,2,0.8c0.5,0.5,0.8,1.2,0.8,2
		c0,0.8-0.3,1.4-0.8,1.9S414.8,282.5,414.1,282.5z M412.2,305.3v-18.6h3.9v18.6H412.2z M415.8,305.3v-3.5h6.4v3.5H415.8z"/>
	<path class="st3" d="M425.5,305.3v-3.5h13.2v3.5H425.5z M426.3,289v-3.5h6.6l0.4,3.5H426.3z M429.9,305.3v-19.7h3.2l0.7,5.7v14.1
		H429.9z M433.9,296.8l-1.2-6.2h1.5c0.2-3.6,2-5.4,5.4-5.4c2,0,3.5,0.6,4.4,1.8s1.4,3.1,1.4,5.7h-3.9c0-1.4-0.2-2.5-0.6-3.1
		s-1.1-0.9-2.1-0.9c-1.7,0-2.9,0.7-3.8,2.2S433.9,294.2,433.9,296.8z"/>
	<path class="st3" d="M459.3,305.7c-3.4,0-6-0.9-7.8-2.7c-1.8-1.8-2.7-4.3-2.7-7.6c0-3.2,0.8-5.7,2.3-7.5c1.6-1.8,3.7-2.7,6.6-2.7
		c2.7,0,4.7,0.8,6.2,2.4c1.5,1.6,2.2,4,2.2,7c0,0.9,0,1.8-0.1,2.5h-13.9v-3h10.4c0-1.8-0.4-3.1-1.3-4.1c-0.8-1-2-1.4-3.5-1.4
		c-1.7,0-3,0.6-3.9,1.7c-0.9,1.1-1.4,2.8-1.4,4.8c0,2.3,0.6,4,1.9,5.2c1.3,1.2,3.1,1.8,5.4,1.8c0.8,0,1.6,0,2.4-0.1
		c0.8-0.1,1.6-0.2,2.4-0.4l0.5,3.5c-1.2,0.2-2.2,0.4-3.2,0.4C460.9,305.7,460,305.7,459.3,305.7z"/>
	<path class="st3" d="M481.8,305.7c-3.4,0-6-0.9-7.8-2.7c-1.8-1.8-2.7-4.3-2.7-7.6c0-3.2,0.9-5.7,2.6-7.5c1.7-1.8,4.2-2.7,7.4-2.7
		c1.9,0,3.6,0.4,4.9,1.1c1.4,0.7,2.3,1.7,2.9,3l-3,2.3c-0.6-0.9-1.3-1.6-2.1-2.1c-0.9-0.5-1.8-0.7-2.8-0.7c-1.9,0-3.3,0.6-4.3,1.7
		s-1.5,2.7-1.5,4.8c0,2.2,0.6,4,1.8,5.1s2.9,1.8,5.2,1.8c0.9,0,1.8,0,2.8-0.1c0.9-0.1,1.8-0.2,2.7-0.4l0.4,3.5
		c-1,0.2-2.1,0.4-3.2,0.4C483.9,305.7,482.8,305.7,481.8,305.7z"/>
	<path class="st3" d="M492.4,289v-3.5h17.9v3.5H492.4z M497.3,296v-16.4h3.9V296H497.3z M505.8,305.7c-3,0-5.2-0.6-6.5-1.9
		s-2-3.2-2-6v-3.4h3.9v3.2c0,1.6,0.4,2.7,1.1,3.4c0.8,0.7,2,1.1,3.8,1.1c0.6,0,1.3,0,2-0.1c0.7-0.1,1.5-0.2,2.4-0.3l0.4,3.5
		c-0.9,0.1-1.7,0.3-2.5,0.3C507.6,305.7,506.8,305.7,505.8,305.7z"/>
	<path class="st3" d="M524.6,305.7c-2.7,0-4.9-0.9-6.4-2.7c-1.5-1.8-2.3-4.3-2.3-7.6c0-3.3,0.8-5.8,2.3-7.6c1.5-1.8,3.6-2.7,6.4-2.7
		c2.7,0,4.9,0.9,6.4,2.7c1.5,1.8,2.3,4.3,2.3,7.6c0,3.3-0.8,5.8-2.3,7.6C529.5,304.8,527.3,305.7,524.6,305.7z M524.6,302.2
		c1.5,0,2.6-0.6,3.4-1.8c0.8-1.2,1.2-2.8,1.2-5c0-2.1-0.4-3.8-1.2-5c-0.8-1.2-1.9-1.7-3.4-1.7s-2.6,0.6-3.4,1.7
		c-0.8,1.2-1.2,2.8-1.2,5c0,2.1,0.4,3.8,1.2,5C522,301.6,523.1,302.2,524.6,302.2z"/>
	<path class="st3" d="M537.3,305.3v-3.5h13.2v3.5H537.3z M538,289v-3.5h6.6l0.4,3.5H538z M541.7,305.3v-19.7h3.2l0.7,5.7v14.1H541.7
		z M545.6,296.8l-1.2-6.2h1.5c0.2-3.6,2-5.4,5.4-5.4c2,0,3.5,0.6,4.4,1.8s1.4,3.1,1.4,5.7h-3.9c0-1.4-0.2-2.5-0.6-3.1
		s-1.1-0.9-2.1-0.9c-1.7,0-2.9,0.7-3.8,2.2S545.6,294.2,545.6,296.8z"/>
	<path class="st3" d="M582.6,308.9l15-33.5h3.9l-15,33.5H582.6z"/>
	<path class="st3" d="M626.4,293.4v-3.5h18.2v3.5H626.4z M632.6,305.3v-18.1c0-6.8,3.1-10.2,9.3-10.2c1.4,0,2.8,0.1,4.1,0.4
		l-0.4,3.4c-0.8-0.1-1.5-0.2-2.1-0.2c-0.6,0-1.2-0.1-1.7-0.1c-3.5,0-5.3,2.2-5.3,6.5v18.2H632.6z"/>
	<path class="st3" d="M656.7,305.7c-2.1,0-3.7-0.6-4.8-1.9c-1.1-1.2-1.7-3-1.7-5.2v-13h3.9v13c0,1.1,0.3,2,1,2.6s1.6,0.9,2.7,0.9
		c1.4,0,2.5-0.5,3.3-1.4c0.7-0.9,1.1-2.4,1.1-4.6l1,5.3h-1.3c-0.3,1.3-0.9,2.4-1.8,3.1C659.2,305.3,658,305.7,656.7,305.7z
		 M662.2,299.7v-14.2h3.9v13L662.2,299.7z M662.5,305.5l-0.3-4.7v-3.5h3.9v4.4l2.7,0.4v3.2L662.5,305.5z"/>
	<path class="st3" d="M671.7,280.9v-3.5h6.1v3.5H671.7z M683.9,305.7c-2.3,0-3.9-0.6-5-1.9c-1-1.2-1.5-3.2-1.5-6v-20.5h3.9v20.3
		c0,1,0.1,1.9,0.3,2.6c0.2,0.7,0.6,1.1,1.2,1.5c0.6,0.3,1.4,0.5,2.6,0.5c1,0,2.3-0.2,3.9-0.7l0.4,3.5c-1,0.3-2,0.5-2.9,0.6
		C686,305.6,685,305.7,683.9,305.7z"/>
	<path class="st3" d="M694,280.9v-3.5h6.1v3.5H694z M706.3,305.7c-2.3,0-3.9-0.6-5-1.9s-1.5-3.2-1.5-6v-20.5h3.9v20.3
		c0,1,0.1,1.9,0.3,2.6c0.2,0.7,0.6,1.1,1.2,1.5c0.6,0.3,1.4,0.5,2.6,0.5c1,0,2.3-0.2,3.9-0.7l0.4,3.5c-1,0.3-2,0.5-2.9,0.6
		C708.3,305.6,707.4,305.7,706.3,305.7z"/>
	<path class="st3" d="M716.4,293.9v-3.5H735v3.5H716.4z"/>
	<path class="st3" d="M746.5,305.7c-1.5,0-2.8,0-3.8-0.1s-2-0.2-2.9-0.4l0.4-3.6c1.3,0.2,2.5,0.3,3.5,0.4c1,0.1,1.9,0.1,2.8,0.1
		c2,0,3.4-0.2,4.3-0.6c0.9-0.4,1.3-1,1.3-1.9c0-0.6-0.2-1-0.5-1.3s-0.8-0.5-1.5-0.7l-4.5-1.2c-1.9-0.5-3.4-1.1-4.3-1.8
		c-0.9-0.7-1.4-1.8-1.4-3.3c0-2.2,0.8-3.7,2.5-4.7c1.7-1,4.3-1.5,8-1.5c1,0,1.8,0,2.7,0.1c0.8,0.1,1.7,0.2,2.5,0.3l-0.4,3.4
		c-1-0.1-1.9-0.2-2.7-0.2c-0.8,0-1.5-0.1-2.3-0.1c-2.2,0-3.8,0.2-4.8,0.6s-1.5,1-1.5,1.9c0,0.6,0.2,1,0.6,1.2c0.4,0.3,1,0.5,1.9,0.7
		l3.6,0.9c2.1,0.5,3.6,1.2,4.6,2c1,0.8,1.4,2,1.4,3.6c0,2.1-0.8,3.7-2.3,4.6C752.4,305.2,749.9,305.7,746.5,305.7z"/>
	<path class="st3" d="M760.5,289v-3.5h17.9v3.5H760.5z M765.5,296v-16.4h3.9V296H765.5z M773.9,305.7c-3,0-5.2-0.6-6.5-1.9
		c-1.3-1.2-2-3.2-2-6v-3.4h3.9v3.2c0,1.6,0.4,2.7,1.1,3.4c0.8,0.7,2,1.1,3.8,1.1c0.6,0,1.3,0,2-0.1c0.7-0.1,1.5-0.2,2.4-0.3l0.4,3.5
		c-0.9,0.1-1.7,0.3-2.5,0.3S774.9,305.7,773.9,305.7z"/>
	<path class="st3" d="M789.8,305.7c-2.1,0-3.7-0.5-4.8-1.5c-1.1-1-1.7-2.4-1.7-4.2c0-2.1,0.8-3.7,2.3-4.8s3.8-1.7,6.6-1.7
		c1.2,0,2.2,0.1,3.2,0.2c0.9,0.1,1.7,0.4,2.5,0.6l-0.8,2.7c-0.8-0.2-1.6-0.3-2.4-0.3c-0.8,0-1.6,0-2.4,0c-3.4,0-5.1,1-5.1,3.1
		c0,0.9,0.3,1.5,0.9,2s1.4,0.7,2.5,0.7c1.2,0,2.3-0.2,3.1-0.6c0.8-0.4,1.4-1,1.9-1.6c0.4-0.7,0.6-1.3,0.6-2v-2.2l1.2,5.1h-1.6
		l0.6-0.6c0,1.1-0.3,2.1-0.8,2.9c-0.5,0.8-1.3,1.3-2.2,1.7C792.2,305.5,791.1,305.7,789.8,305.7z M796.8,305.5l-0.3-5.8L796,298
		v-5.1c0-1.3-0.5-2.3-1.4-2.9c-0.9-0.6-2.3-0.9-4.1-1l-4.7-0.1l0.4-3.5l4,0.1c3.3,0,5.7,0.8,7.3,2.1c1.6,1.4,2.4,3.3,2.4,5.9v8.2
		l3.4,0.4v3.2L796.8,305.5z"/>
	<path class="st3" d="M817,305.7c-3.4,0-6-0.9-7.8-2.7c-1.8-1.8-2.7-4.3-2.7-7.6c0-3.2,0.9-5.7,2.6-7.5c1.7-1.8,4.2-2.7,7.4-2.7
		c1.9,0,3.6,0.4,4.9,1.1c1.4,0.7,2.3,1.7,2.9,3l-3,2.3c-0.6-0.9-1.3-1.6-2.1-2.1c-0.9-0.5-1.8-0.7-2.8-0.7c-1.9,0-3.3,0.6-4.3,1.7
		c-1,1.1-1.5,2.7-1.5,4.8c0,2.2,0.6,4,1.8,5.1s2.9,1.8,5.2,1.8c0.9,0,1.8,0,2.8-0.1c0.9-0.1,1.8-0.2,2.7-0.4l0.4,3.5
		c-1,0.2-2.1,0.4-3.2,0.4S818,305.7,817,305.7z"/>
	<path class="st3" d="M829.2,305.3v-27.9h3.9v27.9H829.2z M832,297.8v-3.5h2.2c1.6,0,3-0.3,4-0.8c1.1-0.6,1.9-1.5,2.5-2.8
		c0.6-1.3,1-3,1.3-5.1h4.1c-0.5,4.1-1.7,7.2-3.5,9.2s-4.3,3-7.5,3H832z M842.6,305.3l-5.6-9.6l3.7-1.5l6.8,11.1H842.6z"/>
	<path class="st3" d="M880.6,305.7c-2.6,0-4.5-0.8-5.9-2.6c-1.3-1.7-2-4.2-2-7.5c0-3.4,0.7-6,2-7.8c1.3-1.8,3.3-2.6,5.9-2.6
		c1.5,0,2.7,0.3,3.6,1s1.5,1.7,1.6,2.9h1.5l-1.2,5.6c0-2-0.4-3.6-1.2-4.6c-0.8-1.1-2-1.6-3.5-1.6c-1.6,0-2.8,0.6-3.6,1.8
		c-0.8,1.2-1.2,3-1.2,5.3c0,2.2,0.4,3.9,1.2,5c0.8,1.1,2,1.7,3.6,1.7c1.6,0,2.7-0.5,3.5-1.6s1.2-2.6,1.2-4.6l1.3,5.6h-1.7
		c-0.1,1.2-0.6,2.2-1.6,2.9C883.3,305.3,882.1,305.7,880.6,305.7z M886.6,305.5l-0.4-3.9v-24.2h3.9v27.9L886.6,305.5z"/>
	<path class="st3" d="M906.1,305.7c-3.4,0-6-0.9-7.8-2.7c-1.8-1.8-2.7-4.3-2.7-7.6c0-3.2,0.8-5.7,2.3-7.5c1.6-1.8,3.7-2.7,6.6-2.7
		c2.7,0,4.7,0.8,6.2,2.4c1.5,1.6,2.2,4,2.2,7c0,0.9,0,1.8-0.1,2.5h-13.9v-3h10.4c0-1.8-0.4-3.1-1.3-4.1c-0.8-1-2-1.4-3.5-1.4
		c-1.7,0-3,0.6-3.9,1.7c-0.9,1.1-1.4,2.8-1.4,4.8c0,2.3,0.6,4,1.9,5.2s3.1,1.8,5.4,1.8c0.8,0,1.6,0,2.4-0.1c0.8-0.1,1.6-0.2,2.4-0.4
		l0.5,3.5c-1.2,0.2-2.2,0.4-3.2,0.4C907.7,305.7,906.9,305.7,906.1,305.7z"/>
	<path class="st3" d="M924.1,305.3l-7.1-19.7h4.2l5.3,16.4h0.3l5.3-16.4h4.2l-7.1,19.7H924.1z"/>
	<path class="st3" d="M950.8,305.7c-3.4,0-6-0.9-7.8-2.7c-1.8-1.8-2.7-4.3-2.7-7.6c0-3.2,0.8-5.7,2.3-7.5c1.6-1.8,3.7-2.7,6.6-2.7
		c2.7,0,4.7,0.8,6.2,2.4c1.5,1.6,2.2,4,2.2,7c0,0.9,0,1.8-0.1,2.5h-13.9v-3H954c0-1.8-0.4-3.1-1.3-4.1c-0.8-1-2-1.4-3.5-1.4
		c-1.7,0-3,0.6-3.9,1.7c-0.9,1.1-1.4,2.8-1.4,4.8c0,2.3,0.6,4,1.9,5.2s3.1,1.8,5.4,1.8c0.8,0,1.6,0,2.4-0.1c0.8-0.1,1.6-0.2,2.4-0.4
		l0.5,3.5c-1.2,0.2-2.2,0.4-3.2,0.4C952.4,305.7,951.6,305.7,950.8,305.7z"/>
	<path class="st3" d="M962.1,280.9v-3.5h6.1v3.5H962.1z M974.4,305.7c-2.3,0-3.9-0.6-5-1.9s-1.5-3.2-1.5-6v-20.5h3.9v20.3
		c0,1,0.1,1.9,0.3,2.6s0.6,1.1,1.2,1.5c0.6,0.3,1.4,0.5,2.6,0.5c1,0,2.3-0.2,3.9-0.7l0.4,3.5c-1,0.3-2,0.5-2.9,0.6
		C976.5,305.6,975.5,305.7,974.4,305.7z"/>
	<path class="st3" d="M993.8,305.7c-2.7,0-4.9-0.9-6.4-2.7s-2.3-4.3-2.3-7.6c0-3.3,0.8-5.8,2.3-7.6s3.6-2.7,6.4-2.7
		c2.7,0,4.9,0.9,6.4,2.7c1.5,1.8,2.3,4.3,2.3,7.6c0,3.3-0.8,5.8-2.3,7.6C998.7,304.8,996.5,305.7,993.8,305.7z M993.8,302.2
		c1.5,0,2.6-0.6,3.4-1.8c0.8-1.2,1.2-2.8,1.2-5c0-2.1-0.4-3.8-1.2-5c-0.8-1.2-1.9-1.7-3.4-1.7c-1.5,0-2.6,0.6-3.4,1.7
		c-0.8,1.2-1.2,2.8-1.2,5c0,2.1,0.4,3.8,1.2,5C991.2,301.6,992.3,302.2,993.8,302.2z"/>
	<path class="st3" d="M1008.1,313.9v-28.3h3.6l0.4,4.2v24.1H1008.1z M1017.6,305.7c-1.5,0-2.7-0.3-3.7-1c-0.9-0.7-1.4-1.7-1.6-2.9
		h-1.7l1.3-5.6c0,2,0.4,3.6,1.2,4.6s2,1.6,3.5,1.6c1.6,0,2.8-0.6,3.6-1.7c0.8-1.1,1.2-2.8,1.2-5c0-2.3-0.4-4.1-1.2-5.3
		c-0.8-1.2-2-1.8-3.6-1.8c-1.6,0-2.7,0.5-3.5,1.6c-0.8,1.1-1.2,2.6-1.2,4.6l-1.3-5.6h1.5c0.2-1.2,0.7-2.2,1.7-2.9c1-0.7,2.2-1,3.7-1
		c2.6,0,4.6,0.9,5.9,2.6c1.3,1.8,2,4.4,2,7.8c0,3.3-0.7,5.8-2,7.5C1022.2,304.8,1020.2,305.7,1017.6,305.7z"/>
	<path class="st3" d="M1040.2,305.7c-3.4,0-6-0.9-7.8-2.7c-1.8-1.8-2.7-4.3-2.7-7.6c0-3.2,0.8-5.7,2.3-7.5c1.6-1.8,3.7-2.7,6.6-2.7
		c2.7,0,4.7,0.8,6.2,2.4c1.5,1.6,2.2,4,2.2,7c0,0.9,0,1.8-0.1,2.5H1033v-3h10.4c0-1.8-0.4-3.1-1.3-4.1c-0.8-1-2-1.4-3.5-1.4
		c-1.7,0-3,0.6-3.9,1.7c-0.9,1.1-1.4,2.8-1.4,4.8c0,2.3,0.6,4,1.9,5.2s3.1,1.8,5.4,1.8c0.8,0,1.6,0,2.4-0.1c0.8-0.1,1.6-0.2,2.4-0.4
		l0.5,3.5c-1.2,0.2-2.2,0.4-3.2,0.4C1041.8,305.7,1040.9,305.7,1040.2,305.7z"/>
	<path class="st3" d="M1051.1,305.3v-3.5h13.2v3.5H1051.1z M1051.9,289v-3.5h6.6l0.4,3.5H1051.9z M1055.5,305.3v-19.7h3.2l0.7,5.7
		v14.1H1055.5z M1059.5,296.8l-1.2-6.2h1.5c0.2-3.6,2-5.4,5.4-5.4c2,0,3.5,0.6,4.4,1.8s1.4,3.1,1.4,5.7h-3.9c0-1.4-0.2-2.5-0.6-3.1
		c-0.4-0.6-1.1-0.9-2.1-0.9c-1.7,0-2.9,0.7-3.8,2.2C1059.9,292.1,1059.5,294.2,1059.5,296.8z"/>
</g>
<g>
	<path class="st3" d="M959.7,214.9c2.7-0.3,4.6,0.5,5.8,2.2c1.2,1.7,1.1,3-0.2,3.7l-7.5,4.3v0.5c1.8,2.4,3.9,1.9,6.5-1.6
		c0.3-0.1,0.6-0.1,1.1-0.1c1.4,0.5,1.6,1.5,0.5,3c-2.4,4.1-5.9,5.7-10.3,4.6l-1-0.6l-0.5-0.4c-1.8-2-2.3-4.6-1.5-7.7
		C953.2,218.9,955.6,216.2,959.7,214.9z M959.4,218.5c-1.6,0.6-2.2,1.7-1.8,3.2l3.7-2.2C960.9,218.8,960.3,218.5,959.4,218.5z"/>
	<path class="st3" d="M969.3,219.6c0.6-2.3,2.2-3.8,5-4.5h2.6l0.6,0.1l1,0.4c0.6-0.3,1.3-0.3,2-0.1l0.4,0.6l-0.5,4.8l-0.3,0.6
		c-0.4,0.3-1,0.5-1.8,0.6c2.9,1.7,3.2,4.1,1,7.2c-2.5,2.2-5.4,2.8-8.8,1.8c-0.6,0.3-1.3,0.4-2,0.3c-0.4-0.1-0.6-0.3-0.8-0.8l0.8-5.4
		l0.1-0.3c0.7-0.5,1.4-0.7,2.3-0.7C969.4,223.1,968.9,221.6,969.3,219.6z M972.5,225.2l-0.8-0.5c0.1,2.9,1.3,3.9,3.5,3.2l0.3-0.6
		c-0.1-0.1-0.1-0.2-0.2-0.3c-0.1-0.1-0.2-0.2-0.3-0.3c-0.1-0.1-0.4-0.3-0.8-0.4l-1.3-0.8L972.5,225.2z M976.1,218.5
		c-0.3-0.1-0.7-0.2-1.2-0.2c-0.6,0.3-0.9,0.7-0.6,1.2l1.8,1.1l0.6,0.4c0.3,0.2,0.4,0.3,0.5,0.3C977.1,220.3,976.7,219.4,976.1,218.5
		z"/>
	<path class="st3" d="M987.3,212.3c0.2-0.2,0.5-0.4,0.8-0.6h0.1c1.6-0.1,2.1,1.1,1.4,3.7c1.7-0.1,2.6,0.3,2.8,1.1
		c0,2-1.1,2.8-3.3,2.6l-1.1,7.8v0.5h0.4c0.7-0.8,1.5-1.1,2.4-0.7c0.6,0.4,0.8,1.1,0.6,1.9c-1.4,2.1-3.3,3.1-5.8,3
		c-1.2-0.1-2.1-0.8-2.6-2c0-0.2,0-0.5-0.1-0.8l-0.1-0.6l1.3-9c-0.7-0.1-1.2-0.5-1.5-1.1l0.2-1.3c0.3-0.4,0.6-0.7,0.9-0.9l0.5-0.3
		l1.8-1.7l0.3-0.3l0.3-0.3l0.3-0.3l0.1-0.1C986.9,212.8,987.1,212.6,987.3,212.3z"/>
	<path class="st3" d="M999.4,226.7c0.5,0.6,0.7,1.3,0.5,2.1c-0.1,0.8-0.5,1.5-1.2,2.1c-0.6,0.6-1.4,0.8-2.2,0.8
		c-0.8,0-1.4-0.3-1.9-0.8c-0.5-0.6-0.7-1.3-0.6-2.1c0.1-0.4,0.2-0.8,0.4-1.2c0.2-0.4,0.5-0.7,0.8-0.9c0.3-0.3,0.6-0.5,1-0.6
		c0.4-0.2,0.8-0.2,1.2-0.2C998.3,225.8,998.9,226.1,999.4,226.7z"/>
	<path class="st3" d="M1020.8,208.9l1.3-0.4c1-0.2,1.6,0.2,1.9,1.1l-2.6,18.3c1.7,0.1,2.2,0.9,1.7,2.5c-0.2,0.2-0.4,0.4-0.7,0.6
		h-8.2c-0.3-0.2-0.4-0.5-0.5-0.8c-0.1-1.5,0.8-2.3,2.5-2.4c0-0.2,0.1-0.3,0.1-0.5c0-0.2,0.1-0.4,0.1-0.6l2-13.9
		c-1.9,0.1-2.5-0.7-1.8-2.6c0.1-0.1,0.3-0.3,0.5-0.5l1.7-0.4c0.6-0.1,1.1-0.3,1.5-0.4L1020.8,208.9z"/>
	<path class="st3" d="M1029,231c-2.4,0.4-3.3-0.4-2.5-2.4c0.2-0.2,0.5-0.4,0.9-0.6c2.8-0.4,5.3-1.9,7.4-4.5
		c-6.5,0.5-8.7-2.8-6.6-9.9c1.9-4.2,5.1-6,9.7-5.5l1.2,0.4l0.4,0.2c1,0.6,1.7,1.3,2.3,2.3c1.6,3.7,1.3,7.7-0.9,12
		C1038.3,227.4,1034.3,230,1029,231z M1032.8,216.8c0,1.8,0.9,2.7,2.7,2.7c0.5-0.1,1-0.3,1.5-0.6c0.7-2.2,0.7-4.4,0-6.5
		c-0.3-0.4-0.6-0.7-1.1-1c-0.2,0-0.3,0-0.5,0c-0.2,0-0.4,0-0.6,0.1l-0.7,0.5C1033.2,213.5,1032.8,215.1,1032.8,216.8z"/>
	<path class="st3" d="M1044.8,214.8c1.8-3.9,2.9-5.9,3.2-6.2h11.7c0.3,0,0.6,0.2,0.9,0.4c0,0.6,0,1.2-0.1,1.8l-9,19.6
		c-0.1,0.1-0.2,0.2-0.3,0.3c-0.1,0.1-0.2,0.2-0.3,0.3h-2.9l-0.4-0.1l-0.4-0.6l0-0.1l6.7-14.8v-0.2l0.5-1l0.1-0.3l0.3-0.5l-4.5-0.1
		l-0.6,0.1l-0.6,0.2c-0.2,0.1-0.3,0.3-0.5,0.5c-0.2,0.2-0.4,0.4-0.6,0.6l-0.1,0.1l-0.3,0.4l-0.3,0.3c-0.3,0.1-0.7,0.1-1.2,0.1
		C1045.5,215.6,1045.1,215.3,1044.8,214.8z"/>
	<path class="st3" d="M1061.3,214.8c1.8-3.9,2.9-5.9,3.2-6.2h11.7c0.3,0,0.6,0.2,0.9,0.4c0,0.6,0,1.2-0.1,1.8l-9,19.6
		c-0.1,0.1-0.2,0.2-0.3,0.3s-0.2,0.2-0.3,0.3h-2.9l-0.4-0.1l-0.4-0.6l0-0.1l6.7-14.8v-0.2l0.5-1l0.1-0.3l0.3-0.5l-4.5-0.1l-0.6,0.1
		l-0.6,0.2c-0.2,0.1-0.3,0.3-0.5,0.5c-0.2,0.2-0.4,0.4-0.6,0.6l-0.1,0.1l-0.3,0.4l-0.3,0.3c-0.3,0.1-0.7,0.1-1.2,0.1
		C1062,215.6,1061.6,215.3,1061.3,214.8z"/>
</g>
<path class="st4" d="M237,289.4c6.1-5.9,12.1-12.6,15.6-27.4c6,14.8,11.4,21.1,17.4,24.2c-7.4,5.3-13.5,13.5-17.7,29.8
	C245.9,301.1,243.1,293.8,237,289.4z"/>
<path class="st4" d="M222.5,267c-3.1,0.8-6.2,1.8-9.3,5.6c-0.6-5.3-2-8-4-9.8c3.5-0.4,6.9-1.8,10.4-5.9
	C220.4,262.2,220.7,264.7,222.5,267z"/>
<path class="st4" d="M1113,289c6.1-5.9,13.6-11.2,17-26c6,14.8,13.9,18.9,20,22c-7.4,5.3-14.8,8.7-19,25
	C1124.6,295.1,1119.1,293.4,1113,289z"/>
<path class="st4" d="M1098.5,255c-3.1,0.8-6.2,1.8-9.3,5.6c-0.6-5.3-2-8-4-9.8c3.5-0.4,6.9-1.8,10.4-5.9
	C1096.4,250.2,1096.7,252.7,1098.5,255z"/>
<path class="st4" d="M1111.5,322c-3.1,0.8-6.5,4.2-9.5,8c-0.6-5.3-1.8-10.4-3.8-12.3c3.5-0.4,7.3-4.6,10.8-8.7
	C1109.8,314.4,1109.7,319.7,1111.5,322z"/>
<path class="st4" d="M238.6,328.6c-1.7,1.7-3.4,3.7-4.6,8.3c-1.2-4.8-2.4-6.9-3.9-8c2-1.5,3.8-4,5.2-9
	C236.6,324.8,237.2,327.1,238.6,328.6z"/>
<path class="st4" d="M1157,317c-1.7,1.7-5.8,6.4-7,11c-1.2-4.8-2.4-9.9-3.9-11c2-1.5,3.8-4,5.2-9
	C1152.6,312.8,1155.6,315.5,1157,317z"/>
<g class="st5">
	<path d="M143.7,162c0.6,0.3,1.2,0.6,1.8,0.8c0.8,0.3,1.7,0.6,2.4-0.4c0.5-0.7,1.2-0.6,1.9-0.3c6,2.2,12.1,4.5,18.1,6.6
		c8.8,3.1,17.5,6.2,26.3,9.4c7.1,2.6,14.2,5.2,21.3,7.8c0.5,0.2,1.1,0.6,1.5,1c0.2,0.2,0,0.8-0.2,1.1c-0.6,0.9-1.4,1.7-2.1,2.5
		c-4.8,5.6-9.5,11.2-14.3,16.8c-0.5,0.6-0.9,1-1.7,0.7c-0.1,0-0.3,0-0.5,0c0.1,0.4,0.4,0.7,0.4,1.1c-0.1,0.4-0.4,0.7-0.6,1
		c-2.8,3.4-5.7,6.7-8.6,10.1c-0.3,0.3-0.6,0.5-1,0.4c-0.4-0.1-0.8,0-1.3,0c0.9,1,0.9,1.3,0.2,2.1c-6.3,7.3-12.6,14.7-18.9,22.1
		c-0.7,0.8-1.4,1.5-2,2.3c-0.4,0.5-0.8,0.5-1.3,0.5c-2.6-0.2-4.7-1.7-7.1-2.6c-3.5-1.4-7-2.9-10.6-4.4c-3-1.2-5.9-2.5-8.9-3.8
		c-3.6-1.5-7.1-2.9-10.7-4.4c-2.7-1.1-5.4-2.3-8-3.4c-2.5-1.1-4.9-2.2-7.3-3.2c-1.7-0.7-3.4-1.3-5.1-2c-1.3-0.6-2.6-1.2-4-1.8
		c-1.5-0.7-3-1.3-4.6-1.9c-2-0.8-3.9-1.7-5.9-2.6c-2.2-1-4.4-2-6.6-2.9c-2.3-1-4.7-2-7-3.1c-2.2-0.9-4.3-1.9-6.5-2.8
		c-3.1-1.3-6.2-2.6-9.4-4c-0.2-0.1-0.4-0.2-0.7-0.3c-1.1-0.6-1.2-1.7-0.2-2.4c11.1-8.4,22.3-16.8,33.4-25.3c2.9-2.2,5.6-4.6,8.5-6.8
		c6.1-4.8,12.3-9.6,18.4-14.4c0.6-0.4,1.1-1,1.7-1.4c0.4-0.2,1-0.4,1.4-0.2c5.8,2,11.5,4,17.3,6C144.9,160.6,144.9,160.7,143.7,162z
		 M109.9,188.7c-0.2-0.1-0.2-0.1-0.3-0.2c-5.5-1.9-11-3.9-16.5-5.8c-1.5-0.5-3-0.3-4.3,0.7c-7.4,5.7-14.9,11.3-22.3,17
		c-0.6,0.4-1.3,0.8-1.2,1.6c0.1,0.8,0.9,1,1.5,1.2c5.2,2.1,10.4,4.1,15.5,6.4c1.4,0.6,2.1,0.3,3.1-0.6c6.3-5.7,12.7-11.3,19.4-16.5
		C106.6,191.3,108.2,190,109.9,188.7z M145.1,202.5c1-0.2,2.9-0.4,4.8-0.8c2.2-0.5,4.2-1.5,5.7-3.2c1.6-1.8,1.9-4.1,0.8-6.3
		c-0.9-1.9-2.4-3.2-4.2-4.2c-6.3-3.4-12.8-3.7-19.4-0.8c-1.4,0.6-2.7,1.5-3.7,2.8c-1.4,1.7-1.7,3.6-0.6,5.6c0.7,1.3,1.8,2.4,3,3.2
		C135.3,201.4,139.6,202.4,145.1,202.5z"/>
	<path class="st6" d="M109.9,188.7c-1.7,1.4-3.4,2.7-5,3.9c-6.7,5.2-13.1,10.8-19.4,16.5c-1,0.9-1.8,1.2-3.1,0.6
		c-5.1-2.2-10.3-4.3-15.5-6.4c-0.6-0.3-1.4-0.4-1.5-1.2c-0.1-0.8,0.6-1.2,1.2-1.6c7.4-5.7,14.9-11.3,22.3-17c1.3-1,2.8-1.3,4.3-0.7
		c5.5,1.9,11,3.8,16.5,5.8C109.7,188.5,109.7,188.6,109.9,188.7z"/>
	<path class="st6" d="M145.1,202.5c-5.5-0.1-9.9-1-13.7-3.7c-1.2-0.9-2.3-1.9-3-3.2c-1-2-0.8-3.9,0.6-5.6c1-1.2,2.3-2.1,3.7-2.8
		c6.6-2.9,13.1-2.6,19.4,0.8c1.8,1,3.3,2.3,4.2,4.2c1.1,2.1,0.8,4.4-0.8,6.3c-1.5,1.7-3.5,2.7-5.7,3.2
		C148.1,202.1,146.1,202.3,145.1,202.5z M154.8,194.9c0-0.4,0-0.6-0.1-0.9c-0.3-2.1-1.5-3.6-3.2-4.7c-4.1-2.7-8.7-3.4-13.5-2.5
		c-2.4,0.4-4.5,1.3-6.3,3c-1.1,1-1.8,2.2-1.6,3.8c0.2-0.4,0.2-1,0.5-1.3c1.1-1.1,2.4-1.9,3.8-2.5c3.7-1.5,7.6-1,11.4-0.7
		c1.6,0.1,3.1,0.5,4.6,1.3C152.5,191.5,153.9,192.8,154.8,194.9z"/>
	<path d="M154.8,194.9c-0.9-2.1-2.3-3.4-4.2-4.5c-1.5-0.8-3.1-1.2-4.6-1.3c-3.8-0.3-7.7-0.8-11.4,0.7c-1.4,0.6-2.8,1.4-3.8,2.5
		c-0.3,0.3-0.4,0.9-0.5,1.3c-0.2-1.5,0.5-2.7,1.6-3.8c1.8-1.6,4-2.5,6.3-3c4.8-0.9,9.3-0.3,13.5,2.5c1.7,1.1,2.9,2.6,3.2,4.7
		C154.7,194.3,154.7,194.5,154.8,194.9z"/>
</g>
<g class="st7">
	<path class="st8" d="M1029.6,26.5c0-2.1,0-4.2,0-6.5c1.8,0,3.4-0.1,5,0c1.1,0.1,1.3-0.3,1.2-1.3c-0.1-1.6,0-3.2,0-5
		c4.2,0,8.4,0,12.7,0c0-2.1,0-4.1,0-6.3c12.9,0,25.8,0,38.8,0c0,2.1,0,4.1,0,6.2c4.3,0,8.4,0,12.6,0c0,2.1,0,4.1,0,6.3
		c2.2,0,4.3,0,6.5,0c0,2.3,0,4.4,0,6.6c2.1,0,4.2,0,6.3,0c0,2,0,4,0,6.1c1.7,0,3.3,0,4.9,0c1.6-0.1,1.6-0.1,1.6,1.6
		c0,1.3-0.1,2.7,0,4c0.1,1-0.3,1.2-1.2,1.2c-3.4-0.1-6.8,0-10.2,0c-0.4,0-0.8,0-1.3,0c0,2.1,0,4.1,0,6.1c-2.1,0-4.2,0-6.4,0
		c0,1.9-0.1,3.6,0,5.4c0.1,1-0.3,1.3-1.2,1.2c-1.7-0.1-3.5,0-5.3,0c0-2.2,0-4.3,0-6.6c-2.3,0-4.4,0-6.6,0c0-1.8,0-3.4,0-5
		c0-0.9-0.2-1.1-1.1-1.1c-3.4,0-6.7,0-10.1,0c-1.1,0-1.3,0.4-1.3,1.4c0.1,1.6,0,3.1,0,4.8c-4.3,0-8.5,0-12.9,0c0-1.9,0-3.9,0-6
		c-4.3,0-8.5,0-12.6,0c0,1.7,0,3.3,0,4.9c0,0.9-0.2,1.2-1.1,1.1c-1.7-0.1-3.4,0-5.3,0c0,2.1,0,4.2,0,6.5c-2.2,0-4.3,0-6.4,0
		c-0.2,0-0.4-0.5-0.4-0.8c0-1.8,0-3.6,0-5.6c-2,0-4,0-6.1,0c0-2.1,0-4,0-6.1c-4.4,0-8.6,0-13,0c0-2.2,0-4.2,0-6.2
		c0-0.2,0.6-0.6,0.9-0.6c1.5,0,3,0,4.5,0.1c0.9,0.1,1.1-0.2,1-1.1c-0.1-1.4,0-2.7-0.1-4.1c0-0.8,0.2-1.2,1.1-1.2
		C1025.9,26.6,1027.6,26.5,1029.6,26.5z M1036.2,32.9c1.9,0,3.7,0,5.5,0c0.2,0,0.6-0.3,0.6-0.5c0-1.8,0-3.7,0-5.5
		c-2.2,0-4.1,0-6.1,0C1036.2,28.8,1036.2,30.7,1036.2,32.9z M1093.5,26.8c0,2,0,3.9,0,6c1.9,0,3.7,0,5.5,0c0.2,0,0.6-0.4,0.6-0.6
		c0-1.8,0-3.5,0-5.4C1097.5,26.8,1095.5,26.8,1093.5,26.8z M1080.4,32.8c0-2.1,0-4,0-6c-2,0-4,0-5.8,0c0,2.1,0,4,0,6
		C1076.6,32.8,1078.5,32.8,1080.4,32.8z M1061.5,26.8c-2,0-4,0-6.1,0c0,1.8,0,3.6,0,5.4c0,0.2,0.4,0.6,0.6,0.6c1.8,0,3.6,0,5.5,0
		C1061.5,30.7,1061.5,28.8,1061.5,26.8z"/>
	<path class="st8" d="M1202.2,52.1c-4.4,0-8.6,0-12.9,0c0-2.1,0-4.2,0-6.5c1.9,0,3.9,0,6,0c0-2.1,0-4.1,0-6.1c-4,0-8.1,0-12.2,0
		c0,2,0,4,0,6c-4.4,0-8.7,0-13.2,0c0-2,0-3.9,0-5.9c-4.2,0-8.4,0-12.6,0c0,2,0,3.9,0,6c2.1,0,4.2,0,6.5,0c0,2.1,0,4,0,6
		c0,0.2-0.5,0.6-0.8,0.6c-3.8,0.1-7.6,0.1-11.5,0.1c-0.8,0-0.9-0.4-0.8-1c0.1-1.5,0-3.1,0.1-4.6c0-0.7-0.3-1-1-1c-1.7,0-3.5,0-5.3,0
		c0-2.2,0-4.2,0-6.5c1.8,0,3.6,0,5.4,0c0.8,0,1-0.3,1-1c0-1.4,0-2.7,0-4.1c0-0.7-0.2-1-1-1c-3.5,0.1-7,0-10.5,0.1
		c-1,0-1.3-0.3-1.3-1.3c0-5.6,0-11.2,0-16.8c0-0.4,0-0.7,0.1-1.2c2.1,0,4.1,0,6.3,0c0-2.1,0-4.2,0-6.3c6.4,0,12.7,0,19.2,0
		c0-1.5,0-3,0-4.4c0-2.7-0.1-2.2,2.1-2.2c7.6,0,15.3,0,22.9,0c0.2,0,0.3,0,0.6,0c0,2.1,0,4.3,0,6.5c3.6,0,7.1,0,10.6,0
		c2.5,0,5.1,0,7.6,0c0.8,0,1.1,0.2,1.1,1c-0.1,1.7,0,3.5,0,5.3c2.2,0,4.3,0,6.5,0c0,5,0,9.9,0,14.8c0,1.1-0.1,2.2,0,3.2
		c0.1,1.1-0.3,1.3-1.3,1.3c-3.8,0-7.5,0-11.4,0c0,2,0,4,0,6c1.6,0,3,0,4.5,0c1.7,0,1.7,0,1.7,1.6c0,1.3,0.1,2.6,0.1,3.8
		c0,0.8-0.2,1-1,1c-1.7,0-3.5,0-5.4,0C1202.2,47.7,1202.2,49.8,1202.2,52.1z M1157.3,26.7c1.1-0.1,2-0.2,2.9-0.2
		c2.9,0,5.8,0.1,8.7,0.2c0.8,0,1.1-0.2,1.1-1c-0.1-1.4-0.1-2.8,0-4.2c0-0.7-0.2-1-0.9-1c-3.7,0-7.3,0-11,0.1c-0.3,0-0.8,0.5-0.8,0.8
		C1157.2,23.1,1157.3,24.9,1157.3,26.7z M1195.4,20.4c-4,0-7.9,0-11.8,0c-0.2,0-0.6,0.3-0.6,0.4c0,1.9,0,3.8,0,5.8
		c4.1,0,7.9,0,11.7,0c0.2,0,0.7-0.4,0.7-0.6C1195.4,24.2,1195.4,22.4,1195.4,20.4z M1182.5,39.2c0.1-0.2,0.2-0.3,0.2-0.3
		c0-1.1,0-2.2,0-3.3c0-2.3,0-2.3-2.3-2.3c-3.3,0-6.7,0-10,0c0,2,0,4,0,6C1174.4,39.2,1178.4,39.2,1182.5,39.2z"/>
	<path class="st8" d="M1240,13.8c0-2.2,0-4.2,0-6.3c6.4,0,12.7,0,19.1,0c0-1.6,0-3,0-4.5c0-2.5-0.2-2.1,2-2.1c7.7,0,15.4,0,23,0
		c0.2,0,0.3,0,0.6,0c0,2.1,0,4.3,0,6.5c3.9,0,7.6,0,11.3,0c2.3,0,4.6,0,6.9,0c0.8,0,1.1,0.2,1.1,1.1c-0.1,1.7,0,3.5,0,5.3
		c2.2,0,4.3,0,6.5,0c0,6.3,0,12.4,0,18.5c0,0.9-0.6,0.8-1.2,0.8c-2.9,0-5.7,0-8.6,0c-2.9,0-5.7,0-8.6-0.1c-0.8,0-0.8,0.4-0.8,0.9
		c0,1.4,0,2.9,0,4.3c0,0.7,0.3,0.9,0.9,0.9c1.5,0,2.9,0,4.4,0c0.9,0,1.3,0.2,1.2,1.2c-0.1,1.7,0,3.4,0,5.3c4.3,0,8.5,0,12.8,0
		c0,2,0,3.9,0,5.7c0,0.3-0.4,0.8-0.6,0.8c-4.1,0-8.2,0-12.4,0c0-2.2,0-4.3,0-6.5c-4.2,0-8.4,0-12.7,0c0-2.1,0-4,0-6.1
		c-2.1,0-4.1,0-6.1,0c0,1.9,0,3.9,0,5.9c-4.4,0-8.7,0-13.1,0c0-2,0-3.9,0-6c-2,0-4,0-6,0c0,2,0,4,0,6c-4.2,0-8.4,0-12.8,0
		c0,2,0,3.8,0,5.7c0,0.3-0.4,0.9-0.7,0.9c-4.1,0.1-8.1,0-12.5,0c0-2,0-3.9,0-5.9c0-0.2,0.7-0.6,1-0.6c3.4,0,6.9-0.1,10.3,0
		c1.2,0,1.5-0.4,1.4-1.5c-0.1-1.3,0-2.6-0.1-4c0-0.8,0.2-1.1,1-1c1.8,0,3.6,0,5.6,0c0-2,0-3.9,0-6c-1.7,0-3.4,0-5.1,0
		c-4.2,0-8.5,0-12.7,0.1c-1,0-1.4-0.2-1.4-1.4c0.1-5.5,0-11.1-0.1-16.6c0-1.1,0.3-1.4,1.4-1.4C1236.6,13.9,1238.2,13.8,1240,13.8z
		 M1253,26.7c0.9-0.1,1.7-0.2,2.4-0.2c3,0,6.1,0.1,9.1,0.2c0.9,0,1.2-0.2,1.2-1.1c-0.1-1.4-0.1-2.8,0-4.2c0-0.7-0.3-1-0.9-1
		c-3.7,0-7.3,0-11,0.1c-0.3,0-0.7,0.4-0.7,0.7C1253,23,1253,24.9,1253,26.7z M1291.1,20.5c-4,0-7.8,0-11.7,0c-0.2,0-0.7,0.3-0.7,0.4
		c0,1.9,0,3.8,0,5.8c4.1,0,7.9,0,11.7,0c0.2,0,0.7-0.4,0.7-0.6C1291.1,24.2,1291.1,22.4,1291.1,20.5z M1278.4,39.1
		c0-1.8,0-3.6,0-5.3c0-0.2-0.5-0.7-0.8-0.7c-3.8,0-7.6,0-11.5,0c0,2,0,4,0,6C1270.1,39.1,1274.1,39.1,1278.4,39.1z"/>
	<path class="st8" d="M1152.3,107.6c-10.3,0-20.4,0-30.5,0c-1,0-1.3,0.3-1.2,1.3c0.1,1.6,0,3.3,0,5.1c-2.1,0-4.2,0-6.3,0
		c0,2.1,0,4.1,0,6.1c-2.3,0-4.5,0-6.8,0c0-2,0-3.9,0-5.7c0-0.2,0.6-0.6,0.9-0.6c1.5-0.1,3.1,0,4.6,0c0.8,0,1-0.2,1-1
		c-0.1-1.3-0.1-2.6,0-4c0-0.8-0.3-1.1-1.1-1.1c-1.5,0.1-2.9,0-4.4,0c-0.8,0-1.1-0.2-1.1-1.1c0.1-1.7,0-3.5,0-5.3c-2,0-4,0-6.1,0
		c0-8.6,0-17.1,0-25.7c2.1,0,4.2,0,6.4,0c0,4.3,0,8.4,0,12.7c2.1,0,4.1,0,6.2,0c0-1.8,0-3.5,0-5.2c0-0.9,0.3-1.1,1.2-1.1
		c1.7,0.1,3.3,0,5.2,0c0-2,0-4,0-6.2c2.1-0.1,4-0.2,5.8-0.3c0.8,0,0.8,0.5,0.8,1.1c0,1.8,0,3.5,0,5.4c0.3,0,0.6,0.1,0.9,0.1
		c5.7,0,11.5,0,17.2,0c0.7,0,0.8-0.4,0.8-0.9c0-1.5,0-3-0.1-4.5c-0.1-1,0.3-1.2,1.2-1.2c1.7,0.1,3.4,0,5.2,0c0-1.9,0-3.9,0-5.9
		c2.3,0,4.5,0,6.8,0c0,2.1,0,4.1,0,6.3c-1.7,0-3.4,0-5.1,0c-0.5,0-0.9-0.1-1.4,0c-0.3,0.1-0.7,0.6-0.6,0.7c1.1,1.5,0.3,3.2,0.5,4.8
		c0,0.2,0,0.3,0,0.7c2.1,0,4.3,0,6.6,0c0,2.2,0,4.2,0,6.2c2.1,0,4,0,6.1,0c0-4.2,0-8.4,0-12.7c2.2,0,4.3,0,6.5,0c0,8.6,0,17,0,25.6
		c-2.1,0-4.2,0-6.5,0c0,2.2,0,4.3,0,6.4c-2.1,0-4.1,0-6.2,0c0,2,0,3.9,0,6c2,0,4,0,6,0c0,2.1,0,4.3,0,6.5c-2.2,0-4.3,0-6.5,0
		c0-2,0-4,0-6.1c-2.1,0-4.1,0-6.3,0C1152.3,111.8,1152.3,109.8,1152.3,107.6z M1123.8,94.7C1123.8,94.7,1123.8,94.7,1123.8,94.7
		c0.6,0,1.3-0.1,1.9,0c0.9,0.2,1.2-0.2,1.1-1c0-1.3-0.1-2.6,0-3.8c0.1-0.9-0.2-1.3-1.2-1.3c-1.3,0.1-2.7,0.1-4-0.1
		c-0.8-0.1-1,0.2-1,0.9c0,1.5,0,3,0,4.5c0,0.7,0.2,0.9,0.9,0.9C1122.3,94.7,1123,94.7,1123.8,94.7z M1152.3,94.7c0-2.2,0-4.2,0-6.2
		c-2,0-4,0-5.9,0c0,2.1,0,4.1,0,6.2C1148.3,94.7,1150.2,94.7,1152.3,94.7z"/>
	<path class="st8" d="M1063.3,75.7c0,2.1,0,4.1,0,6.3c2.1,0,4.1,0,6.2,0c0,2.1,0,4.2,0,6.4c2.2,0,4.3,0,6.5,0c0,2.1,0,4.1,0,6.3
		c2.2,0,4.2,0,6.4,0c0,6.5,0,12.9,0,19.4c-2,0-4,0-5.9,0c-0.7,0-0.8-0.4-0.8-1c0-3.6,0-7.1,0-10.7c0-0.3,0-0.6,0-1c-2.1,0-4,0-6.1,0
		c0,4.2,0,8.4,0,12.7c-2.1,0-4.1,0-6.2,0c0,2,0,3.9,0,6c-4.3,0-8.7,0-13.2,0c0-2,0-3.9,0-5.9c0-0.2,0.7-0.4,1.1-0.4
		c3.6,0,7.1,0,10.7,0c0.2,0,0.5,0,0.9,0c0-1.8,0-3.6,0-5.4c0-0.2-0.6-0.5-0.9-0.5c-5.6,0-11.3,0-16.9,0c-4.5,0-9,0-13.5,0
		c0,2,0,3.9,0,6c0.9,0,1.7,0,2.6,0c3,0,6,0,9-0.1c1,0,1.2,0.3,1.2,1.2c-0.1,1.7,0,3.4,0,5.2c-4.4,0-8.8,0-13.2,0c0-2,0-3.9,0-6
		c-2.1,0-4.1,0-6.3,0c0-4.3,0-8.4,0-12.7c-2.1,0-4,0-6.1,0c0,4.2,0,8.3,0,12.7c-2.2,0-4.2,0-6.2,0c-0.2,0-0.5-0.5-0.6-0.7
		c-0.1-6-0.1-11.9-0.1-17.9c0-0.3,0.6-0.7,0.9-0.7c1.5-0.1,3.1,0,4.6,0.1c0.8,0,1.1-0.2,1-1c-0.1-1.4-0.1-2.9-0.2-4.3
		c0-0.8,0.2-1.1,1.1-1.1c1.7,0.1,3.5,0,5.3,0c0-2.1,0-4.1,0-6.3c1.9,0,3.6-0.1,5.4,0c0.9,0,1.1-0.2,1.1-1c0-1.4,0-2.8,0-4.2
		c0-0.7,0.3-1.2,1.1-1.2c1.7,0,3.5,0,5.4,0c0,2,0,4.2,0,6.4c6.4,0,12.6,0,19,0c0-1.7,0.1-3.3,0-5c-0.1-1.2,0.4-1.6,1.6-1.5
		C1059.8,75.6,1061.6,75.6,1063.3,75.7L1063.3,75.7z M1056.8,94.7c2,0,3.9,0,5.7,0c0.2,0,0.4-0.4,0.5-0.6c0-1.8,0-3.6,0-5.5
		c-1.9-0.1-3.7-0.2-5.6-0.2c-0.2,0-0.6,0.5-0.6,0.8C1056.8,91,1056.8,92.7,1056.8,94.7z M1031.5,88.5c0,2.1,0,4,0,6.1
		c1.9,0,3.7,0,5.5,0c0.2,0,0.6-0.4,0.6-0.5c0-1.9,0-3.7,0-5.5C1035.5,88.5,1033.5,88.5,1031.5,88.5z"/>
	<path class="st8" d="M1305.9,101.2c0,2.1,0,4,0,6.1c2,0,4.1,0,6.2,0c0,2.2,0,4.2,0,6.4c1.9,0,3.6,0,5.3,0c0.9,0,1.3,0.2,1.2,1.2
		c-0.1,1.7,0,3.4,0,5.2c-2.2,0-4.4,0-6.8,0c0-1.9,0-3.9,0-5.9c-2,0-3.9,0-6,0c0,1.9,0,3.9,0,6c-2.3,0-4.5,0-6.8,0c0-2,0-4,0-6
		c-4.1,0-8.1,0-12.3,0c0,2,0,4,0,6c-2.2,0-4.5,0-6.8,0c0-1.9,0-3.9,0-5.9c-2,0-3.9,0-6,0c0,1.9,0,3.9,0,5.9c-2.4,0-4.6,0-6.8,0
		c0-2.1,0-4.2,0-6.4c2.2,0,4.3,0,6.5,0c0-1.8,0-3.4,0-5.1c0-0.9,0.1-1.3,1.2-1.3c1.6,0.1,3.3,0,5,0c0-2,0-4,0-6.1
		c-4.2,0-8.4,0-12.7,0c0-4.4,0-8.6,0-12.9c2.1,0,4.2,0,6.4,0c0-1.8,0-3.6,0-5.3c0-0.9,0.2-1.2,1.1-1.1c1.7,0.1,3.3,0,5.2,0
		c0-1.2,0-2.6,0-3.9c0-2.5,0-2.5,2.5-2.5c1,0,2,0,3,0.1c0.8,0.1,1-0.2,1-1c-0.1-1.7,0-3.4,0-5.1c4.4,0,8.7,0,13.1,0c0,2,0,3.9,0,6
		c2.1,0,4.2,0,6.4,0c0,2.3,0,4.3,0,6.5c1.8,0,3.4,0.1,5,0c1,0,1.4,0.2,1.4,1.3c-0.1,1.6,0,3.3,0,5.1c2.2,0,4.3,0,6.5,0
		c0,4.3,0,8.5,0,12.9C1314.4,101.2,1310.2,101.2,1305.9,101.2z M1286.8,101.3c0,2,0,3.9,0,5.9c4.1,0,8.2,0,12.2,0c0-2,0-4,0-5.9
		C1294.9,101.3,1290.9,101.3,1286.8,101.3z M1299.4,88.5c0,1.7,0,3.4,0,5.1c0,0.8,0.3,1.1,1.1,1c1.4,0,2.8,0,4.2,0
		c0.3,0,0.8-0.4,0.8-0.6c0.1-1.8,0-3.7,0-5.6C1303.4,88.5,1301.5,88.5,1299.4,88.5z M1286.3,88.4c-2,0-3.7,0-5.4,0
		c-0.3,0-0.7,0.5-0.7,0.8c-0.1,1.5,0,3.1,0,4.6c0,0.7,0.2,0.9,0.9,0.9c1.5,0,3.1,0,4.6,0c0.2,0,0.7-0.4,0.7-0.6
		C1286.4,92.3,1286.3,90.5,1286.3,88.4z M1305.5,107.6c-1.8,0-3.5,0-5.2,0c-0.3,0-0.8,0.4-0.9,0.6c-0.1,1.5-0.1,3.1,0,4.6
		c0,0.3,0.3,0.8,0.5,0.8c1.8,0.1,3.7,0,5.6,0C1305.5,111.5,1305.5,109.6,1305.5,107.6z M1286.3,107.7c-2.1,0-4,0-6,0c0,2,0,4,0,5.9
		c2,0,4,0,6,0C1286.3,111.6,1286.3,109.7,1286.3,107.7z"/>
	<path class="st8" d="M1197.2,88.4c0-2.3,0-4.3,0-6.4c2.1,0,4,0,6.1,0c0-1.7,0.1-3.5,0-5.2c-0.1-1.2,0.4-1.4,1.4-1.3
		c1.3,0.1,2.7,0,4,0.1c0.8,0.1,1.2-0.2,1.1-1c-0.1-1.4-0.1-2.7-0.2-4.1c0-0.6,0-1,0.8-1c4.1,0,8.2,0,12.5,0c0,2,0,4,0,6
		c2.1,0,4,0,6.1,0c0,2.2,0,4.3,0,6.5c1.9,0,3.7,0,5.4,0c0.8,0,1.2,0.2,1.2,1.1c-0.1,1.7,0,3.4,0,5.2c2.1,0,4.2,0,6.4,0
		c0,4.4,0,8.6,0,12.9c-2.1,0-4.1,0-6.3,0c0,2,0,4,0,6.1c2,0,4.1,0,6.3,0c0,2.3,0,4.4,0,6.7c-1.7,0-3.4,0-5.1,0c-1,0-1.3,0.3-1.2,1.3
		c0.1,1.6,0,3.1,0,4.8c-2.1,0-4.3,0-6.5,0c0-2.1,0-4.2,0-6.4c2,0,4,0,6.1,0c0-2,0-4,0-6c-2,0-4,0-6.1,0c0-2.1,0-4.2,0-6.3
		c-2,0-4,0-6.1,0c0,0.4-0.1,0.9-0.1,1.4c0,1.3-0.1,2.6-0.1,4c0,0.7-0.2,1-0.9,1c-3.8,0-7.6,0-11.3,0c-0.9,0-0.9-0.5-0.9-1.1
		c0-1.7,0-3.4,0-5.2c-2,0-3.9,0-6,0c0,2,0,4,0,6.2c-2.2,0-4.3,0-6.6,0c0,1.9,0,3.6,0,5.3c0,0.3,0.6,0.7,1,0.7c1.5,0.1,3,0.1,4.5,0
		c0.9,0,1.2,0.2,1.2,1.1c-0.1,1.7,0,3.5,0,5.3c-2.2,0-4.3,0-6.6,0c0-1.9,0-3.9,0-6c-2.2,0-4.3,0-6.5,0c0-2.3,0-4.5,0-6.8
		c2.1,0,4.2,0,6.4,0c0-2.1,0-4,0-6c-2.2,0-4.3,0-6.5,0c0-4.3,0-8.5,0-12.9C1192.8,88.4,1194.9,88.4,1197.2,88.4z M1203.7,88.5
		c0,1.9,0,3.7,0,5.6c0,0.2,0.5,0.6,0.8,0.6c1.5,0.1,3,0.1,4.5,0c0.3,0,0.8-0.3,0.8-0.5c0.1-1.9,0-3.7,0-5.7
		C1207.7,88.5,1205.8,88.5,1203.7,88.5z M1222.9,88.5c0,2.1,0,4,0,6.1c1.9,0,3.7,0,5.5,0c0.2,0,0.6-0.4,0.6-0.6c0-1.9,0-3.7,0-5.5
		C1226.9,88.5,1224.9,88.5,1222.9,88.5z"/>
	<path class="st9" d="M1024.7,75.9c0-2.2,0-4.3,0-6.4c2.3,0,4.5,0,6.7,0c0,1.8,0,3.5,0,5.2c0,0.9-0.8,1.1-1.5,1.2
		C1028.2,76,1026.5,75.9,1024.7,75.9z"/>
	<path class="st9" d="M1120.7,69.5c0,1.7,0,3.3,0,4.9c0,1-0.6,1.6-1.7,1.6c-1.4,0-2.8,0.1-4.2,0c-0.3,0-0.8-0.5-0.8-0.8
		c-0.1-1.6-0.1-3.2-0.1-4.8c0-0.6,0.1-0.9,0.8-0.9C1116.7,69.5,1118.7,69.5,1120.7,69.5z"/>
	<path class="st9" d="M1063.3,75.7c-0.2-2-0.4-4.1-0.6-6.2c2.4,0,4.5,0,6.7,0c0,2.2,0,4.3,0,6.6C1067.4,76,1065.3,75.8,1063.3,75.7
		C1063.3,75.7,1063.3,75.7,1063.3,75.7z"/>
	<path class="st9" d="M1036.2,32.9c0-2.2,0-4,0-6c2,0,3.9,0,6.1,0c0,1.8,0,3.7,0,5.5c0,0.2-0.4,0.5-0.6,0.5
		C1039.9,32.9,1038.1,32.9,1036.2,32.9z"/>
	<path class="st9" d="M1093.5,26.8c2,0,4,0,6.1,0c0,1.8,0,3.6,0,5.4c0,0.2-0.4,0.6-0.6,0.6c-1.8,0-3.6,0-5.5,0
		C1093.5,30.7,1093.5,28.8,1093.5,26.8z"/>
	<path class="st9" d="M1080.4,32.8c-2,0-3.8,0-5.8,0c0-2,0-3.9,0-6c1.9,0,3.8,0,5.8,0C1080.4,28.8,1080.4,30.7,1080.4,32.8z"/>
	<path class="st9" d="M1061.5,26.8c0,2,0,3.9,0,6c-1.9,0-3.7,0-5.5,0c-0.2,0-0.6-0.4-0.6-0.6c0-1.8,0-3.5,0-5.4
		C1057.5,26.8,1059.5,26.8,1061.5,26.8z"/>
	<path class="st9" d="M1157.3,26.7c0-1.9,0-3.6,0-5.4c0-0.3,0.5-0.8,0.8-0.8c3.7-0.1,7.3-0.1,11-0.1c0.7,0,0.9,0.3,0.9,1
		c0,1.4,0,2.8,0,4.2c0,0.8-0.3,1.1-1.1,1c-2.9-0.1-5.8-0.2-8.7-0.2C1159.3,26.5,1158.4,26.7,1157.3,26.7z"/>
	<path class="st9" d="M1195.4,20.4c0,2,0,3.8,0,5.6c0,0.2-0.4,0.6-0.7,0.6c-3.8,0-7.6,0-11.7,0c0-1.9,0-3.9,0-5.8
		c0-0.2,0.4-0.4,0.6-0.4C1187.5,20.4,1191.3,20.4,1195.4,20.4z"/>
	<path class="st9" d="M1182.5,39.2c-4,0-8.1,0-12.2,0c0-2,0-4,0-6c3.4,0,6.7,0,10,0c2.3,0,2.3,0,2.3,2.3c0,1.1,0,2.2,0,3.3
		C1182.6,38.9,1182.6,39,1182.5,39.2z"/>
	<path class="st9" d="M1253,26.7c0-1.9,0-3.7,0-5.5c0-0.2,0.5-0.7,0.7-0.7c3.7-0.1,7.3-0.1,11-0.1c0.7,0,1,0.2,0.9,1
		c0,1.4,0,2.8,0,4.2c0,0.9-0.3,1.1-1.2,1.1c-3-0.1-6.1-0.2-9.1-0.2C1254.7,26.5,1253.9,26.7,1253,26.7z"/>
	<path class="st9" d="M1291.1,20.5c0,2,0,3.8,0,5.6c0,0.2-0.4,0.6-0.7,0.6c-3.8,0-7.6,0-11.7,0c0-2,0-3.9,0-5.8
		c0-0.2,0.5-0.4,0.7-0.4C1283.2,20.4,1287,20.5,1291.1,20.5z"/>
	<path class="st9" d="M1278.4,39.1c-4.2,0-8.3,0-12.4,0c0-2.1,0-4,0-6c3.9,0,7.7,0,11.5,0c0.3,0,0.8,0.4,0.8,0.7
		C1278.4,35.6,1278.4,37.3,1278.4,39.1z"/>
	<path class="st9" d="M1123.8,94.7c-0.8,0-1.6,0-2.4,0c-0.6,0-0.9-0.2-0.9-0.9c0-1.5,0-3,0-4.5c0-0.7,0.2-1,1-0.9
		c1.3,0.1,2.7,0.2,4,0.1c1.1-0.1,1.3,0.3,1.2,1.3c-0.1,1.3-0.1,2.6,0,3.8c0,0.8-0.2,1.2-1.1,1C1125.1,94.6,1124.5,94.7,1123.8,94.7
		C1123.8,94.7,1123.8,94.7,1123.8,94.7z"/>
	<path class="st9" d="M1152.3,94.7c-2,0-3.9,0-5.9,0c0-2.1,0-4.1,0-6.2c2,0,3.9,0,5.9,0C1152.3,90.5,1152.3,92.5,1152.3,94.7z"/>
	<path class="st9" d="M1056.8,94.7c0-2,0-3.7,0-5.5c0-0.3,0.4-0.8,0.6-0.8c1.8,0,3.6,0.1,5.6,0.2c0,1.9,0,3.7,0,5.5
		c0,0.2-0.3,0.6-0.5,0.6C1060.7,94.7,1058.8,94.7,1056.8,94.7z"/>
	<path class="st9" d="M1031.5,88.5c2,0,4,0,6.1,0c0,1.8,0,3.6,0,5.5c0,0.2-0.4,0.5-0.6,0.5c-1.8,0-3.6,0-5.5,0
		C1031.5,92.5,1031.5,90.6,1031.5,88.5z"/>
	<path class="st9" d="M1286.8,101.3c4.2,0,8.1,0,12.2,0c0,2,0,3.9,0,5.9c-4,0-8.1,0-12.2,0C1286.8,105.2,1286.8,103.3,1286.8,101.3z
		"/>
	<path class="st9" d="M1299.4,88.5c2.2,0,4.1,0,6.2,0c0,1.9,0,3.7,0,5.6c0,0.2-0.5,0.6-0.8,0.6c-1.4,0.1-2.8,0-4.2,0
		c-0.8,0-1.1-0.2-1.1-1C1299.4,92,1299.4,90.2,1299.4,88.5z"/>
	<path class="st9" d="M1286.3,88.4c0,2.1,0,3.9,0,5.7c0,0.2-0.4,0.6-0.7,0.6c-1.5,0-3.1,0-4.6,0c-0.6,0-0.9-0.2-0.9-0.9
		c0-1.5,0-3.1,0-4.6c0-0.3,0.5-0.8,0.7-0.8C1282.6,88.4,1284.4,88.4,1286.3,88.4z"/>
	<path class="st9" d="M1305.5,107.6c0,2,0,3.9,0,6.1c-1.9,0-3.7,0-5.6,0c-0.2,0-0.5-0.5-0.5-0.8c-0.1-1.5-0.1-3.1,0-4.6
		c0-0.2,0.6-0.6,0.9-0.6C1302,107.5,1303.7,107.6,1305.5,107.6z"/>
	<path class="st9" d="M1286.3,107.7c0,2,0,3.9,0,5.9c-2,0-4,0-6,0c0-2,0-3.9,0-5.9C1282.2,107.7,1284.2,107.7,1286.3,107.7z"/>
	<path class="st9" d="M1203.7,88.5c2.2,0,4.1,0,6.1,0c0,1.9,0,3.8,0,5.7c0,0.2-0.5,0.5-0.8,0.5c-1.5,0-3,0.1-4.5,0
		c-0.3,0-0.8-0.4-0.8-0.6C1203.6,92.2,1203.7,90.4,1203.7,88.5z"/>
	<path class="st9" d="M1222.9,88.5c2,0,4,0,6.1,0c0,1.8,0,3.6,0,5.5c0,0.2-0.4,0.5-0.6,0.6c-1.8,0-3.6,0-5.5,0
		C1222.9,92.5,1222.9,90.6,1222.9,88.5z"/>
</g>
<g class="st1">
	<path d="M1113.9,74.8c0,2.7,0,5.5,0,8.3c2.8,0,5.4,0,8.3,0c0,2.8,0,5.6,0,8.6c3,0,5.8,0,8.7,0c0,2.9,0,5.5,0,8.4c2.9,0,5.6,0,8.5,0
		c0,8.7,0,17.2,0,25.9c-2.7,0-5.3,0-7.9,0c-1,0-1-0.6-1-1.3c0-4.7,0-9.5-0.1-14.2c0-0.4,0-0.9,0-1.4c-2.8,0-5.4,0-8.2,0
		c0,5.6,0,11.2,0,17c-2.8,0-5.5,0-8.2,0c0,2.7,0,5.2,0,8c-5.8,0-11.6,0-17.6,0c0-2.6,0-5.3,0.1-7.9c0-0.2,0.9-0.6,1.4-0.6
		c4.8,0,9.5,0,14.3,0c0.3,0,0.7,0,1.2-0.1c0-2.4,0-4.9-0.1-7.3c0-0.3-0.8-0.7-1.3-0.7c-7.5,0-15.1,0-22.6,0c-6,0-12,0-18.1,0
		c0,2.6,0,5.3,0,8.1c1.2,0,2.3,0,3.5,0c4,0,8,0,12-0.1c1.3,0,1.6,0.4,1.6,1.6c-0.1,2.3,0,4.5,0,6.9c-5.9,0-11.7,0-17.6,0
		c0-2.7,0-5.3,0-8c-2.8,0-5.5,0-8.4,0c0-5.7,0-11.3,0-16.9c-2.8,0-5.3,0-8.1,0c0,5.6,0,11.1,0,16.9c-2.9,0-5.6,0-8.3,0
		c-0.3,0-0.7-0.6-0.7-1c-0.1-8-0.2-15.9-0.1-23.9c0-0.3,0.8-1,1.2-1c2-0.1,4.1,0,6.1,0.1c1,0.1,1.4-0.3,1.4-1.3
		c-0.1-1.9-0.1-3.9-0.2-5.8c-0.1-1.1,0.3-1.5,1.4-1.4c2.3,0.1,4.6,0,7.1,0c0-2.8,0-5.5,0-8.5c2.5,0,4.9-0.1,7.2,0
		c1.1,0.1,1.5-0.3,1.5-1.4c0-1.9,0-3.8,0.1-5.6c0-1,0.3-1.6,1.5-1.6c2.3,0,4.6,0,7.2,0c0,2.7,0,5.6,0,8.5c8.5,0,16.8,0,25.3,0
		c0-2.2,0.1-4.5,0-6.7c-0.1-1.6,0.5-2.1,2.1-2C1109.3,74.7,1111.6,74.7,1113.9,74.8L1113.9,74.8z M1105.3,100.2c2.7,0,5.1,0,7.6,0
		c0.2,0,0.6-0.5,0.6-0.8c0-2.4,0-4.8,0-7.3c-2.6-0.1-5-0.3-7.4-0.3c-0.3,0-0.8,0.7-0.8,1.1C1105.2,95.3,1105.3,97.6,1105.3,100.2z
		 M1071.4,91.9c0,2.8,0,5.4,0,8.1c2.5,0,4.9,0,7.3,0c0.3,0,0.8-0.5,0.8-0.7c0.1-2.5,0-5,0-7.3C1076.8,91.9,1074.1,91.9,1071.4,91.9z
		"/>
	<path d="M1062.4,75.1c0-3,0-5.7,0-8.5c3,0,6,0,8.9,0c0,2.3,0,4.6,0,6.9c0,1.2-1.1,1.5-2,1.5C1067,75.2,1064.8,75.1,1062.4,75.1z"/>
	<path d="M1113.9,74.8c-0.2-2.7-0.5-5.4-0.7-8.2c3.2,0,6,0,8.9,0c0,2.9,0,5.7,0,8.9C1119.3,75.2,1116.6,75,1113.9,74.8
		C1113.9,74.8,1113.9,74.8,1113.9,74.8z"/>
	<path class="st6" d="M1105.3,100.2c0-2.7,0-5,0-7.3c0-0.4,0.5-1.1,0.8-1.1c2.4,0,4.8,0.2,7.4,0.3c0,2.5,0,4.9,0,7.3
		c0,0.3-0.4,0.8-0.6,0.8C1110.4,100.2,1107.9,100.2,1105.3,100.2z"/>
	<path class="st6" d="M1071.4,91.9c2.7,0,5.3,0,8.2,0c0,2.3,0,4.8,0,7.3c0,0.3-0.5,0.7-0.8,0.7c-2.4,0.1-4.8,0-7.3,0
		C1071.4,97.3,1071.4,94.7,1071.4,91.9z"/>
</g>
<g>
	<g>
		<path class="st10" d="M344,101c1-2.4,2.7-4.3,5.2-5.7c4.1-0.8,7.4,0.3,9.8,3.3l16.3,70.5c13,45.9,29,69.5,48.2,70.8
			c9.3,0.4,18.3-2.9,27.1-10c-6.3-8.8-4.7-15.5,4.8-20.1c7.4-3.1,12.8-1,16.1,6.3c0.3,6.4-1.8,13-6.3,19.8c-2.3,3.3-5.8,6.6-10.5,10
			l-0.8,0.7l-10,5.3l-7.5,2.7c-33,8.1-59-9.7-78-53.4c-0.6-0.8-3.4-10.6-8.5-29.4l-0.3-0.7h-25.1l-8.3,12.6l-0.8,2.3
			c8.2,0.7,10.1,5.2,5.7,13.6c-1.2,0.9-2.6,1.6-4.2,2H290c-3-0.8-4.9-2-5.8-3.7l1-7.3c1.6-2.7,4-4.1,7.3-4.3l1.8-1.3l48.4-82.1
			L344,101z M343.7,139.4l-0.7-1.7l-5.3,9.6l-0.7,1l-1.8,3.5l-0.8,1h11.8l1.3-0.3l-3-9.5l-0.7-2.3L343.7,139.4z"/>
		<path class="st10" d="M417.5,94.5l6.2-1.8c4.7-0.9,7.5,0.8,8.6,5.2l-11.8,84.5c7.6,0.4,10.3,4.3,8,11.6c-0.4,0.4-0.9,0.9-1.4,1.4
			c-0.5,0.5-1.1,1-1.7,1.6h-38.1c-1.3-0.9-2.1-2.1-2.3-3.7c-0.3-6.8,3.5-10.4,11.5-11c0.2-0.8,0.4-1.6,0.6-2.5
			c0.2-0.9,0.3-1.8,0.4-2.8l9.1-64.2c-8.9,0.7-11.7-3.3-8.5-11.8c0.4-0.8,1.3-1.5,2.5-2.2l7.8-2c1.6-0.3,2.9-0.7,4-1
			c1.1-0.3,2.2-0.7,3.2-1L417.5,94.5z"/>
		<path class="st10" d="M468.4,96.5c0.8-1.1,1.9-2.1,3.5-3h78.8c2.1-0.2,3.9,0.5,5.3,2.2l0.5,3.2v2l-1.2,8.5
			c-0.1,0.7-0.2,1.4-0.2,2.3c0,0.8-0.1,1.6-0.2,2.5l-1.7,11.5l-1,2.8c-0.7,0.6-1.4,1.1-2.1,1.5c-0.7,0.4-1.6,0.8-2.6,1
			c-3.1,0.7-6-0.1-8.8-2.2c-0.6-2.1-0.9-4.8-1-8c0-1.1-0.3-2.4-0.8-3.8l-0.5-1.5l-1.3-1.7c-3.5-1.6-7.5-1.9-11.8-1l-10.1,71.3
			l0.2,1.8c10.3,0.6,13.8,4.8,10.5,12.8c-0.9,1.6-2.2,2.8-4,3.8h-44.6c-1.3-1-2.3-2.4-3-4.2c-0.2-3.8,1.1-7.3,4-10.5
			c1.1-0.4,2.3-0.7,3.5-0.9c1.2-0.2,2.6-0.3,4.2-0.4l2.5-1.2l0.7-2l10-70.7c-9.9-2.3-16.2,2.3-19,14c-0.4,0.6-0.9,1.1-1.4,1.7
			c-0.5,0.6-1,1.1-1.6,1.7c-2.9,1.2-5.9,1.5-9,0.8c-1.1-0.8-2.2-1.9-3.2-3.5l2.8-19.6c0.2-0.9,0.4-1.9,0.7-3.1
			c0.2-1.2,0.4-2.5,0.7-3.9C467.4,99.2,467.8,97.8,468.4,96.5z"/>
		<path class="st10" d="M577.8,123.1c23.8-2.5,36.7,7.3,38.7,29.6c-0.4,23.7-12,38.8-34.6,45.4c-23.2,3.2-36-6.7-38.4-29.8
			C543.2,145.1,554.6,130.1,577.8,123.1z M583.4,139.3c-0.9-0.3-1.9-0.5-3.2-0.6c-1.9,0.6-3.7,1.4-5.3,2.7c-4.9,6.5-6.9,13.9-6,21.9
			c-0.3,6.3,1.2,12.2,4.7,17.6c1.7,1.2,3.7,1.9,6.2,2c1.6-0.6,3.2-1.4,5-2.7c4.2-5.8,6.4-12.2,6.6-19.5c1-7.8-0.8-14.6-5.3-20.4
			C585.2,139.9,584.3,139.6,583.4,139.3z"/>
		<path class="st10" d="M644.8,123.9l1.5-0.7c4.1-0.8,7.1,0.6,9.1,4.2c12.1-7.1,22.4-6.1,31.1,3c6.1-5,13.2-7.4,21.4-7.1
			c9.1,0,14.9,4.7,17.5,14l0.8,6.3v2l-4.8,36.7c7.4,0.7,9.6,4.8,6.7,12.3c-0.8,0.8-1.9,1.6-3.5,2.3h-28.9c-0.9,0.1-1.8,0.1-2.8,0.1
			c-1-0.1-2.1-0.2-3.3-0.4l-1.8,0.3h-33.6l-1.5-0.7c-0.9,0.2-1.9,0.4-3,0.6c-1.1,0.2-2.3,0.2-3.5,0.1h-25.8c-2.3,0.1-4.3-0.6-6-2
			c-0.2-1.2-0.2-2.5-0.1-3.9c0.2-1.4,0.4-2.9,0.6-4.4c2.4-2.7,5.6-4,9.5-4c0.3-1.7,0.7-3.4,1-5.2l4.8-34.2
			c-7.2,0.4-9.6-3.1-7.3-10.6c0.7-0.9,1.8-1.9,3.5-3.2c3.4-0.7,7.8-2,13.1-4L644.8,123.9z M665.5,142.9c-1-0.7-2.2-1-3.5-1
			c-2.8,0.6-5.7,2-8.8,4.3l-5,36.4c3.9,1.1,8.1,1,12.8-0.3l4.8-34.1c0.1-0.8,0.1-1.6,0.1-2.5C665.9,144.8,665.8,143.9,665.5,142.9z
			 M702.1,142.9c-0.9-0.7-2.2-1-4-1c-2.9,0.7-5.7,2.2-8.5,4.7l-4.7,32.9l0.2,1.7l0.2,1.5c3.4,1.1,7.4,1,12-0.3
			c0.2-0.8,0.4-1.6,0.6-2.4s0.3-1.7,0.4-2.7l4.2-29.6L702.1,142.9z"/>
		<path class="st10" d="M742.2,131.7l25.3-8.6c2.5,0,4.8,1.2,6.7,3.5c0,1.6-0.1,3.4-0.2,5.5c-0.2,2.1-0.5,4.4-1.1,7l-6,43.1
			c3.4,0.2,6.3,1.4,8.6,3.7c0.1,0.9,0.1,1.9-0.1,3.2c-0.2,1.2-0.4,2.6-0.6,4.2l-0.2,0.8c-0.4,0.4-0.9,0.9-1.3,1.3
			c-0.4,0.4-0.9,0.9-1.5,1.3h-38.1c-3.3-3.7-3.1-7.8,0.7-12.5c2.3-0.9,4.9-1.3,7.6-1.3l0.8-0.7c0.4-2.1,0.9-4.8,1.5-8l4.2-29.6
			c-7.2,0.9-10.3-2-9.3-8.6c0.3-0.6,0.7-1.2,1.2-1.9C740.8,133.2,741.4,132.5,742.2,131.7z M757.3,117.8c-9.9-8.6-8.3-16.8,4.8-24.6
			c7.6-1.3,12.9,1.6,15.8,8.8C777,115,770.2,120.3,757.3,117.8z"/>
		<path class="st10" d="M793.9,124.6c0.6-0.6,1.5-1.2,2.8-2h52.9c1.1,0.6,2.1,1.4,3,2.7c0.2,2.7,0,5.2-0.7,7.6l-36.6,45.4l-1.3,2.3
			h10l2.3-0.3l3.3-1l1.7-1.7l0.3-0.7c1.2-7.3,4.8-11.1,10.6-11.5c2.1,0.3,4,1.3,5.8,2.8c0.3,3.3-1,11-4,22.9l-0.8,2.7l-4.8,2.8
			l-55,0.2c-1.2-0.1-2.4-0.8-3.5-2c-0.2-1.2-0.2-2.5-0.1-4c0.2-1.4,0.4-3,0.7-4.7c0.7-1.1,1.8-2.7,3.5-4.7l0.5-0.7l20.8-26.1
			l7.6-9.5l0.8-1.2l0.8-0.7l3.7-4.8h-7.6l-3.8,0.5c-1.2,1.8-2,3.9-2.3,6.5l-1.5,2.7c-3,2.4-6.3,3.3-10,2.5c-0.9-0.4-1.9-1.3-3.2-2.7
			c-0.3-2.4-0.2-5.3,0.5-8.6l0.3-2.3c0.3-2.4,0.8-5.2,1.5-8.3l0.2-1.2l1-2.5L793.9,124.6z"/>
		<path class="st10" d="M884,122.2c11.4-1.7,20.6,0.9,27.4,7.8c1.2,2,2.1,4.5,2.7,7.5l0.2,1.7c-0.2,1.7-0.2,3,0.2,4.2l-4.7,33.1
			c8.1-2.1,10.8,1.6,8.1,11.1c-4.5,6.5-10.9,9.9-19,10c-4.5,0.4-8.4-1.3-11.6-5.2c-18.5,10.2-30.3,7.1-35.2-9.3
			c-0.2-12.1,5.9-21.4,18.5-27.9c-8.6-0.7-12-5.7-10-15C865,130.8,872.8,124.8,884,122.2z M888,163.1c-5.5,2-9.2,5.7-11,11.1
			c1.1,4.4,4.3,4.8,9.6,1l1.5-11.1L888,163.1z M887.3,137.2c-0.4,0.1-0.9,0.2-1.5,0.4c-0.6,0.2-1.2,0.5-1.8,0.9
			c0.7,4.2-0.6,8.2-3.7,12c0.7-0.1,1.3-0.3,2-0.6c0.7-0.3,1.4-0.6,2.2-1.1l6.2-2.2l0.5-3.7C892.1,139.8,890.9,137.9,887.3,137.2z"/>
		<path class="st10" d="M919.1,133.1c-0.1-4.1,1.3-7.5,4.3-10.3h25.8c1.4-0.2,2.9-0.1,4.5,0.3l1.2,0.7c1.7-0.8,3.5-1.1,5.7-1h27.3
			l2.3,0.3c4.5,6.6,2.2,11.4-7,14.3l5,19.5l10.1-18.8l0.5-1.3c-3.8-1.3-5.3-4.4-4.5-9.1c1.1-2.1,2.5-3.7,4.2-4.8h22.1
			c0.4,0.3,0.9,0.7,1.2,1.2c0.4,0.5,0.9,1,1.4,1.6l-1,7.1c-0.8,1.3-2.2,2.6-4.2,3.7l-2,2.8c-0.6,1.1-1.2,2.4-1.9,3.7
			c-0.7,1.4-1.6,2.9-2.6,4.4l-23.1,43.2c-2,3-3.7,5-5.2,6.2c-2.8,1.1-5.7,0.9-8.8-0.7c-1.6-2.3-4-11.2-7.5-26.6l-14,22.8
			c-0.7,1-1.7,2.2-3,3.5l-1.2,1c-2.4,0.7-4.9,0.8-7.3,0.3c-1.6-1.6-2.8-3.4-3.7-5.5l-0.7-2.3l-12.5-49.7l-1-2.2
			C922.2,136.6,920.6,135.2,919.1,133.1z M961.3,146.7c-1.8-6.5-4.4-10.4-8-11.6c-1.1,0.8-2.3,1.2-3.5,1.3l-0.8,1l4.7,18.1
			c0,1.1,0.3,2.1,0.8,3c0.8-1.7,1.8-3.4,3-5.3L961.3,146.7z"/>
		<path class="st10" d="M1046.2,122.2c11.4-1.7,20.6,0.9,27.4,7.8c1.2,2,2.1,4.5,2.7,7.5l0.2,1.7c-0.2,1.7-0.2,3,0.2,4.2l-4.7,33.1
			c8.1-2.1,10.8,1.6,8.1,11.1c-4.5,6.5-10.9,9.9-19,10c-4.5,0.4-8.4-1.3-11.6-5.2c-18.5,10.2-30.3,7.1-35.2-9.3
			c-0.2-12.1,5.9-21.4,18.5-27.9c-8.6-0.7-12-5.7-10-15C1027.2,130.8,1035,124.8,1046.2,122.2z M1050.2,163.1
			c-5.5,2-9.2,5.7-11,11.1c1.1,4.4,4.3,4.8,9.6,1l1.5-11.1L1050.2,163.1z M1049.6,137.2c-0.4,0.1-0.9,0.2-1.5,0.4
			c-0.6,0.2-1.2,0.5-1.8,0.9c0.7,4.2-0.6,8.2-3.7,12c0.7-0.1,1.3-0.3,2-0.6c0.7-0.3,1.4-0.6,2.2-1.1l6.2-2.2l0.5-3.7
			C1054.4,139.8,1053.1,137.9,1049.6,137.2z"/>
	</g>
</g>
<g>
	<g>
		<path class="st11" d="M341,96c1-2.4,2.7-4.3,5.2-5.7c4.1-0.8,7.4,0.3,9.8,3.3l16.3,70.5c13,45.9,29,69.5,48.2,70.8
			c9.3,0.4,18.3-2.9,27.1-10c-6.3-8.8-4.7-15.5,4.8-20.1c7.4-3.1,12.8-1,16.1,6.3c0.3,6.4-1.8,13-6.3,19.8c-2.3,3.3-5.8,6.6-10.5,10
			l-0.8,0.7l-10,5.3l-7.5,2.7c-33,8.1-59-9.7-78-53.4c-0.6-0.8-3.4-10.6-8.5-29.4l-0.3-0.7h-25.1l-8.3,12.6l-0.8,2.3
			c8.2,0.7,10.1,5.2,5.7,13.6c-1.2,0.9-2.6,1.6-4.2,2H287c-3-0.8-4.9-2-5.8-3.7l1-7.3c1.6-2.7,4-4.1,7.3-4.3l1.8-1.3L339.7,98
			L341,96z M340.7,134.4l-0.7-1.7l-5.3,9.6l-0.7,1l-1.8,3.5l-0.8,1h11.8l1.3-0.3l-3-9.5l-0.7-2.3L340.7,134.4z"/>
		<path class="st11" d="M414.5,89.5l6.2-1.8c4.7-0.9,7.5,0.8,8.6,5.2l-11.8,84.5c7.6,0.4,10.3,4.3,8,11.6c-0.4,0.4-0.9,0.9-1.4,1.4
			c-0.5,0.5-1.1,1-1.7,1.6h-38.1c-1.3-0.9-2.1-2.1-2.3-3.7c-0.3-6.8,3.5-10.4,11.5-11c0.2-0.8,0.4-1.6,0.6-2.5
			c0.2-0.9,0.3-1.8,0.4-2.8l9.1-64.2c-8.9,0.7-11.7-3.3-8.5-11.8c0.4-0.8,1.3-1.5,2.5-2.2l7.8-2c1.6-0.3,2.9-0.7,4-1
			c1.1-0.3,2.2-0.7,3.2-1L414.5,89.5z"/>
		<path class="st11" d="M465.4,91.5c0.8-1.1,1.9-2.1,3.5-3h78.8c2.1-0.2,3.9,0.5,5.3,2.2l0.5,3.2v2l-1.2,8.5
			c-0.1,0.7-0.2,1.4-0.2,2.3c0,0.8-0.1,1.6-0.2,2.5l-1.7,11.5l-1,2.8c-0.7,0.6-1.4,1.1-2.1,1.5c-0.7,0.4-1.6,0.8-2.6,1
			c-3.1,0.7-6-0.1-8.8-2.2c-0.6-2.1-0.9-4.8-1-8c0-1.1-0.3-2.4-0.8-3.8l-0.5-1.5l-1.3-1.7c-3.5-1.6-7.5-1.9-11.8-1l-10.1,71.3
			l0.2,1.8c10.3,0.6,13.8,4.8,10.5,12.8c-0.9,1.6-2.2,2.8-4,3.8h-44.6c-1.3-1-2.3-2.4-3-4.2c-0.2-3.8,1.1-7.3,4-10.5
			c1.1-0.4,2.3-0.7,3.5-0.9c1.2-0.2,2.6-0.3,4.2-0.4l2.5-1.2l0.7-2l10-70.7c-9.9-2.3-16.2,2.3-19,14c-0.4,0.6-0.9,1.1-1.4,1.7
			c-0.5,0.6-1,1.1-1.6,1.7c-2.9,1.2-5.9,1.5-9,0.8c-1.1-0.8-2.2-1.9-3.2-3.5l2.8-19.6c0.2-0.9,0.4-1.9,0.7-3.1
			c0.2-1.2,0.4-2.5,0.7-3.9C464.4,94.2,464.8,92.8,465.4,91.5z"/>
		<path class="st11" d="M574.8,118.1c23.8-2.5,36.7,7.3,38.7,29.6c-0.4,23.7-12,38.8-34.6,45.4c-23.2,3.2-36-6.7-38.4-29.8
			C540.2,140.1,551.6,125.1,574.8,118.1z M580.4,134.3c-0.9-0.3-1.9-0.5-3.2-0.6c-1.9,0.6-3.7,1.4-5.3,2.7c-4.9,6.5-6.9,13.9-6,21.9
			c-0.3,6.3,1.2,12.2,4.7,17.6c1.7,1.2,3.7,1.9,6.2,2c1.6-0.6,3.2-1.4,5-2.7c4.2-5.8,6.4-12.2,6.6-19.5c1-7.8-0.8-14.6-5.3-20.4
			C582.2,134.9,581.3,134.6,580.4,134.3z"/>
		<path class="st11" d="M641.8,118.9l1.5-0.7c4.1-0.8,7.1,0.6,9.1,4.2c12.1-7.1,22.4-6.1,31.1,3c6.1-5,13.2-7.4,21.4-7.1
			c9.1,0,14.9,4.7,17.5,14l0.8,6.3v2l-4.8,36.7c7.4,0.7,9.6,4.8,6.7,12.3c-0.8,0.8-1.9,1.6-3.5,2.3h-28.9c-0.9,0.1-1.8,0.1-2.8,0.1
			c-1-0.1-2.1-0.2-3.3-0.4l-1.8,0.3h-33.6l-1.5-0.7c-0.9,0.2-1.9,0.4-3,0.6c-1.1,0.2-2.3,0.2-3.5,0.1h-25.8c-2.3,0.1-4.3-0.6-6-2
			c-0.2-1.2-0.2-2.5-0.1-3.9c0.2-1.4,0.4-2.9,0.6-4.4c2.4-2.7,5.6-4,9.5-4c0.3-1.7,0.7-3.4,1-5.2l4.8-34.2
			c-7.2,0.4-9.6-3.1-7.3-10.6c0.7-0.9,1.8-1.9,3.5-3.2c3.4-0.7,7.8-2,13.1-4L641.8,118.9z M662.5,137.9c-1-0.7-2.2-1-3.5-1
			c-2.8,0.6-5.7,2-8.8,4.3l-5,36.4c3.9,1.1,8.1,1,12.8-0.3l4.8-34.1c0.1-0.8,0.1-1.6,0.1-2.5C662.9,139.8,662.8,138.9,662.5,137.9z
			 M699.1,137.9c-0.9-0.7-2.2-1-4-1c-2.9,0.7-5.7,2.2-8.5,4.7l-4.7,32.9l0.2,1.7l0.2,1.5c3.4,1.1,7.4,1,12-0.3
			c0.2-0.8,0.4-1.6,0.6-2.4s0.3-1.7,0.4-2.7l4.2-29.6L699.1,137.9z"/>
		<path class="st11" d="M739.2,126.7l25.3-8.6c2.5,0,4.8,1.2,6.7,3.5c0,1.6-0.1,3.4-0.2,5.5c-0.2,2.1-0.5,4.4-1.1,7l-6,43.1
			c3.4,0.2,6.3,1.4,8.6,3.7c0.1,0.9,0.1,1.9-0.1,3.2c-0.2,1.2-0.4,2.6-0.6,4.2l-0.2,0.8c-0.4,0.4-0.9,0.9-1.3,1.3
			c-0.4,0.4-0.9,0.9-1.5,1.3h-38.1c-3.3-3.7-3.1-7.8,0.7-12.5c2.3-0.9,4.9-1.3,7.6-1.3l0.8-0.7c0.4-2.1,0.9-4.8,1.5-8l4.2-29.6
			c-7.2,0.9-10.3-2-9.3-8.6c0.3-0.6,0.7-1.2,1.2-1.9C737.8,128.2,738.4,127.5,739.2,126.7z M754.3,112.8c-9.9-8.6-8.3-16.8,4.8-24.6
			c7.6-1.3,12.9,1.6,15.8,8.8C774,110,767.2,115.3,754.3,112.8z"/>
		<path class="st11" d="M790.9,119.6c0.6-0.6,1.5-1.2,2.8-2h52.9c1.1,0.6,2.1,1.4,3,2.7c0.2,2.7,0,5.2-0.7,7.6l-36.6,45.4l-1.3,2.3
			h10l2.3-0.3l3.3-1l1.7-1.7l0.3-0.7c1.2-7.3,4.8-11.1,10.6-11.5c2.1,0.3,4,1.3,5.8,2.8c0.3,3.3-1,11-4,22.9l-0.8,2.7l-4.8,2.8
			l-55,0.2c-1.2-0.1-2.4-0.8-3.5-2c-0.2-1.2-0.2-2.5-0.1-4c0.2-1.4,0.4-3,0.7-4.7c0.7-1.1,1.8-2.7,3.5-4.7l0.5-0.7l20.8-26.1
			l7.6-9.5l0.8-1.2l0.8-0.7l3.7-4.8h-7.6l-3.8,0.5c-1.2,1.8-2,3.9-2.3,6.5l-1.5,2.7c-3,2.4-6.3,3.3-10,2.5c-0.9-0.4-1.9-1.3-3.2-2.7
			c-0.3-2.4-0.2-5.3,0.5-8.6l0.3-2.3c0.3-2.4,0.8-5.2,1.5-8.3l0.2-1.2l1-2.5L790.9,119.6z"/>
		<path class="st11" d="M881,117.2c11.4-1.7,20.6,0.9,27.4,7.8c1.2,2,2.1,4.5,2.7,7.5l0.2,1.7c-0.2,1.7-0.2,3,0.2,4.2l-4.7,33.1
			c8.1-2.1,10.8,1.6,8.1,11.1c-4.5,6.5-10.9,9.9-19,10c-4.5,0.4-8.4-1.3-11.6-5.2c-18.5,10.2-30.3,7.1-35.2-9.3
			c-0.2-12.1,5.9-21.4,18.5-27.9c-8.6-0.7-12-5.7-10-15C862,125.8,869.8,119.8,881,117.2z M885,158.1c-5.5,2-9.2,5.7-11,11.1
			c1.1,4.4,4.3,4.8,9.6,1l1.5-11.1L885,158.1z M884.3,132.2c-0.4,0.1-0.9,0.2-1.5,0.4c-0.6,0.2-1.2,0.5-1.8,0.9
			c0.7,4.2-0.6,8.2-3.7,12c0.7-0.1,1.3-0.3,2-0.6c0.7-0.3,1.4-0.6,2.2-1.1l6.2-2.2l0.5-3.7C889.1,134.8,887.9,132.9,884.3,132.2z"/>
		<path class="st11" d="M916.1,128.1c-0.1-4.1,1.3-7.5,4.3-10.3h25.8c1.4-0.2,2.9-0.1,4.5,0.3l1.2,0.7c1.7-0.8,3.5-1.1,5.7-1h27.3
			l2.3,0.3c4.5,6.6,2.2,11.4-7,14.3l5,19.5l10.1-18.8l0.5-1.3c-3.8-1.3-5.3-4.4-4.5-9.1c1.1-2.1,2.5-3.7,4.2-4.8h22.1
			c0.4,0.3,0.9,0.7,1.2,1.2c0.4,0.5,0.9,1,1.4,1.6l-1,7.1c-0.8,1.3-2.2,2.6-4.2,3.7l-2,2.8c-0.6,1.1-1.2,2.4-1.9,3.7
			c-0.7,1.4-1.6,2.9-2.6,4.4l-23.1,43.2c-2,3-3.7,5-5.2,6.2c-2.8,1.1-5.7,0.9-8.8-0.7c-1.6-2.3-4-11.2-7.5-26.6l-14,22.8
			c-0.7,1-1.7,2.2-3,3.5l-1.2,1c-2.4,0.7-4.9,0.8-7.3,0.3c-1.6-1.6-2.8-3.4-3.7-5.5l-0.7-2.3l-12.5-49.7l-1-2.2
			C919.2,131.6,917.6,130.2,916.1,128.1z M958.3,141.7c-1.8-6.5-4.4-10.4-8-11.6c-1.1,0.8-2.3,1.2-3.5,1.3l-0.8,1l4.7,18.1
			c0,1.1,0.3,2.1,0.8,3c0.8-1.7,1.8-3.4,3-5.3L958.3,141.7z"/>
		<path class="st11" d="M1043.2,117.2c11.4-1.7,20.6,0.9,27.4,7.8c1.2,2,2.1,4.5,2.7,7.5l0.2,1.7c-0.2,1.7-0.2,3,0.2,4.2l-4.7,33.1
			c8.1-2.1,10.8,1.6,8.1,11.1c-4.5,6.5-10.9,9.9-19,10c-4.5,0.4-8.4-1.3-11.6-5.2c-18.5,10.2-30.3,7.1-35.2-9.3
			c-0.2-12.1,5.9-21.4,18.5-27.9c-8.6-0.7-12-5.7-10-15C1024.2,125.8,1032,119.8,1043.2,117.2z M1047.2,158.1
			c-5.5,2-9.2,5.7-11,11.1c1.1,4.4,4.3,4.8,9.6,1l1.5-11.1L1047.2,158.1z M1046.6,132.2c-0.4,0.1-0.9,0.2-1.5,0.4
			c-0.6,0.2-1.2,0.5-1.8,0.9c0.7,4.2-0.6,8.2-3.7,12c0.7-0.1,1.3-0.3,2-0.6c0.7-0.3,1.4-0.6,2.2-1.1l6.2-2.2l0.5-3.7
			C1051.4,134.8,1050.1,132.9,1046.6,132.2z"/>
	</g>
</g>
<g>
	<g>
		<path class="st12" d="M338,91c1-2.4,2.7-4.3,5.2-5.7c4.1-0.8,7.4,0.3,9.8,3.3l16.3,70.5c13,45.9,29,69.5,48.2,70.8
			c9.3,0.4,18.3-2.9,27.1-10c-6.3-8.8-4.7-15.5,4.8-20.1c7.4-3.1,12.8-1,16.1,6.3c0.3,6.4-1.8,13-6.3,19.8c-2.3,3.3-5.8,6.6-10.5,10
			l-0.8,0.7l-10,5.3l-7.5,2.7c-33,8.1-59-9.7-78-53.4c-0.6-0.8-3.4-10.6-8.5-29.4l-0.3-0.7h-25.1l-8.3,12.6l-0.8,2.3
			c8.2,0.7,10.1,5.2,5.7,13.6c-1.2,0.9-2.6,1.6-4.2,2H284c-3-0.8-4.9-2-5.8-3.7l1-7.3c1.6-2.7,4-4.1,7.3-4.3l1.8-1.3L336.7,93
			L338,91z M337.7,129.4l-0.7-1.7l-5.3,9.6l-0.7,1l-1.8,3.5l-0.8,1h11.8l1.3-0.3l-3-9.5l-0.7-2.3L337.7,129.4z"/>
		<path class="st12" d="M411.5,84.5l6.2-1.8c4.7-0.9,7.5,0.8,8.6,5.2l-11.8,84.5c7.6,0.4,10.3,4.3,8,11.6c-0.4,0.4-0.9,0.9-1.4,1.4
			c-0.5,0.5-1.1,1-1.7,1.6h-38.1c-1.3-0.9-2.1-2.1-2.3-3.7c-0.3-6.8,3.5-10.4,11.5-11c0.2-0.8,0.4-1.6,0.6-2.5
			c0.2-0.9,0.3-1.8,0.4-2.8l9.1-64.2c-8.9,0.7-11.7-3.3-8.5-11.8c0.4-0.8,1.3-1.5,2.5-2.2l7.8-2c1.6-0.3,2.9-0.7,4-1
			c1.1-0.3,2.2-0.7,3.2-1L411.5,84.5z"/>
		<path class="st12" d="M462.4,86.5c0.8-1.1,1.9-2.1,3.5-3h78.8c2.1-0.2,3.9,0.5,5.3,2.2l0.5,3.2v2l-1.2,8.5
			c-0.1,0.7-0.2,1.4-0.2,2.3c0,0.8-0.1,1.6-0.2,2.5l-1.7,11.5l-1,2.8c-0.7,0.6-1.4,1.1-2.1,1.5c-0.7,0.4-1.6,0.8-2.6,1
			c-3.1,0.7-6-0.1-8.8-2.2c-0.6-2.1-0.9-4.8-1-8c0-1.1-0.3-2.4-0.8-3.8l-0.5-1.5l-1.3-1.7c-3.5-1.6-7.5-1.9-11.8-1l-10.1,71.3
			l0.2,1.8c10.3,0.6,13.8,4.8,10.5,12.8c-0.9,1.6-2.2,2.8-4,3.8h-44.6c-1.3-1-2.3-2.4-3-4.2c-0.2-3.8,1.1-7.3,4-10.5
			c1.1-0.4,2.3-0.7,3.5-0.9c1.2-0.2,2.6-0.3,4.2-0.4l2.5-1.2l0.7-2l10-70.7c-9.9-2.3-16.2,2.3-19,14c-0.4,0.6-0.9,1.1-1.4,1.7
			c-0.5,0.6-1,1.1-1.6,1.7c-2.9,1.2-5.9,1.5-9,0.8c-1.1-0.8-2.2-1.9-3.2-3.5l2.8-19.6c0.2-0.9,0.4-1.9,0.7-3.1
			c0.2-1.2,0.4-2.5,0.7-3.9C461.4,89.2,461.8,87.8,462.4,86.5z"/>
		<path class="st12" d="M571.8,113.1c23.8-2.5,36.7,7.3,38.7,29.6c-0.4,23.7-12,38.8-34.6,45.4c-23.2,3.2-36-6.7-38.4-29.8
			C537.2,135.1,548.6,120.1,571.8,113.1z M577.4,129.3c-0.9-0.3-1.9-0.5-3.2-0.6c-1.9,0.6-3.7,1.4-5.3,2.7c-4.9,6.5-6.9,13.9-6,21.9
			c-0.3,6.3,1.2,12.2,4.7,17.6c1.7,1.2,3.7,1.9,6.2,2c1.6-0.6,3.2-1.4,5-2.7c4.2-5.8,6.4-12.2,6.6-19.5c1-7.8-0.8-14.6-5.3-20.4
			C579.2,129.9,578.3,129.6,577.4,129.3z"/>
		<path class="st12" d="M638.8,113.9l1.5-0.7c4.1-0.8,7.1,0.6,9.1,4.2c12.1-7.1,22.4-6.1,31.1,3c6.1-5,13.2-7.4,21.4-7.1
			c9.1,0,14.9,4.7,17.5,14l0.8,6.3v2l-4.8,36.7c7.4,0.7,9.6,4.8,6.7,12.3c-0.8,0.8-1.9,1.6-3.5,2.3h-28.9c-0.9,0.1-1.8,0.1-2.8,0.1
			c-1-0.1-2.1-0.2-3.3-0.4l-1.8,0.3h-33.6l-1.5-0.7c-0.9,0.2-1.9,0.4-3,0.6c-1.1,0.2-2.3,0.2-3.5,0.1h-25.8c-2.3,0.1-4.3-0.6-6-2
			c-0.2-1.2-0.2-2.5-0.1-3.9c0.2-1.4,0.4-2.9,0.6-4.4c2.4-2.7,5.6-4,9.5-4c0.3-1.7,0.7-3.4,1-5.2l4.8-34.2
			c-7.2,0.4-9.6-3.1-7.3-10.6c0.7-0.9,1.8-1.9,3.5-3.2c3.4-0.7,7.8-2,13.1-4L638.8,113.9z M659.5,132.9c-1-0.7-2.2-1-3.5-1
			c-2.8,0.6-5.7,2-8.8,4.3l-5,36.4c3.9,1.1,8.1,1,12.8-0.3l4.8-34.1c0.1-0.8,0.1-1.6,0.1-2.5C659.9,134.8,659.8,133.9,659.5,132.9z
			 M696.1,132.9c-0.9-0.7-2.2-1-4-1c-2.9,0.7-5.7,2.2-8.5,4.7l-4.7,32.9l0.2,1.7l0.2,1.5c3.4,1.1,7.4,1,12-0.3
			c0.2-0.8,0.4-1.6,0.6-2.4s0.3-1.7,0.4-2.7l4.2-29.6L696.1,132.9z"/>
		<path class="st12" d="M736.2,121.7l25.3-8.6c2.5,0,4.8,1.2,6.7,3.5c0,1.6-0.1,3.4-0.2,5.5c-0.2,2.1-0.5,4.4-1.1,7l-6,43.1
			c3.4,0.2,6.3,1.4,8.6,3.7c0.1,0.9,0.1,1.9-0.1,3.2c-0.2,1.2-0.4,2.6-0.6,4.2l-0.2,0.8c-0.4,0.4-0.9,0.9-1.3,1.3
			c-0.4,0.4-0.9,0.9-1.5,1.3h-38.1c-3.3-3.7-3.1-7.8,0.7-12.5c2.3-0.9,4.9-1.3,7.6-1.3l0.8-0.7c0.4-2.1,0.9-4.8,1.5-8l4.2-29.6
			c-7.2,0.9-10.3-2-9.3-8.6c0.3-0.6,0.7-1.2,1.2-1.9C734.8,123.2,735.4,122.5,736.2,121.7z M751.3,107.8c-9.9-8.6-8.3-16.8,4.8-24.6
			c7.6-1.3,12.9,1.6,15.8,8.8C771,105,764.2,110.3,751.3,107.8z"/>
		<path class="st12" d="M787.9,114.6c0.6-0.6,1.5-1.2,2.8-2h52.9c1.1,0.6,2.1,1.4,3,2.7c0.2,2.7,0,5.2-0.7,7.6l-36.6,45.4l-1.3,2.3
			h10l2.3-0.3l3.3-1l1.7-1.7l0.3-0.7c1.2-7.3,4.8-11.1,10.6-11.5c2.1,0.3,4,1.3,5.8,2.8c0.3,3.3-1,11-4,22.9l-0.8,2.7l-4.8,2.8
			l-55,0.2c-1.2-0.1-2.4-0.8-3.5-2c-0.2-1.2-0.2-2.5-0.1-4c0.2-1.4,0.4-3,0.7-4.7c0.7-1.1,1.8-2.7,3.5-4.7l0.5-0.7l20.8-26.1
			l7.6-9.5l0.8-1.2l0.8-0.7l3.7-4.8h-7.6l-3.8,0.5c-1.2,1.8-2,3.9-2.3,6.5l-1.5,2.7c-3,2.4-6.3,3.3-10,2.5c-0.9-0.4-1.9-1.3-3.2-2.7
			c-0.3-2.4-0.2-5.3,0.5-8.6l0.3-2.3c0.3-2.4,0.8-5.2,1.5-8.3l0.2-1.2l1-2.5L787.9,114.6z"/>
		<path class="st12" d="M878,112.2c11.4-1.7,20.6,0.9,27.4,7.8c1.2,2,2.1,4.5,2.7,7.5l0.2,1.7c-0.2,1.7-0.2,3,0.2,4.2l-4.7,33.1
			c8.1-2.1,10.8,1.6,8.1,11.1c-4.5,6.5-10.9,9.9-19,10c-4.5,0.4-8.4-1.3-11.6-5.2c-18.5,10.2-30.3,7.1-35.2-9.3
			c-0.2-12.1,5.9-21.4,18.5-27.9c-8.6-0.7-12-5.7-10-15C859,120.8,866.8,114.8,878,112.2z M882,153.1c-5.5,2-9.2,5.7-11,11.1
			c1.1,4.4,4.3,4.8,9.6,1l1.5-11.1L882,153.1z M881.3,127.2c-0.4,0.1-0.9,0.2-1.5,0.4c-0.6,0.2-1.2,0.5-1.8,0.9
			c0.7,4.2-0.6,8.2-3.7,12c0.7-0.1,1.3-0.3,2-0.6c0.7-0.3,1.4-0.6,2.2-1.1l6.2-2.2l0.5-3.7C886.1,129.8,884.9,127.9,881.3,127.2z"/>
		<path class="st12" d="M913.1,123.1c-0.1-4.1,1.3-7.5,4.3-10.3h25.8c1.4-0.2,2.9-0.1,4.5,0.3l1.2,0.7c1.7-0.8,3.5-1.1,5.7-1h27.3
			l2.3,0.3c4.5,6.6,2.2,11.4-7,14.3l5,19.5l10.1-18.8l0.5-1.3c-3.8-1.3-5.3-4.4-4.5-9.1c1.1-2.1,2.5-3.7,4.2-4.8h22.1
			c0.4,0.3,0.9,0.7,1.2,1.2c0.4,0.5,0.9,1,1.4,1.6l-1,7.1c-0.8,1.3-2.2,2.6-4.2,3.7l-2,2.8c-0.6,1.1-1.2,2.4-1.9,3.7
			c-0.7,1.4-1.6,2.9-2.6,4.4l-23.1,43.2c-2,3-3.7,5-5.2,6.2c-2.8,1.1-5.7,0.9-8.8-0.7c-1.6-2.3-4-11.2-7.5-26.6l-14,22.8
			c-0.7,1-1.7,2.2-3,3.5l-1.2,1c-2.4,0.7-4.9,0.8-7.3,0.3c-1.6-1.6-2.8-3.4-3.7-5.5l-0.7-2.3l-12.5-49.7l-1-2.2
			C916.2,126.6,914.6,125.2,913.1,123.1z M955.3,136.7c-1.8-6.5-4.4-10.4-8-11.6c-1.1,0.8-2.3,1.2-3.5,1.3l-0.8,1l4.7,18.1
			c0,1.1,0.3,2.1,0.8,3c0.8-1.7,1.8-3.4,3-5.3L955.3,136.7z"/>
		<path class="st12" d="M1040.2,112.2c11.4-1.7,20.6,0.9,27.4,7.8c1.2,2,2.1,4.5,2.7,7.5l0.2,1.7c-0.2,1.7-0.2,3,0.2,4.2l-4.7,33.1
			c8.1-2.1,10.8,1.6,8.1,11.1c-4.5,6.5-10.9,9.9-19,10c-4.5,0.4-8.4-1.3-11.6-5.2c-18.5,10.2-30.3,7.1-35.2-9.3
			c-0.2-12.1,5.9-21.4,18.5-27.9c-8.6-0.7-12-5.7-10-15C1021.2,120.8,1029,114.8,1040.2,112.2z M1044.2,153.1
			c-5.5,2-9.2,5.7-11,11.1c1.1,4.4,4.3,4.8,9.6,1l1.5-11.1L1044.2,153.1z M1043.6,127.2c-0.4,0.1-0.9,0.2-1.5,0.4
			c-0.6,0.2-1.2,0.5-1.8,0.9c0.7,4.2-0.6,8.2-3.7,12c0.7-0.1,1.3-0.3,2-0.6c0.7-0.3,1.4-0.6,2.2-1.1l6.2-2.2l0.5-3.7
			C1048.4,129.8,1047.1,127.9,1043.6,127.2z"/>
	</g>
</g>
<g>
	<g>
		<path class="st13" d="M334.5,86.5c1-2.4,2.7-4.3,5.2-5.7c4.1-0.8,7.4,0.3,9.8,3.3l16.3,70.5c13,45.9,29,69.5,48.2,70.8
			c9.3,0.4,18.3-2.9,27.1-10c-6.3-8.8-4.7-15.5,4.8-20.1c7.4-3.1,12.8-1,16.1,6.3c0.3,6.4-1.8,13-6.3,19.8c-2.3,3.3-5.8,6.6-10.5,10
			l-0.8,0.7l-10,5.3l-7.5,2.7c-33,8.1-59-9.7-78-53.4c-0.6-0.8-3.4-10.6-8.5-29.4l-0.3-0.7h-25.1l-8.3,12.6l-0.8,2.3
			c8.2,0.7,10.1,5.2,5.7,13.6c-1.2,0.9-2.6,1.6-4.2,2h-26.9c-3-0.8-4.9-2-5.8-3.7l1-7.3c1.6-2.7,4-4.1,7.3-4.3l1.8-1.3l48.4-82.1
			L334.5,86.5z M334.2,124.9l-0.7-1.7l-5.3,9.6l-0.7,1l-1.8,3.5l-0.8,1h11.8l1.3-0.3l-3-9.5l-0.7-2.3L334.2,124.9z"/>
		<path class="st13" d="M408,80l6.2-1.8c4.7-0.9,7.5,0.8,8.6,5.2L411,167.8c7.6,0.4,10.3,4.3,8,11.6c-0.4,0.4-0.9,0.9-1.4,1.4
			c-0.5,0.5-1.1,1-1.7,1.6h-38.1c-1.3-0.9-2.1-2.1-2.3-3.7c-0.3-6.8,3.5-10.4,11.5-11c0.2-0.8,0.4-1.6,0.6-2.5
			c0.2-0.9,0.3-1.8,0.4-2.8l9.1-64.2c-8.9,0.7-11.7-3.3-8.5-11.8c0.4-0.8,1.3-1.5,2.5-2.2l7.8-2c1.6-0.3,2.9-0.7,4-1
			c1.1-0.3,2.2-0.7,3.2-1L408,80z"/>
		<path class="st13" d="M458.9,82c0.8-1.1,1.9-2.1,3.5-3h78.8c2.1-0.2,3.9,0.5,5.3,2.2l0.5,3.2v2l-1.2,8.5c-0.1,0.7-0.2,1.4-0.2,2.3
			c0,0.8-0.1,1.6-0.2,2.5l-1.7,11.5l-1,2.8c-0.7,0.6-1.4,1.1-2.1,1.5c-0.7,0.4-1.6,0.8-2.6,1c-3.1,0.7-6-0.1-8.8-2.2
			c-0.6-2.1-0.9-4.8-1-8c0-1.1-0.3-2.4-0.8-3.8l-0.5-1.5l-1.3-1.7c-3.5-1.6-7.5-1.9-11.8-1l-10.1,71.3l0.2,1.8
			c10.3,0.6,13.8,4.8,10.5,12.8c-0.9,1.6-2.2,2.8-4,3.8h-44.6c-1.3-1-2.3-2.4-3-4.2c-0.2-3.8,1.1-7.3,4-10.5
			c1.1-0.4,2.3-0.7,3.5-0.9c1.2-0.2,2.6-0.3,4.2-0.4l2.5-1.2l0.7-2l10-70.7c-9.9-2.3-16.2,2.3-19,14c-0.4,0.6-0.9,1.1-1.4,1.7
			c-0.5,0.6-1,1.1-1.6,1.7c-2.9,1.2-5.9,1.5-9,0.8c-1.1-0.8-2.2-1.9-3.2-3.5l2.8-19.6c0.2-0.9,0.4-1.9,0.7-3.1
			c0.2-1.2,0.4-2.5,0.7-3.9C457.9,84.8,458.3,83.3,458.9,82z"/>
		<path class="st13" d="M568.3,108.6c23.8-2.5,36.7,7.3,38.7,29.6c-0.4,23.7-12,38.8-34.6,45.4c-23.2,3.2-36-6.7-38.4-29.8
			C533.7,130.6,545.1,115.6,568.3,108.6z M573.9,124.8c-0.9-0.3-1.9-0.5-3.2-0.6c-1.9,0.6-3.7,1.4-5.3,2.7c-4.9,6.5-6.9,13.9-6,21.9
			c-0.3,6.3,1.2,12.2,4.7,17.6c1.7,1.2,3.7,1.9,6.2,2c1.6-0.6,3.2-1.4,5-2.7c4.2-5.8,6.4-12.2,6.6-19.5c1-7.8-0.8-14.6-5.3-20.4
			C575.7,125.4,574.8,125.1,573.9,124.8z"/>
		<path class="st13" d="M635.3,109.4l1.5-0.7c4.1-0.8,7.1,0.6,9.1,4.2c12.1-7.1,22.4-6.1,31.1,3c6.1-5,13.2-7.4,21.4-7.1
			c9.1,0,14.9,4.7,17.5,14l0.8,6.3v2l-4.8,36.7c7.4,0.7,9.6,4.8,6.7,12.3c-0.8,0.8-1.9,1.6-3.5,2.3h-28.9c-0.9,0.1-1.8,0.1-2.8,0.1
			c-1-0.1-2.1-0.2-3.3-0.4l-1.8,0.3h-33.6l-1.5-0.7c-0.9,0.2-1.9,0.4-3,0.6c-1.1,0.2-2.3,0.2-3.5,0.1h-25.8c-2.3,0.1-4.3-0.6-6-2
			c-0.2-1.2-0.2-2.5-0.1-3.9c0.2-1.4,0.4-2.9,0.6-4.4c2.4-2.7,5.6-4,9.5-4c0.3-1.7,0.7-3.4,1-5.2l4.8-34.2
			c-7.2,0.4-9.6-3.1-7.3-10.6c0.7-0.9,1.8-1.9,3.5-3.2c3.4-0.7,7.8-2,13.1-4L635.3,109.4z M656,128.4c-1-0.7-2.2-1-3.5-1
			c-2.8,0.6-5.7,2-8.8,4.3l-5,36.4c3.9,1.1,8.1,1,12.8-0.3l4.8-34.1c0.1-0.8,0.1-1.6,0.1-2.5C656.4,130.3,656.3,129.4,656,128.4z
			 M692.6,128.4c-0.9-0.7-2.2-1-4-1c-2.9,0.7-5.7,2.2-8.5,4.7l-4.7,32.9l0.2,1.7l0.2,1.5c3.4,1.1,7.4,1,12-0.3
			c0.2-0.8,0.4-1.6,0.6-2.4s0.3-1.7,0.4-2.7l4.2-29.6L692.6,128.4z"/>
		<path class="st13" d="M732.7,117.2l25.3-8.6c2.5,0,4.8,1.2,6.7,3.5c0,1.6-0.1,3.4-0.2,5.5c-0.2,2.1-0.5,4.4-1.1,7l-6,43.1
			c3.4,0.2,6.3,1.4,8.6,3.7c0.1,0.9,0.1,1.9-0.1,3.2c-0.2,1.2-0.4,2.6-0.6,4.2l-0.2,0.8c-0.4,0.4-0.9,0.9-1.3,1.3
			c-0.4,0.4-0.9,0.9-1.5,1.3h-38.1c-3.3-3.7-3.1-7.8,0.7-12.5c2.3-0.9,4.9-1.3,7.6-1.3l0.8-0.7c0.4-2.1,0.9-4.8,1.5-8L739,130
			c-7.2,0.9-10.3-2-9.3-8.6c0.3-0.6,0.7-1.2,1.2-1.9C731.3,118.7,731.9,118,732.7,117.2z M747.8,103.3c-9.9-8.6-8.3-16.8,4.8-24.6
			c7.6-1.3,12.9,1.6,15.8,8.8C767.5,100.5,760.7,105.8,747.8,103.3z"/>
		<path class="st13" d="M784.4,110.1c0.6-0.6,1.5-1.2,2.8-2h52.9c1.1,0.6,2.1,1.4,3,2.7c0.2,2.7,0,5.2-0.7,7.6l-36.6,45.4l-1.3,2.3
			h10l2.3-0.3l3.3-1l1.7-1.7l0.3-0.7c1.2-7.3,4.8-11.1,10.6-11.5c2.1,0.3,4,1.3,5.8,2.8c0.3,3.3-1,11-4,22.9l-0.8,2.7l-4.8,2.8
			l-55,0.2c-1.2-0.1-2.4-0.8-3.5-2c-0.2-1.2-0.2-2.5-0.1-4c0.2-1.4,0.4-3,0.7-4.7c0.7-1.1,1.8-2.7,3.5-4.7l0.5-0.7l20.8-26.1
			l7.6-9.5l0.8-1.2l0.8-0.7l3.7-4.8h-7.6l-3.8,0.5c-1.2,1.8-2,3.9-2.3,6.5l-1.5,2.7c-3,2.4-6.3,3.3-10,2.5c-0.9-0.4-1.9-1.3-3.2-2.7
			c-0.3-2.4-0.2-5.3,0.5-8.6l0.3-2.3c0.3-2.4,0.8-5.2,1.5-8.3l0.2-1.2l1-2.5L784.4,110.1z"/>
		<path class="st13" d="M874.5,107.7c11.4-1.7,20.6,0.9,27.4,7.8c1.2,2,2.1,4.5,2.7,7.5l0.2,1.7c-0.2,1.7-0.2,3,0.2,4.2l-4.7,33.1
			c8.1-2.1,10.8,1.6,8.1,11.1c-4.5,6.5-10.9,9.9-19,10c-4.5,0.4-8.4-1.3-11.6-5.2c-18.5,10.2-30.3,7.1-35.2-9.3
			c-0.2-12.1,5.9-21.4,18.5-27.9c-8.6-0.7-12-5.7-10-15C855.5,116.3,863.3,110.3,874.5,107.7z M878.5,148.6c-5.5,2-9.2,5.7-11,11.1
			c1.1,4.4,4.3,4.8,9.6,1l1.5-11.1L878.5,148.6z M877.8,122.7c-0.4,0.1-0.9,0.2-1.5,0.4c-0.6,0.2-1.2,0.5-1.8,0.9
			c0.7,4.2-0.6,8.2-3.7,12c0.7-0.1,1.3-0.3,2-0.6c0.7-0.3,1.4-0.6,2.2-1.1l6.2-2.2l0.5-3.7C882.6,125.3,881.4,123.4,877.8,122.7z"/>
		<path class="st13" d="M909.6,118.6c-0.1-4.1,1.3-7.5,4.3-10.3h25.8c1.4-0.2,2.9-0.1,4.5,0.3l1.2,0.7c1.7-0.8,3.5-1.1,5.7-1h27.3
			l2.3,0.3c4.5,6.6,2.2,11.4-7,14.3l5,19.5l10.1-18.8l0.5-1.3c-3.8-1.3-5.3-4.4-4.5-9.1c1.1-2.1,2.5-3.7,4.2-4.8h22.1
			c0.4,0.3,0.9,0.7,1.2,1.2c0.4,0.5,0.9,1,1.4,1.6l-1,7.1c-0.8,1.3-2.2,2.6-4.2,3.7l-2,2.8c-0.6,1.1-1.2,2.4-1.9,3.7
			c-0.7,1.4-1.6,2.9-2.6,4.4l-23.1,43.2c-2,3-3.7,5-5.2,6.2c-2.8,1.1-5.7,0.9-8.8-0.7c-1.6-2.3-4-11.2-7.5-26.6l-14,22.8
			c-0.7,1-1.7,2.2-3,3.5l-1.2,1c-2.4,0.7-4.9,0.8-7.3,0.3c-1.6-1.6-2.8-3.4-3.7-5.5l-0.7-2.3L915.2,125l-1-2.2
			C912.7,122.1,911.1,120.7,909.6,118.6z M951.8,132.2c-1.8-6.5-4.4-10.4-8-11.6c-1.1,0.8-2.3,1.2-3.5,1.3l-0.8,1l4.7,18.1
			c0,1.1,0.3,2.1,0.8,3c0.8-1.7,1.8-3.4,3-5.3L951.8,132.2z"/>
		<path class="st13" d="M1036.7,107.7c11.4-1.7,20.6,0.9,27.4,7.8c1.2,2,2.1,4.5,2.7,7.5l0.2,1.7c-0.2,1.7-0.2,3,0.2,4.2l-4.7,33.1
			c8.1-2.1,10.8,1.6,8.1,11.1c-4.5,6.5-10.9,9.9-19,10c-4.5,0.4-8.4-1.3-11.6-5.2c-18.5,10.2-30.3,7.1-35.2-9.3
			c-0.2-12.1,5.9-21.4,18.5-27.9c-8.6-0.7-12-5.7-10-15C1017.7,116.3,1025.5,110.3,1036.7,107.7z M1040.7,148.6
			c-5.5,2-9.2,5.7-11,11.1c1.1,4.4,4.3,4.8,9.6,1l1.5-11.1L1040.7,148.6z M1040.1,122.7c-0.4,0.1-0.9,0.2-1.5,0.4
			c-0.6,0.2-1.2,0.5-1.8,0.9c0.7,4.2-0.6,8.2-3.7,12c0.7-0.1,1.3-0.3,2-0.6c0.7-0.3,1.4-0.6,2.2-1.1l6.2-2.2l0.5-3.7
			C1044.9,125.3,1043.6,123.4,1040.1,122.7z"/>
	</g>
</g>
<g>
	<g>
		<path class="st14" d="M332.5,80.5c1-2.4,2.7-4.3,5.2-5.7c4.1-0.8,7.4,0.3,9.8,3.3l16.3,70.5c13,45.9,29,69.5,48.2,70.8
			c9.3,0.4,18.3-2.9,27.1-10c-6.3-8.8-4.7-15.5,4.8-20.1c7.4-3.1,12.8-1,16.1,6.3c0.3,6.4-1.8,13-6.3,19.8c-2.3,3.3-5.8,6.6-10.5,10
			l-0.8,0.7l-10,5.3l-7.5,2.7c-33,8.1-59-9.7-78-53.4c-0.6-0.8-3.4-10.6-8.5-29.4l-0.3-0.7h-25.1l-8.3,12.6l-0.8,2.3
			c8.2,0.7,10.1,5.2,5.7,13.6c-1.2,0.9-2.6,1.6-4.2,2h-26.9c-3-0.8-4.9-2-5.8-3.7l1-7.3c1.6-2.7,4-4.1,7.3-4.3l1.8-1.3l48.4-82.1
			L332.5,80.5z M332.2,118.9l-0.7-1.7l-5.3,9.6l-0.7,1l-1.8,3.5l-0.8,1h11.8l1.3-0.3l-3-9.5l-0.7-2.3L332.2,118.9z"/>
		<path class="st14" d="M406,74l6.2-1.8c4.7-0.9,7.5,0.8,8.6,5.2L409,161.8c7.6,0.4,10.3,4.3,8,11.6c-0.4,0.4-0.9,0.9-1.4,1.4
			c-0.5,0.5-1.1,1-1.7,1.6h-38.1c-1.3-0.9-2.1-2.1-2.3-3.7c-0.3-6.8,3.5-10.4,11.5-11c0.2-0.8,0.4-1.6,0.6-2.5
			c0.2-0.9,0.3-1.8,0.4-2.8l9.1-64.2c-8.9,0.7-11.7-3.3-8.5-11.8c0.4-0.8,1.3-1.5,2.5-2.2l7.8-2c1.6-0.3,2.9-0.7,4-1
			c1.1-0.3,2.2-0.7,3.2-1L406,74z"/>
		<path class="st14" d="M456.9,76c0.8-1.1,1.9-2.1,3.5-3h78.8c2.1-0.2,3.9,0.5,5.3,2.2l0.5,3.2v2l-1.2,8.5c-0.1,0.7-0.2,1.4-0.2,2.3
			c0,0.8-0.1,1.6-0.2,2.5l-1.7,11.5l-1,2.8c-0.7,0.6-1.4,1.1-2.1,1.5c-0.7,0.4-1.6,0.8-2.6,1c-3.1,0.7-6-0.1-8.8-2.2
			c-0.6-2.1-0.9-4.8-1-8c0-1.1-0.3-2.4-0.8-3.8l-0.5-1.5l-1.3-1.7c-3.5-1.6-7.5-1.9-11.8-1l-10.1,71.3l0.2,1.8
			c10.3,0.6,13.8,4.8,10.5,12.8c-0.9,1.6-2.2,2.8-4,3.8h-44.6c-1.3-1-2.3-2.4-3-4.2c-0.2-3.8,1.1-7.3,4-10.5
			c1.1-0.4,2.3-0.7,3.5-0.9c1.2-0.2,2.6-0.3,4.2-0.4l2.5-1.2l0.7-2l10-70.7c-9.9-2.3-16.2,2.3-19,14c-0.4,0.6-0.9,1.1-1.4,1.7
			c-0.5,0.6-1,1.1-1.6,1.7c-2.9,1.2-5.9,1.5-9,0.8c-1.1-0.8-2.2-1.9-3.2-3.5l2.8-19.6c0.2-0.9,0.4-1.9,0.7-3.1
			c0.2-1.2,0.4-2.5,0.7-3.9C455.9,78.8,456.3,77.3,456.9,76z"/>
		<path class="st14" d="M566.3,102.6c23.8-2.5,36.7,7.3,38.7,29.6c-0.4,23.7-12,38.8-34.6,45.4c-23.2,3.2-36-6.7-38.4-29.8
			C531.7,124.6,543.1,109.6,566.3,102.6z M571.9,118.8c-0.9-0.3-1.9-0.5-3.2-0.6c-1.9,0.6-3.7,1.4-5.3,2.7c-4.9,6.5-6.9,13.9-6,21.9
			c-0.3,6.3,1.2,12.2,4.7,17.6c1.7,1.2,3.7,1.9,6.2,2c1.6-0.6,3.2-1.4,5-2.7c4.2-5.8,6.4-12.2,6.6-19.5c1-7.8-0.8-14.6-5.3-20.4
			C573.7,119.4,572.8,119.1,571.9,118.8z"/>
		<path class="st14" d="M633.3,103.4l1.5-0.7c4.1-0.8,7.1,0.6,9.1,4.2c12.1-7.1,22.4-6.1,31.1,3c6.1-5,13.2-7.4,21.4-7.1
			c9.1,0,14.9,4.7,17.5,14l0.8,6.3v2l-4.8,36.7c7.4,0.7,9.6,4.8,6.7,12.3c-0.8,0.8-1.9,1.6-3.5,2.3h-28.9c-0.9,0.1-1.8,0.1-2.8,0.1
			c-1-0.1-2.1-0.2-3.3-0.4l-1.8,0.3h-33.6l-1.5-0.7c-0.9,0.2-1.9,0.4-3,0.6c-1.1,0.2-2.3,0.2-3.5,0.1h-25.8c-2.3,0.1-4.3-0.6-6-2
			c-0.2-1.2-0.2-2.5-0.1-3.9c0.2-1.4,0.4-2.9,0.6-4.4c2.4-2.7,5.6-4,9.5-4c0.3-1.7,0.7-3.4,1-5.2l4.8-34.2
			c-7.2,0.4-9.6-3.1-7.3-10.6c0.7-0.9,1.8-1.9,3.5-3.2c3.4-0.7,7.8-2,13.1-4L633.3,103.4z M654,122.4c-1-0.7-2.2-1-3.5-1
			c-2.8,0.6-5.7,2-8.8,4.3l-5,36.4c3.9,1.1,8.1,1,12.8-0.3l4.8-34.1c0.1-0.8,0.1-1.6,0.1-2.5C654.4,124.3,654.3,123.4,654,122.4z
			 M690.6,122.4c-0.9-0.7-2.2-1-4-1c-2.9,0.7-5.7,2.2-8.5,4.7l-4.7,32.9l0.2,1.7l0.2,1.5c3.4,1.1,7.4,1,12-0.3
			c0.2-0.8,0.4-1.6,0.6-2.4s0.3-1.7,0.4-2.7l4.2-29.6L690.6,122.4z"/>
		<path class="st14" d="M730.7,111.2l25.3-8.6c2.5,0,4.8,1.2,6.7,3.5c0,1.6-0.1,3.4-0.2,5.5c-0.2,2.1-0.5,4.4-1.1,7l-6,43.1
			c3.4,0.2,6.3,1.4,8.6,3.7c0.1,0.9,0.1,1.9-0.1,3.2c-0.2,1.2-0.4,2.6-0.6,4.2l-0.2,0.8c-0.4,0.4-0.9,0.9-1.3,1.3
			c-0.4,0.4-0.9,0.9-1.5,1.3h-38.1c-3.3-3.7-3.1-7.8,0.7-12.5c2.3-0.9,4.9-1.3,7.6-1.3l0.8-0.7c0.4-2.1,0.9-4.8,1.5-8L737,124
			c-7.2,0.9-10.3-2-9.3-8.6c0.3-0.6,0.7-1.2,1.2-1.9C729.3,112.7,729.9,112,730.7,111.2z M745.8,97.3c-9.9-8.6-8.3-16.8,4.8-24.6
			c7.6-1.3,12.9,1.6,15.8,8.8C765.5,94.5,758.7,99.8,745.8,97.3z"/>
		<path class="st14" d="M782.4,104.1c0.6-0.6,1.5-1.2,2.8-2h52.9c1.1,0.6,2.1,1.4,3,2.7c0.2,2.7,0,5.2-0.7,7.6l-36.6,45.4l-1.3,2.3
			h10l2.3-0.3l3.3-1l1.7-1.7l0.3-0.7c1.2-7.3,4.8-11.1,10.6-11.5c2.1,0.3,4,1.3,5.8,2.8c0.3,3.3-1,11-4,22.9l-0.8,2.7l-4.8,2.8
			l-55,0.2c-1.2-0.1-2.4-0.8-3.5-2c-0.2-1.2-0.2-2.5-0.1-4c0.2-1.4,0.4-3,0.7-4.7c0.7-1.1,1.8-2.7,3.5-4.7l0.5-0.7l20.8-26.1
			l7.6-9.5l0.8-1.2l0.8-0.7l3.7-4.8h-7.6l-3.8,0.5c-1.2,1.8-2,3.9-2.3,6.5l-1.5,2.7c-3,2.4-6.3,3.3-10,2.5c-0.9-0.4-1.9-1.3-3.2-2.7
			c-0.3-2.4-0.2-5.3,0.5-8.6l0.3-2.3c0.3-2.4,0.8-5.2,1.5-8.3l0.2-1.2l1-2.5L782.4,104.1z"/>
		<path class="st14" d="M872.5,101.7c11.4-1.7,20.6,0.9,27.4,7.8c1.2,2,2.1,4.5,2.7,7.5l0.2,1.7c-0.2,1.7-0.2,3,0.2,4.2l-4.7,33.1
			c8.1-2.1,10.8,1.6,8.1,11.1c-4.5,6.5-10.9,9.9-19,10c-4.5,0.4-8.4-1.3-11.6-5.2c-18.5,10.2-30.3,7.1-35.2-9.3
			c-0.2-12.1,5.9-21.4,18.5-27.9c-8.6-0.7-12-5.7-10-15C853.5,110.3,861.3,104.3,872.5,101.7z M876.5,142.6c-5.5,2-9.2,5.7-11,11.1
			c1.1,4.4,4.3,4.8,9.6,1l1.5-11.1L876.5,142.6z M875.8,116.7c-0.4,0.1-0.9,0.2-1.5,0.4c-0.6,0.2-1.2,0.5-1.8,0.9
			c0.7,4.2-0.6,8.2-3.7,12c0.7-0.1,1.3-0.3,2-0.6c0.7-0.3,1.4-0.6,2.2-1.1l6.2-2.2l0.5-3.7C880.6,119.3,879.4,117.4,875.8,116.7z"/>
		<path class="st14" d="M907.6,112.6c-0.1-4.1,1.3-7.5,4.3-10.3h25.8c1.4-0.2,2.9-0.1,4.5,0.3l1.2,0.7c1.7-0.8,3.5-1.1,5.7-1h27.3
			l2.3,0.3c4.5,6.6,2.2,11.4-7,14.3l5,19.5l10.1-18.8l0.5-1.3c-3.8-1.3-5.3-4.4-4.5-9.1c1.1-2.1,2.5-3.7,4.2-4.8h22.1
			c0.4,0.3,0.9,0.7,1.2,1.2c0.4,0.5,0.9,1,1.4,1.6l-1,7.1c-0.8,1.3-2.2,2.6-4.2,3.7l-2,2.8c-0.6,1.1-1.2,2.4-1.9,3.7
			c-0.7,1.4-1.6,2.9-2.6,4.4l-23.1,43.2c-2,3-3.7,5-5.2,6.2c-2.8,1.1-5.7,0.9-8.8-0.7c-1.6-2.3-4-11.2-7.5-26.6l-14,22.8
			c-0.7,1-1.7,2.2-3,3.5l-1.2,1c-2.4,0.7-4.9,0.8-7.3,0.3c-1.6-1.6-2.8-3.4-3.7-5.5l-0.7-2.3L913.2,119l-1-2.2
			C910.7,116.1,909.1,114.7,907.6,112.6z M949.8,126.2c-1.8-6.5-4.4-10.4-8-11.6c-1.1,0.8-2.3,1.2-3.5,1.3l-0.8,1l4.7,18.1
			c0,1.1,0.3,2.1,0.8,3c0.8-1.7,1.8-3.4,3-5.3L949.8,126.2z"/>
		<path class="st14" d="M1034.7,101.7c11.4-1.7,20.6,0.9,27.4,7.8c1.2,2,2.1,4.5,2.7,7.5l0.2,1.7c-0.2,1.7-0.2,3,0.2,4.2l-4.7,33.1
			c8.1-2.1,10.8,1.6,8.1,11.1c-4.5,6.5-10.9,9.9-19,10c-4.5,0.4-8.4-1.3-11.6-5.2c-18.5,10.2-30.3,7.1-35.2-9.3
			c-0.2-12.1,5.9-21.4,18.5-27.9c-8.6-0.7-12-5.7-10-15C1015.7,110.3,1023.5,104.3,1034.7,101.7z M1038.7,142.6
			c-5.5,2-9.2,5.7-11,11.1c1.1,4.4,4.3,4.8,9.6,1l1.5-11.1L1038.7,142.6z M1038.1,116.7c-0.4,0.1-0.9,0.2-1.5,0.4
			c-0.6,0.2-1.2,0.5-1.8,0.9c0.7,4.2-0.6,8.2-3.7,12c0.7-0.1,1.3-0.3,2-0.6c0.7-0.3,1.4-0.6,2.2-1.1l6.2-2.2l0.5-3.7
			C1042.9,119.3,1041.6,117.4,1038.1,116.7z"/>
	</g>
</g>
</svg>
