<?xml version="1.0" encoding="utf-8"?>
<!-- Generator: Adobe Illustrator 27.5.0, SVG Export Plug-In . SVG Version: 6.00 Build 0)  -->
<svg version="1.1" id="Layer_1" xmlns="http://www.w3.org/2000/svg" xmlns:xlink="http://www.w3.org/1999/xlink" x="0px" y="0px"
	 viewBox="0 0 1366 176" style="enable-background:new 0 0 1366 176;" xml:space="preserve">
<style type="text/css">
	.st0{fill:#FFFFFF;}
	.st1{fill:#FFFFFF;stroke:#000000;stroke-miterlimit:10;}
	.st2{fill:#FFFFFF;stroke:#000000;stroke-width:3;stroke-miterlimit:10;}
	.st3{fill:none;stroke:#FFFFFF;stroke-miterlimit:10;}
</style>
<g>
	<rect width="1366" height="181"/>
</g>
<g>
	<path class="st0" d="M597.5,109.1V67.7h5.8v41.4H597.5z M608.6,92.2L604.1,75h-1.7v-7.4h4.1l4.5,17.8h0.2l0.6,6.7H608.6z
		 M610.3,92.2l0.9-6.7h0.4l4.5-17.8h4.1V75h-1.7l-4.5,17.2H610.3z M619.2,109.1V67.7h5.8v41.4H619.2z"/>
	<path class="st0" d="M643.8,95.3l-14.3-27.6h6.4L646,88.4h0.5l10.1-20.7h6.4l-14.3,27.6H643.8z M643.2,109.1V88.7h6.1v20.4H643.2z"
		/>
	<path class="st0" d="M682,109.1V67.7h6.1v41.4H682z M687.3,96.3v-5.5h6.8c3.2,0,5.6-0.8,7.2-2.4s2.5-3.9,2.5-7
		c0-2.7-0.8-4.7-2.5-6.1c-1.6-1.4-4-2.1-7.2-2.1h-6.7v-5.5h6.7c5.2,0,9.1,1.2,11.8,3.5c2.7,2.3,4,5.7,4,10.2c0,4.9-1.3,8.6-4,11.1
		c-2.7,2.5-6.6,3.8-11.8,3.8H687.3z"/>
	<path class="st0" d="M710,109.1l12-41.4h8.5l12,41.4h-6.1l-9.8-36.4H726l-9.8,36.4H710z M715.6,99v-5.5h21V99H715.6z"/>
	<path class="st0" d="M759.8,109.7c-2.4,0-4.6-0.2-6.6-0.6s-4-0.9-5.7-1.7l0.8-5.9c2.1,0.9,4.2,1.6,6.2,2.1c2,0.5,3.9,0.7,5.8,0.7
		c2.7,0,4.7-0.5,6.1-1.4c1.3-1,2-2.4,2-4.3c0-2.5-1.3-4.3-3.8-5.4l-7.2-3.3c-2.8-1.3-5-2.8-6.5-4.6c-1.5-1.8-2.3-4.1-2.3-6.7
		c0-3.6,1.1-6.4,3.3-8.4c2.2-2,5.3-3,9.3-3c2.8,0,5.2,0.4,7.4,1.2c2.1,0.8,4.2,2.1,6.2,4l-4.1,4.1c-1.7-1.4-3.3-2.4-4.8-3.1
		c-1.5-0.6-3-0.9-4.7-0.9c-2,0-3.6,0.5-4.7,1.4c-1.1,1-1.6,2.4-1.6,4.3c0,1.3,0.4,2.4,1.1,3.3s1.8,1.6,3.2,2.3l6.1,2.9
		c3.1,1.4,5.4,3.1,7,4.9c1.6,1.8,2.4,4.1,2.4,7c0,3.8-1.2,6.6-3.7,8.4C768.5,108.8,764.8,109.7,759.8,109.7z"/>
	<path class="st0" d="M777.5,73.2v-5.5h30.4v5.5H777.5z M789.7,109.1V67.7h6.1v41.4H789.7z"/>
</g>
<polygon class="st1" points="512.4,89.4 559.4,116.6 559.4,62.3 "/>
<polygon class="st2" points="538.8,89.5 585.8,116.6 585.8,62.3 "/>
<path class="st3" d="M838,142H493c-10.5,0-19-8.5-19-19V57c0-10.5,8.5-19,19-19h345c10.5,0,19,8.5,19,19v66
	C857,133.5,848.5,142,838,142z"/>
</svg>
