<?xml version="1.0" encoding="utf-8"?>
<!-- Generator: Adobe Illustrator 27.5.0, SVG Export Plug-In . SVG Version: 6.00 Build 0)  -->
<svg version="1.1" id="Layer_1" xmlns="http://www.w3.org/2000/svg" xmlns:xlink="http://www.w3.org/1999/xlink" x="0px" y="0px"
	 viewBox="0 0 1366 98" style="enable-background:new 0 0 1366 98;" xml:space="preserve">
<style type="text/css">
	.st0{fill:#161B22;}
	.st1{fill:#FFFFFF;}
	.st2{fill:#FFFFFF;stroke:#161B22;stroke-miterlimit:10;}
	.st3{fill:#FFFFFF;stroke:#161B22;stroke-width:2;stroke-miterlimit:10;}
	.st4{fill:none;stroke:#FFFFFF;stroke-miterlimit:10;}
</style>
<g>
	<rect class="st0" width="1366" height="98"/>
</g>
<g>
	<path class="st1" d="M92.4,59.2V39.3h2.8v19.9H92.4z M97.7,51.1l-2.2-8.3h-0.8v-3.5h2l2.2,8.6H99l0.3,3.2H97.7z M98.5,51.1l0.4-3.2
		h0.2l2.2-8.6h2v3.5h-0.8l-2.2,8.3H98.5z M102.8,59.2V39.3h2.8v19.9H102.8z"/>
	<path class="st1" d="M114.6,52.5l-6.9-13.3h3.1l4.9,10h0.3l4.9-10h3.1L117,52.5H114.6z M114.4,59.2v-9.8h2.9v9.8H114.4z"/>
	<path class="st1" d="M133,59.2V39.3h2.9v19.9H133z M135.6,53v-2.7h3.3c1.5,0,2.7-0.4,3.5-1.1c0.8-0.8,1.2-1.9,1.2-3.3
		c0-1.3-0.4-2.3-1.2-2.9c-0.8-0.7-1.9-1-3.5-1h-3.2v-2.7h3.2c2.5,0,4.4,0.6,5.7,1.7c1.3,1.1,1.9,2.8,1.9,4.9c0,2.3-0.6,4.1-1.9,5.3
		c-1.3,1.2-3.2,1.8-5.7,1.8H135.6z"/>
	<path class="st1" d="M146.5,59.2l5.8-19.9h4.1l5.8,19.9h-2.9l-4.7-17.5h-0.3l-4.7,17.5H146.5z M149.1,54.3v-2.7h10.1v2.7H149.1z"/>
	<path class="st1" d="M170.4,59.5c-1.1,0-2.2-0.1-3.2-0.3c-1-0.2-1.9-0.5-2.7-0.8l0.4-2.8c1,0.4,2,0.8,3,1c1,0.2,1.9,0.3,2.8,0.3
		c1.3,0,2.3-0.2,2.9-0.7c0.6-0.5,1-1.2,1-2.1c0-1.2-0.6-2.1-1.8-2.6l-3.5-1.6c-1.4-0.6-2.4-1.4-3.1-2.2c-0.7-0.9-1.1-2-1.1-3.2
		c0-1.7,0.5-3.1,1.6-4c1-1,2.5-1.4,4.4-1.4c1.3,0,2.5,0.2,3.6,0.6c1,0.4,2,1,3,1.9l-2,2c-0.8-0.7-1.6-1.2-2.3-1.5
		c-0.7-0.3-1.5-0.5-2.2-0.5c-1,0-1.7,0.2-2.2,0.7c-0.5,0.5-0.8,1.1-0.8,2.1c0,0.6,0.2,1.2,0.5,1.6c0.3,0.4,0.9,0.8,1.5,1.1l2.9,1.4
		c1.5,0.7,2.6,1.5,3.4,2.3c0.8,0.9,1.2,2,1.2,3.4c0,1.8-0.6,3.2-1.8,4.1C174.6,59,172.8,59.5,170.4,59.5z"/>
	<path class="st1" d="M178.9,41.9v-2.7h14.6v2.7H178.9z M184.8,59.2V39.3h2.9v19.9H184.8z"/>
</g>
<polygon class="st2" points="51.5,49.7 74.1,62.8 74.1,36.7 "/>
<polygon class="st3" points="64.2,49.7 86.7,62.8 86.7,36.7 "/>
<path class="st4" d="M208.1,75H42c-5,0-9-4-9-9V34c0-5,4-9,9-9h166.1c5,0,9,4,9,9v32C217.1,71,213.1,75,208.1,75z"/>
</svg>
