<?xml version="1.0" encoding="utf-8"?>
<!-- Generator: Adobe Illustrator 27.5.0, SVG Export Plug-In . SVG Version: 6.00 Build 0)  -->
<svg version="1.1" id="Layer_1" xmlns="http://www.w3.org/2000/svg" xmlns:xlink="http://www.w3.org/1999/xlink" x="0px" y="0px"
	 viewBox="0 0 192 110.3" style="enable-background:new 0 0 192 110.3;" xml:space="preserve">
<style type="text/css">
	.st0{fill:#FFFFFF;}
</style>
<g>
	<path class="st0" d="M43.7,90.7V70.8h2.8v19.9C46.5,90.7,43.7,90.7,43.7,90.7z M49,82.6l-2.2-8.3H46v-3.5h2l2.2,8.6h0.1l0.3,3.2H49
		z M49.8,82.6l0.4-3.2h0.2l2.2-8.6h2v3.5h-0.8l-2.2,8.3C51.6,82.6,49.8,82.6,49.8,82.6z M54.1,90.7V70.8h2.8v19.9
		C56.9,90.7,54.1,90.7,54.1,90.7z"/>
	<path class="st0" d="M65.9,84L59,70.7h3.1l4.9,10h0.3l4.9-10h3.1l-7,13.3H65.9z M65.7,90.7v-9.8h2.9v9.8H65.7z"/>
	<path class="st0" d="M84.3,90.7V70.8h2.9v19.9C87.2,90.7,84.3,90.7,84.3,90.7z M86.9,84.5v-2.7h3.3c1.5,0,2.7-0.4,3.5-1.1
		c0.8-0.8,1.2-1.9,1.2-3.3c0-1.3-0.4-2.3-1.2-2.9c-0.8-0.7-1.9-1-3.5-1H87v-2.7h3.2c2.5,0,4.4,0.6,5.7,1.7c1.3,1.1,1.9,2.8,1.9,4.9
		c0,2.3-0.6,4.1-1.9,5.3c-1.3,1.2-3.2,1.8-5.7,1.8H86.9z"/>
	<path class="st0" d="M97.8,90.7l5.8-19.9h4.1l5.8,19.9h-2.9l-4.7-17.5h-0.3l-4.7,17.5H97.8z M100.4,85.8v-2.7h10.1v2.7H100.4z"/>
	<path class="st0" d="M121.7,91c-1.1,0-2.2-0.1-3.2-0.3c-1-0.2-1.9-0.5-2.7-0.8l0.4-2.8c1,0.4,2,0.8,3,1c1,0.2,1.9,0.3,2.8,0.3
		c1.3,0,2.3-0.2,2.9-0.7c0.6-0.5,1-1.2,1-2.1c0-1.2-0.6-2.1-1.8-2.6l-3.5-1.6c-1.4-0.6-2.4-1.4-3.1-2.2c-0.7-0.9-1.1-2-1.1-3.2
		c0-1.7,0.5-3.1,1.6-4c1-1,2.5-1.4,4.4-1.4c1.3,0,2.5,0.2,3.6,0.6c1,0.4,2,1,3,1.9l-2,2c-0.8-0.7-1.6-1.2-2.3-1.5
		c-0.7-0.3-1.5-0.5-2.2-0.5c-1,0-1.7,0.2-2.2,0.7s-0.8,1.1-0.8,2.1c0,0.6,0.2,1.2,0.5,1.6s0.9,0.8,1.5,1.1l2.9,1.4
		c1.5,0.7,2.6,1.5,3.4,2.3c0.8,0.9,1.2,2,1.2,3.4c0,1.8-0.6,3.2-1.8,4.1C125.9,90.5,124.1,91,121.7,91z"/>
	<path class="st0" d="M130.2,73.4v-2.7h14.6v2.7H130.2z M136.1,90.7V70.8h2.9v19.9C139,90.7,136.1,90.7,136.1,90.7z"/>
</g>
<polygon class="st0" points="15.5,81.2 38,94.3 38,68.2 "/>
<g>
	<polygon class="st0" points="13.5,81.2 25.4,74.4 25.4,68.2 2.8,81.2 25.4,94.3 25.4,88.1 	"/>
	<polygon class="st0" points="25.4,85.8 25.4,76.7 17.5,81.2 	"/>
</g>
</svg>
