<?xml version="1.0" encoding="utf-8"?>
<!-- Generator: Adobe Illustrator 27.5.0, SVG Export Plug-In . SVG Version: 6.00 Build 0)  -->
<svg version="1.1" id="Layer_1" xmlns="http://www.w3.org/2000/svg" xmlns:xlink="http://www.w3.org/1999/xlink" x="0px" y="0px"
	 viewBox="0 0 192 58" style="enable-background:new 0 0 192 58;" xml:space="preserve">
<style type="text/css">
	.st0{fill:#FFFFFF;}
	.st1{fill:none;stroke:#FFFFFF;stroke-miterlimit:10;}
</style>
<g>
	<path class="st0" d="M63.4,38.2V18.3h2.8v19.9H63.4z M68.7,30.1l-2.2-8.3h-0.8v-3.5h2l2.2,8.6H70l0.3,3.2H68.7z M69.5,30.1l0.4-3.2
		h0.2l2.2-8.6h2v3.5h-0.8l-2.2,8.3H69.5z M73.8,38.2V18.3h2.8v19.9H73.8z"/>
	<path class="st0" d="M85.6,31.5l-6.9-13.3h3.1l4.9,10H87l4.9-10h3.1L88,31.5H85.6z M85.4,38.2v-9.8h2.9v9.8H85.4z"/>
	<path class="st0" d="M104,38.2V18.3h2.9v19.9H104z M106.6,32v-2.7h3.3c1.5,0,2.7-0.4,3.5-1.1c0.8-0.8,1.2-1.9,1.2-3.3
		c0-1.3-0.4-2.3-1.2-2.9c-0.8-0.7-1.9-1-3.5-1h-3.2v-2.7h3.2c2.5,0,4.4,0.6,5.7,1.7c1.3,1.1,1.9,2.8,1.9,4.9c0,2.3-0.6,4.1-1.9,5.3
		c-1.3,1.2-3.2,1.8-5.7,1.8H106.6z"/>
	<path class="st0" d="M117.5,38.2l5.8-19.9h4.1l5.8,19.9h-2.9l-4.7-17.5h-0.3l-4.7,17.5H117.5z M120.1,33.3v-2.7h10.1v2.7H120.1z"/>
	<path class="st0" d="M141.4,38.5c-1.1,0-2.2-0.1-3.2-0.3c-1-0.2-1.9-0.5-2.7-0.8l0.4-2.8c1,0.4,2,0.8,3,1c1,0.2,1.9,0.3,2.8,0.3
		c1.3,0,2.3-0.2,2.9-0.7c0.6-0.5,1-1.2,1-2.1c0-1.2-0.6-2.1-1.8-2.6l-3.5-1.6c-1.4-0.6-2.4-1.4-3.1-2.2c-0.7-0.9-1.1-2-1.1-3.2
		c0-1.7,0.5-3.1,1.6-4c1-1,2.5-1.4,4.4-1.4c1.3,0,2.5,0.2,3.6,0.6c1,0.4,2,1,3,1.9l-2,2c-0.8-0.7-1.6-1.2-2.3-1.5
		c-0.7-0.3-1.5-0.5-2.2-0.5c-1,0-1.7,0.2-2.2,0.7c-0.5,0.5-0.8,1.1-0.8,2.1c0,0.6,0.2,1.2,0.5,1.6c0.3,0.4,0.9,0.8,1.5,1.1l2.9,1.4
		c1.5,0.7,2.6,1.5,3.4,2.3c0.8,0.9,1.2,2,1.2,3.4c0,1.8-0.6,3.2-1.8,4.1C145.6,38,143.8,38.5,141.4,38.5z"/>
	<path class="st0" d="M149.9,20.9v-2.7h14.6v2.7H149.9z M155.8,38.2V18.3h2.9v19.9H155.8z"/>
</g>
<polygon class="st0" points="35.2,28.7 57.7,41.8 57.7,15.7 "/>
<g>
	<polygon class="st0" points="33.2,28.7 45.1,21.9 45.1,15.7 22.5,28.7 45.1,41.8 45.1,35.6 	"/>
	<polygon class="st0" points="45.1,33.3 45.1,24.2 37.2,28.7 	"/>
</g>
<path class="st1" d="M179.1,54H13c-5,0-9-4-9-9V13c0-5,4-9,9-9h166.1c5,0,9,4,9,9v32C188.1,50,184.1,54,179.1,54z"/>
</svg>
